<svg width="151" height="170" viewBox="0 0 151 170" fill="none" xmlns="http://www.w3.org/2000/svg">
<g clip-path="url(#clip0_97_714)">
<path d="M9.89097 107.219L11.6492 109.417L10.7701 106.56C10.5502 105.241 9.01187 106.78 9.89097 107.219ZM11.8691 105.9C12.5283 106.999 13.188 108.098 13.188 109.197C13.188 110.736 14.5069 111.395 15.6054 111.835C14.0666 110.077 13.1875 105.241 11.8691 105.9ZM96.2705 12.707C100.007 12.707 103.524 12.2672 107.48 13.1464C117.151 15.5642 125.284 20.3995 130.779 27.2134L146.165 51.8307C146.824 57.9849 148.143 64.7987 147.923 72.2718C149.462 72.2718 149.242 70.0738 151 69.634C149.242 74.03 148.362 79.525 147.923 85.8991C146.824 82.3822 147.923 77.1071 148.143 74.2499C146.604 76.6678 145.725 74.9091 145.725 73.8101C145.945 72.0519 145.066 72.2713 144.406 71.6121C141.988 69.4141 140.45 66.9963 138.692 63.2599C139.791 60.4027 140.01 56.2267 136.494 54.0287C135.395 53.3694 134.076 52.2704 133.417 50.5118C132.537 48.0939 130.999 45.2367 131.438 41.5004C131.658 40.4014 128.141 43.9183 126.163 42.3795C117.591 36.4452 109.019 29.6313 98.6884 23.9164C93.1934 23.9164 89.2372 21.9383 87.2591 19.5204C85.5009 17.3224 86.8193 14.4652 89.4571 14.2453C90.9959 14.2453 92.7541 13.8056 94.073 14.6851C94.2929 13.806 95.172 12.707 96.2705 12.707ZM74.511 7.65137L74.9507 7.87126C77.1487 8.31105 78.2477 11.3881 80.6651 10.2891C80.6651 11.8279 80.885 13.3662 80.4453 14.4652C79.786 16.2234 77.8075 16.2234 76.2692 16.2234C61.5429 15.3443 52.9708 21.4985 43.9594 26.7736C41.5415 28.3124 38.9042 29.4114 36.9256 31.3895C27.4745 40.1815 17.1442 48.3138 14.7263 64.5788L12.7482 82.6021C12.5283 84.5802 10.3303 86.5583 10.7701 88.9762L12.3084 99.7463C10.7696 98.2075 9.8905 100.186 10.3303 101.065C10.5502 101.724 11.4293 103.922 12.7482 101.944C14.5064 105.241 16.2651 111.615 18.6825 114.473C26.1556 123.265 35.8266 131.177 43.7395 139.09C45.7176 138.65 47.2564 138.65 47.6957 137.331C48.3549 138.65 47.0365 139.969 45.9375 140.189C49.4544 142.387 53.4106 144.365 58.6857 144.804C65.4995 145.244 71.8736 146.343 77.8079 147.882C80.885 147.003 83.9621 146.563 87.2591 146.343C88.3581 146.343 89.0173 144.585 90.3362 144.145L90.5561 141.947C91.875 143.925 91.6551 141.288 90.776 139.969C92.3148 141.288 92.7541 142.387 93.4133 143.266C93.4133 142.607 95.1715 140.189 95.172 143.046L95.6113 140.189C96.2705 139.749 96.4904 142.607 97.1501 140.628C97.8093 138.65 99.1282 140.188 100.447 139.529C100.007 140.408 100.227 142.167 101.766 141.068L103.524 139.529C104.623 142.167 106.381 141.068 107.26 140.628C116.932 134.474 126.603 127.221 135.834 119.968L135.614 122.825L136.713 119.308C137.812 120.407 138.691 119.528 139.131 118.869C140.45 116.671 142.208 114.473 145.066 112.494C141.549 121.946 137.373 129.419 132.098 135.573L129.9 138.211C129.9 139.749 129.46 141.728 127.702 141.947C126.823 142.167 125.064 141.507 123.745 142.826C123.086 143.705 125.284 145.464 123.526 144.145C121.987 143.046 120.448 144.145 118.69 144.585C117.371 145.025 119.569 146.343 120.009 147.222C120.448 148.101 120.888 148.98 120.668 150.08L118.25 147.442C115.393 148.981 113.635 151.838 111.217 154.036C110.118 154.915 110.557 156.454 110.557 157.772C109.019 157.772 107.26 157.332 106.381 158.212C105.722 159.091 105.942 160.41 105.942 161.729C103.744 161.509 103.524 158.212 101.546 158.871C99.568 159.311 97.37 159.53 95.6113 160.63C96.9302 163.268 93.4133 161.729 93.8531 162.168C90.5561 160.19 87.6989 158.651 84.182 159.97C76.7089 157.552 67.4777 158.651 60.6638 159.531C60.6638 158.432 60.8837 157.333 60.4439 157.113C60.0041 158.212 58.6857 157.772 58.9056 157.772C54.7295 154.915 50.5534 153.156 46.1574 150.739C42.2012 151.179 38.4644 149.2 37.3654 148.101C34.2883 145.244 30.7714 146.782 27.9142 146.123C21.76 144.584 19.562 138.21 18.9024 133.815C18.4626 131.617 16.7044 130.738 16.0452 130.957C13.188 121.726 8.79198 113.374 5.27509 104.801C4.39599 102.603 4.61588 100.405 4.61588 97.9876C5.71488 98.4274 6.81388 98.2075 6.59398 96.6692C5.49498 89.416 2.85768 83.921 0 78.6459C1.53878 71.1728 1.75821 62.3808 5.27509 55.7869C8.35219 49.8526 14.0671 46.775 18.0233 41.7198C19.3422 39.9616 19.3422 37.5437 20.661 36.0054C25.057 31.6094 29.453 26.9935 34.2883 23.0373C36.4863 21.2791 39.1236 23.0373 42.4206 22.3781C43.5196 18.4219 47.9156 14.905 52.0917 16.004C53.8499 16.4438 57.3668 11.8279 58.4658 11.3881C60.224 10.7289 59.3449 13.1464 59.3449 14.6851C63.521 11.3881 69.2359 9.62994 74.511 7.65137Z" fill="#7A26C1"/>
<g clip-path="url(#clip1_97_714)">
<g clip-path="url(#clip2_97_714)">
<g clip-path="url(#clip3_97_714)">
<g clip-path="url(#clip4_97_714)">
<g clip-path="url(#clip5_97_714)">
<g clip-path="url(#clip6_97_714)">
<g clip-path="url(#clip7_97_714)">
<path d="M30.2021 101.94V88.7761C30.2021 88.7761 30.6346 88.7442 31.4997 88.6804C32.7997 88.5764 33.8361 88.5244 34.609 88.5244C35.3819 88.5244 35.9988 88.554 36.4597 88.613C36.923 88.6745 37.3284 88.7785 37.6758 88.925C38.0256 89.074 38.3234 89.2749 38.5693 89.5278C38.8151 89.7807 39.0148 90.1033 39.1684 90.4957C39.4639 91.2307 39.6116 92.3216 39.6116 93.7681V95.1118C39.6116 96.8254 39.4852 98.1266 39.2323 99.0153C38.9368 100.041 38.4085 100.78 37.6475 101.231C36.8627 101.704 35.7117 101.94 34.1942 101.94H30.2021ZM37.5517 90.8006C37.3437 90.472 37.0436 90.2238 36.6512 90.056C36.2588 89.8882 35.6561 89.8043 34.843 89.8043C34.03 89.8043 32.9734 89.8539 31.6734 89.9532V100.703H34.4282C35.5013 100.703 36.2967 100.527 36.8143 100.175C37.3225 99.8343 37.6628 99.2481 37.8354 98.4161C37.9866 97.7354 38.0623 96.634 38.0623 95.1118V93.761C38.0623 92.3239 37.8921 91.3371 37.5517 90.8006ZM48.3688 102.114H47.8334C45.7795 102.114 44.4239 101.468 43.7668 100.175C43.3792 99.4254 43.1511 98.4244 43.0826 97.1717C43.0542 96.5831 43.04 95.9426 43.04 95.2501C43.04 94.5575 43.0601 93.9004 43.1003 93.2788C43.1405 92.6595 43.2197 92.0994 43.3378 91.5983C43.456 91.0948 43.6227 90.6517 43.8377 90.2688C44.0552 89.8835 44.34 89.562 44.6922 89.3044C45.4178 88.7844 46.4649 88.5244 47.8334 88.5244H48.3688C50.5102 88.5244 51.8811 89.1011 52.4815 90.2546C52.8573 90.9755 53.0676 91.98 53.1125 93.2682C53.1362 93.8969 53.148 94.5611 53.148 95.2607C53.148 95.9627 53.1303 96.6091 53.0948 97.2C53.0617 97.7933 52.9896 98.3405 52.8785 98.8416C52.7698 99.3426 52.6103 99.7953 52.3999 100.199C52.1896 100.604 51.9047 100.948 51.5455 101.231C50.808 101.82 49.7491 102.114 48.3688 102.114ZM47.8334 100.866H48.3546C48.988 100.866 49.514 100.797 49.9323 100.66C50.3507 100.521 50.6816 100.279 50.925 99.9336C51.3741 99.293 51.5987 98.0639 51.5987 96.2463V95.3103C51.5987 94.4382 51.5762 93.6617 51.5313 92.981C51.484 92.3003 51.3599 91.7259 51.159 91.2579C50.743 90.2888 49.8425 89.8043 48.4574 89.8043H47.7306C46.3219 89.8043 45.4214 90.2569 45.029 91.1622C44.7808 91.7413 44.6449 92.4232 44.6213 93.2079C44.6 93.9926 44.5894 94.6934 44.5894 95.3103V96.2463C44.5894 97.9481 44.8423 99.1477 45.3481 99.8449C45.8397 100.526 46.6682 100.866 47.8334 100.866ZM55.8035 101.94L57.8492 88.6981H60.1076L63.1177 98.4764L63.6282 100.589L64.1246 98.4693L67.0318 88.6981H69.1874L71.3253 101.94H69.854L68.2444 91.9351L67.9997 89.5987L67.4715 91.9528L64.4862 101.933H62.7809L59.6645 91.8996L59.0511 89.5987L58.7568 91.9174L57.2926 101.94H55.8035ZM74.6899 101.94V88.6981H76.1542V101.94H74.6899ZM80.4193 101.94V88.6981H81.5893L87.6839 98.3204L88.4709 99.9584L88.2795 98.1396V88.6981H89.6197V101.94H88.3823L82.3338 92.3393L81.5716 90.8537L81.763 92.6194V101.94H80.4193ZM93.8954 101.94V88.6981H95.3597V101.94H93.8954ZM101.504 95.984L101.096 95.9946V101.94H99.6248V88.6981H101.096V94.9132C101.42 94.9132 101.63 94.8884 101.727 94.8388C101.827 94.7892 101.942 94.7171 102.075 94.6225C102.207 94.528 102.403 94.3318 102.663 94.034C102.923 93.7362 103.201 93.397 103.496 93.0165C104.274 91.9599 104.827 91.187 105.156 90.6978L105.96 89.4675C106.168 89.139 106.324 88.879 106.428 88.6875H108.144C108.092 88.8033 107.991 88.9794 107.84 89.2158C107.338 89.9887 106.938 90.5831 106.638 90.9991L104.975 93.2398L104.223 94.1687C103.708 94.7785 103.366 95.1153 103.199 95.1792V95.2572L103.468 95.3635C103.867 95.5124 104.378 95.9993 105 96.8242L108.811 101.94H106.932L104.152 98.0119C103.223 96.7072 102.436 96.0348 101.791 95.9946C101.697 95.9875 101.601 95.984 101.504 95.984ZM109.811 101.94L114.15 88.6981H116.164L120.798 101.94H119.231L117.916 98.0545H112.583L111.335 101.94H109.811ZM112.98 96.8171H117.497L115.161 89.8646L114.895 90.8537L112.98 96.8171Z" fill="white"/>
</g>
</g>
</g>
</g>
<g clip-path="url(#clip8_97_714)">
<g clip-path="url(#clip9_97_714)">
<path d="M84.8263 79.7427C85.4639 79.7427 85.9808 79.2258 85.9808 78.5882C85.9808 77.9505 85.4639 77.4336 84.8263 77.4336C84.1886 77.4336 83.6717 77.9505 83.6717 78.5882C83.6717 79.2258 84.1886 79.7427 84.8263 79.7427Z" fill="white"/>
<path d="M79.7206 72.1224H81.4139C81.5935 72.5586 82.004 72.8408 82.4915 72.8408C83.1329 72.8408 83.6461 72.3277 83.6461 71.6862C83.6461 71.0448 83.1329 70.5317 82.4915 70.5317C82.004 70.5317 81.5935 70.8396 81.4139 71.2501H79.7206C79.5923 71.0705 79.3614 70.9422 79.1048 70.9422C78.6943 70.9422 78.3608 71.2757 78.3608 71.6862C78.3608 71.9428 78.489 72.1481 78.6686 72.302V73.5079H76.2056V72.302C76.3852 72.1737 76.5135 71.9428 76.5135 71.6862C76.5135 71.2757 76.1799 70.9422 75.7694 70.9422C75.3589 70.9422 75.0254 71.2757 75.0254 71.6862C75.0254 71.9428 75.1537 72.1481 75.3333 72.302V73.5079H72.8702V72.302C73.0498 72.1737 73.1781 71.9428 73.1781 71.6862C73.1781 71.4297 73.0498 71.2244 72.8702 71.0705V69.9929C73.3064 69.8133 73.5886 69.4028 73.5886 68.9153C73.5886 68.2739 73.0755 67.7607 72.434 67.7607C71.7926 67.7607 71.2795 68.2739 71.2795 68.9153C71.2795 69.4028 71.5874 69.8133 71.9979 69.9929V71.0705C71.8183 71.1988 71.69 71.4297 71.69 71.6862C71.69 71.9428 71.8183 72.1481 71.9979 72.302V73.5079H70.5354V74.842H69.4322C69.3039 74.6624 69.073 74.5341 68.8164 74.5341C68.5599 74.5341 68.3546 74.6624 68.2007 74.842H65.7633V76.2275C65.3528 76.3814 65.0449 76.8176 65.0449 77.3051C65.0449 77.9465 65.558 78.4596 66.1994 78.4596C66.8409 78.4596 67.354 77.9465 67.354 77.3051C67.354 76.8176 67.0461 76.4071 66.6356 76.2275V75.7144H68.252C68.3803 75.894 68.6112 76.0222 68.8677 76.0222C69.1243 76.0222 69.3296 75.894 69.4835 75.7144H70.6124V78.1774H69.4835C69.3552 77.9978 69.1243 77.8695 68.8677 77.8695C68.4572 77.8695 68.1237 78.2031 68.1237 78.6136C68.1237 79.0241 68.4572 79.3576 68.8677 79.3576C69.1243 79.3576 69.3296 79.2293 69.4835 79.0497H70.5868V81.5128H69.4579C69.3296 81.3332 69.0987 81.2049 68.8421 81.2049C68.5855 81.2049 68.3803 81.3332 68.2263 81.5128H67.2514C67.0718 81.0766 66.6613 80.7944 66.1738 80.7944C65.5324 80.7944 65.0192 81.3075 65.0192 81.949C65.0192 82.5904 65.5324 83.1035 66.1738 83.1035C66.6613 83.1035 67.0718 82.7956 67.2514 82.3851H68.2263C68.3546 82.5647 68.5855 82.693 68.8421 82.693C69.0987 82.693 69.3039 82.5647 69.4579 82.3851H70.5611V83.668H72.0235V84.8738C71.9979 84.8995 71.9722 84.9251 71.9209 84.9508H69.9197C69.7401 84.5146 69.3296 84.2324 68.8421 84.2324C68.2007 84.2324 67.6875 84.7455 67.6875 85.387C67.6875 86.0284 68.2007 86.5415 68.8421 86.5415C69.3296 86.5415 69.7401 86.2336 69.9197 85.8231H71.7926C71.9209 86.054 72.1518 86.2336 72.4597 86.2336C72.8702 86.2336 73.2037 85.9001 73.2037 85.4896C73.2037 85.233 73.0755 85.0278 72.8959 84.8738V83.668H75.3589V84.8738C75.1793 85.0021 75.051 85.233 75.051 85.4896C75.051 85.9001 75.3846 86.2336 75.7951 86.2336C76.2056 86.2336 76.5391 85.9001 76.5391 85.4896C76.5391 85.233 76.4108 85.0278 76.2312 84.8738V83.668H78.6943V84.8738C78.5147 85.0021 78.3864 85.233 78.3864 85.4896C78.3864 85.9001 78.72 86.2336 79.1305 86.2336C79.541 86.2336 79.8745 85.9001 79.8745 85.4896C79.8745 85.233 79.7462 85.0278 79.5666 84.8738V83.668C80.2594 83.6423 80.7982 83.0779 80.7982 82.3851H81.9014C81.9527 82.4621 82.004 82.5134 82.081 82.5647V84.3094C81.6448 84.489 81.3626 84.8995 81.3626 85.387C81.3626 86.0284 81.8757 86.5415 82.5172 86.5415C83.1586 86.5415 83.6717 86.0284 83.6717 85.387C83.6717 84.8995 83.3638 84.489 82.9533 84.3094V82.5647C83.1329 82.4364 83.2612 82.2055 83.2612 81.949C83.2612 81.5384 82.9277 81.2049 82.5172 81.2049C82.2606 81.2049 82.0553 81.3332 81.9014 81.5128H80.7982V79.0497H81.9014C82.0297 79.2293 82.2606 79.3576 82.5172 79.3576C82.9277 79.3576 83.2612 79.0241 83.2612 78.6136C83.2612 78.2031 82.9277 77.8695 82.5172 77.8695C82.2606 77.8695 82.0553 77.9978 81.9014 78.1774H80.7725V75.7144H81.8757C82.004 75.894 82.2349 76.0222 82.4915 76.0222C82.902 76.0222 83.2356 75.6887 83.2356 75.2782C83.2356 74.8677 82.902 74.5341 82.4915 74.5341C82.2349 74.5341 82.0297 74.6624 81.8757 74.842H80.7725V73.5079H79.541V72.302C79.6179 72.2507 79.6693 72.1737 79.7206 72.1224ZM77.2319 77.0485V80.1273H74.153V77.0485H77.2319Z" fill="white"/>
</g>
</g>
</g>
</g>
</g>
</g>
<defs>
<clipPath id="clip0_97_714">
<rect width="151" height="169.875" fill="white"/>
</clipPath>
<clipPath id="clip1_97_714">
<rect width="90.6" height="34.3534" fill="white" transform="translate(30.2 67.7607)"/>
</clipPath>
<clipPath id="clip2_97_714">
<rect width="90.6" height="34.3534" fill="white" transform="translate(30.2 67.7607)"/>
</clipPath>
<clipPath id="clip3_97_714">
<rect width="90.6" height="34.3534" fill="white" transform="translate(30.2 67.7607)"/>
</clipPath>
<clipPath id="clip4_97_714">
<rect width="90.6" height="13.5896" fill="white" transform="translate(30.2 88.5244)"/>
</clipPath>
<clipPath id="clip5_97_714">
<rect width="90.6" height="13.5896" fill="white" transform="translate(30.2 88.5244)"/>
</clipPath>
<clipPath id="clip6_97_714">
<rect width="90.6" height="13.5896" fill="white" transform="translate(30.2 88.5244)"/>
</clipPath>
<clipPath id="clip7_97_714">
<rect width="90.6" height="13.5896" fill="white" transform="translate(30.2 88.5244)"/>
</clipPath>
<clipPath id="clip8_97_714">
<rect width="20.9616" height="18.7808" fill="white" transform="translate(65.0192 67.7607)"/>
</clipPath>
<clipPath id="clip9_97_714">
<rect width="20.9616" height="18.7808" fill="white" transform="translate(65.0192 67.7607)"/>
</clipPath>
</defs>
</svg>
