<svg width="119" height="134" viewBox="0 0 119 134" fill="none" xmlns="http://www.w3.org/2000/svg">
<g clip-path="url(#clip0_96_338)">
<path d="M7.79487 84.4975L9.18048 86.2296L8.48767 83.9776C8.31438 82.9382 7.10207 84.1509 7.79487 84.4975ZM9.35377 83.4581C9.87328 84.3242 10.3932 85.1903 10.3932 86.0564C10.3932 87.269 11.4326 87.7885 12.2983 88.1348C11.0856 86.7492 10.3928 82.9382 9.35377 83.4581ZM75.8688 10.0142C78.8133 10.0142 81.5849 9.66763 84.7031 10.3604C92.3247 12.2659 98.7336 16.0765 103.064 21.4464L115.189 40.8468C115.709 45.6967 116.748 51.0666 116.575 56.956C117.788 56.956 117.614 55.2238 119 54.8772C117.614 58.3416 116.921 62.6721 116.575 67.6954C115.709 64.9238 116.575 60.7666 116.748 58.5149C115.536 60.4204 114.843 59.0344 114.843 58.1683C115.016 56.7827 114.323 56.9556 113.803 56.4361C111.898 54.7039 110.686 52.7985 109.3 49.8539C110.166 47.6022 110.339 44.3111 107.568 42.5789C106.702 42.0594 105.662 41.1933 105.143 39.8074C104.45 37.9019 103.237 35.6502 103.584 32.7057C103.757 31.8396 100.985 34.6112 99.4264 33.3985C92.6709 28.7218 85.9154 23.3519 77.7743 18.8481C73.4438 18.8481 70.326 17.2892 68.7671 15.3837C67.3815 13.6515 68.4205 11.3998 70.4993 11.2265C71.712 11.2265 73.0976 10.8799 74.137 11.5731C74.3103 10.8803 75.0031 10.0142 75.8688 10.0142ZM58.7206 6.02995L59.0671 6.20325C60.7993 6.54983 61.6654 8.97483 63.5705 8.10873C63.5705 9.32142 63.7438 10.5337 63.3972 11.3998C62.8777 12.7854 61.3185 12.7854 60.1062 12.7854C48.5007 12.0926 41.7452 16.9426 34.6435 21.0998C32.738 22.3125 30.6596 23.1786 29.1003 24.7375C21.652 31.6663 13.511 38.0752 11.6055 50.8933L10.0466 65.0971C9.87328 66.656 8.14109 68.2149 8.48767 70.1204L9.69999 78.6081C8.4873 77.3954 7.7945 78.9547 8.14109 79.6475C8.31438 80.167 9.00718 81.8992 10.0466 80.3403C11.4322 82.9385 12.8182 87.9618 14.7233 90.2135C20.6127 97.1423 28.2342 103.378 34.4702 109.614C36.0291 109.267 37.2418 109.267 37.588 108.228C38.1075 109.267 37.0685 110.307 36.2024 110.48C38.974 112.212 42.0918 113.771 46.249 114.117C51.6189 114.464 56.6421 115.33 61.3188 116.543C63.7438 115.85 66.1688 115.503 68.7671 115.33C69.6332 115.33 70.1527 113.944 71.1921 113.598L71.3654 111.866C72.4048 113.424 72.2315 111.346 71.5387 110.307C72.7514 111.346 73.0976 112.212 73.6171 112.905C73.6171 112.385 75.0027 110.48 75.0031 112.732L75.3493 110.48C75.8688 110.133 76.0421 112.385 76.562 110.826C77.0815 109.267 78.1209 110.48 79.1603 109.96C78.8137 110.653 78.987 112.039 80.1993 111.173L81.5853 109.96C82.4514 112.039 83.837 111.173 84.5298 110.826C92.1514 105.976 99.7729 100.26 107.048 94.544L106.875 96.7957L107.741 94.0241C108.607 94.8902 109.3 94.1974 109.646 93.6779C110.686 91.9457 112.071 90.2135 114.323 88.6546C111.552 96.1029 108.261 101.992 104.103 106.842L102.371 108.921C102.371 110.134 102.025 111.693 100.639 111.866C99.9462 112.039 98.5603 111.519 97.5212 112.558C97.0017 113.251 98.7339 114.637 97.3479 113.598C96.1353 112.732 94.923 113.598 93.537 113.944C92.4976 114.291 94.2298 115.33 94.5764 116.023C94.923 116.716 95.2692 117.408 95.0962 118.275L93.1908 116.196C90.9391 117.409 89.5531 119.66 87.6476 121.393C86.7815 122.085 87.1281 123.298 87.1281 124.337C85.9154 124.337 84.5298 123.991 83.837 124.684C83.3175 125.377 83.4904 126.416 83.4904 127.455C81.7582 127.282 81.5849 124.684 80.0264 125.203C78.4675 125.55 76.7353 125.723 75.3493 126.589C76.3887 128.668 73.6171 127.455 73.9637 127.802C71.3654 126.243 69.1137 125.03 66.3421 126.069C60.4527 124.164 53.1778 125.03 47.8079 125.723C47.8079 124.857 47.9812 123.991 47.6346 123.818C47.288 124.684 46.249 124.337 46.4223 124.337C43.1312 122.085 39.8401 120.699 36.3757 118.794C33.2579 119.141 30.313 117.582 29.4469 116.716C27.0219 114.464 24.2503 115.676 21.9986 115.157C17.1486 113.944 15.4164 108.921 14.8966 105.457C14.55 103.725 13.1644 103.032 12.6449 103.205C10.3932 95.9296 6.92877 89.3474 4.15719 82.592C3.46439 80.8598 3.63768 79.1276 3.63768 77.2221C4.50378 77.5687 5.36987 77.3954 5.19658 76.1831C4.33048 70.467 2.25207 66.1365 0 61.9793C1.21268 56.0899 1.38561 49.1611 4.15719 43.9646C6.58219 39.2879 11.086 36.8625 14.2038 32.8786C15.2432 31.493 15.2432 29.5875 16.2825 28.3752C19.7469 24.9108 23.2113 21.2731 27.0219 18.1553C28.7541 16.7697 30.8325 18.1553 33.4308 17.6358C34.2969 14.518 37.7613 11.7464 41.0524 12.6125C42.438 12.9591 45.2096 9.32142 46.0757 8.97483C47.4613 8.45532 46.7685 10.3604 46.7685 11.5731C50.0596 8.97483 54.5634 7.58923 58.7206 6.02995Z" fill="#7A26C1"/>
<g clip-path="url(#clip1_96_338)">
<g clip-path="url(#clip2_96_338)">
<g clip-path="url(#clip3_96_338)">
<g clip-path="url(#clip4_96_338)">
<g clip-path="url(#clip5_96_338)">
<g clip-path="url(#clip6_96_338)">
<g clip-path="url(#clip7_96_338)">
<path d="M23.8018 80.3372V69.9628C23.8018 69.9628 24.1427 69.9377 24.8244 69.8874C25.8489 69.8054 26.6657 69.7645 27.2748 69.7645C27.884 69.7645 28.3701 69.7877 28.7333 69.8343C29.0984 69.8827 29.4179 69.9647 29.6917 70.0802C29.9674 70.1975 30.2021 70.3559 30.3958 70.5552C30.5895 70.7545 30.7469 71.0087 30.868 71.318C31.1009 71.8973 31.2173 72.7569 31.2173 73.8969V74.9558C31.2173 76.3063 31.1176 77.3317 30.9183 78.0321C30.6855 78.8405 30.2692 79.4226 29.6694 79.7784C29.0509 80.1509 28.1438 80.3372 26.9479 80.3372H23.8018ZM29.5939 71.5582C29.43 71.2993 29.1934 71.1037 28.8842 70.9715C28.575 70.8392 28.1 70.7731 27.4593 70.7731C26.8185 70.7731 25.9858 70.8122 24.9614 70.8905V79.3621H27.1323C27.978 79.3621 28.6048 79.2233 29.0128 78.9458C29.4132 78.6775 29.6815 78.2156 29.8174 77.5599C29.9367 77.0234 29.9963 76.1554 29.9963 74.9558V73.8913C29.9963 72.7588 29.8622 71.9811 29.5939 71.5582ZM38.1186 80.4741H37.6967C36.078 80.4741 35.0098 79.9647 34.4919 78.9458C34.1864 78.3553 34.0067 77.5664 33.9527 76.5792C33.9303 76.1154 33.9191 75.6106 33.9191 75.0648C33.9191 74.519 33.935 74.0012 33.9666 73.5113C33.9983 73.0233 34.0607 72.5818 34.1538 72.1869C34.247 71.7901 34.3783 71.4409 34.5478 71.1391C34.7192 70.8355 34.9436 70.5822 35.2212 70.3791C35.793 69.9693 36.6182 69.7645 37.6967 69.7645H38.1186C39.8062 69.7645 40.8866 70.219 41.3597 71.128C41.6559 71.6961 41.8217 72.4877 41.8571 73.5029C41.8757 73.9984 41.885 74.5218 41.885 75.0732C41.885 75.6264 41.871 76.1359 41.8431 76.6015C41.817 77.0691 41.7602 77.5003 41.6727 77.8952C41.587 78.2901 41.4613 78.6468 41.2955 78.9653C41.1297 79.2838 40.9052 79.5549 40.6221 79.7784C40.0409 80.2422 39.2064 80.4741 38.1186 80.4741ZM37.6967 79.4906H38.1074C38.6066 79.4906 39.0211 79.4366 39.3508 79.3285C39.6805 79.2186 39.9413 79.0277 40.1331 78.7558C40.4871 78.251 40.664 77.2824 40.664 75.8499V75.1123C40.664 74.425 40.6463 73.8131 40.6109 73.2766C40.5737 72.7401 40.4759 72.2875 40.3175 71.9187C39.9897 71.155 39.28 70.7731 38.1885 70.7731H37.6157C36.5055 70.7731 35.7958 71.1298 35.4866 71.8432C35.291 72.2996 35.1839 72.837 35.1653 73.4554C35.1485 74.0738 35.1401 74.6261 35.1401 75.1123V75.8499C35.1401 77.1911 35.3395 78.1364 35.7381 78.6859C36.1255 79.2224 36.7784 79.4906 37.6967 79.4906ZM43.9778 80.3372L45.59 69.9014H47.3698L49.7419 77.6074L50.1443 79.2727L50.5355 77.6018L52.8266 69.9014H54.5254L56.2102 80.3372H55.0507L53.7822 72.4523L53.5894 70.6111L53.173 72.4663L50.8204 80.3316H49.4765L47.0205 72.4244L46.5371 70.6111L46.3052 72.4384L45.1513 80.3372H43.9778ZM58.8618 80.3372V69.9014H60.0157V80.3372H58.8618ZM63.377 80.3372V69.9014H64.299L69.102 77.4845L69.7223 78.7753L69.5714 77.342V69.9014H70.6276V80.3372H69.6525L64.8858 72.7709L64.2851 71.6002L64.4359 72.9916V80.3372H63.377ZM73.9972 80.3372V69.9014H75.1512V80.3372H73.9972ZM79.9933 75.6432L79.672 75.6515V80.3372H78.5124V69.9014H79.672V74.7994C79.9272 74.7994 80.093 74.7798 80.1693 74.7407C80.2476 74.7016 80.3388 74.6448 80.4431 74.5702C80.5475 74.4957 80.7021 74.3411 80.907 74.1064C81.1119 73.8717 81.3307 73.6044 81.5636 73.3045C82.1764 72.4719 82.6123 71.8628 82.8712 71.4772L83.5054 70.5077C83.6694 70.2488 83.7923 70.0439 83.8743 69.893H85.2266C85.1856 69.9842 85.1055 70.123 84.9863 70.3093C84.5914 70.9184 84.2757 71.3869 84.0391 71.7147L82.7287 73.4806L82.1363 74.2126C81.7303 74.6932 81.4611 74.9586 81.3289 75.0089V75.0704L81.5412 75.1542C81.856 75.2716 82.2584 75.6553 82.7482 76.3054L85.7519 80.3372H84.271L82.0805 77.2414C81.3484 76.2132 80.7281 75.6832 80.2196 75.6515C80.1451 75.646 80.0697 75.6432 79.9933 75.6432ZM86.5398 80.3372L89.9597 69.9014H91.5468L95.1986 80.3372H93.9636L92.927 77.2749H88.7248L87.7412 80.3372H86.5398ZM89.0377 76.2998H92.5973L90.7561 70.8206L90.5465 71.6002L89.0377 76.2998Z" fill="black"/>
</g>
</g>
</g>
</g>
<g clip-path="url(#clip8_96_338)">
<g clip-path="url(#clip9_96_338)">
<path d="M66.8498 62.8435C67.3523 62.8435 67.7597 62.4361 67.7597 61.9336C67.7597 61.4311 67.3523 61.0237 66.8498 61.0237C66.3473 61.0237 65.9399 61.4311 65.9399 61.9336C65.9399 62.4361 66.3473 62.8435 66.8498 62.8435Z" fill="black"/>
<path d="M62.8261 56.8382H64.1606C64.3022 57.182 64.6257 57.4044 65.0098 57.4044C65.5153 57.4044 65.9197 57 65.9197 56.4945C65.9197 55.989 65.5153 55.5846 65.0098 55.5846C64.6257 55.5846 64.3022 55.8272 64.1606 56.1508H62.8261C62.725 56.0092 62.5431 55.9081 62.3409 55.9081C62.0173 55.9081 61.7545 56.171 61.7545 56.4945C61.7545 56.6967 61.8556 56.8584 61.9971 56.9798V57.9301H60.056V56.9798C60.1976 56.8787 60.2987 56.6967 60.2987 56.4945C60.2987 56.171 60.0358 55.9081 59.7123 55.9081C59.3888 55.9081 59.1259 56.171 59.1259 56.4945C59.1259 56.6967 59.227 56.8584 59.3686 56.9798V57.9301H57.4275V56.9798C57.569 56.8787 57.6701 56.6967 57.6701 56.4945C57.6701 56.2923 57.569 56.1305 57.4275 56.0092V55.16C57.7712 55.0185 57.9936 54.6949 57.9936 54.3108C57.9936 53.8053 57.5893 53.4009 57.0838 53.4009C56.5783 53.4009 56.1739 53.8053 56.1739 54.3108C56.1739 54.6949 56.4165 55.0185 56.74 55.16V56.0092C56.5985 56.1103 56.4974 56.2923 56.4974 56.4945C56.4974 56.6967 56.5985 56.8584 56.74 56.9798V57.9301H55.5875V58.9815H54.7181C54.617 58.84 54.435 58.7389 54.2328 58.7389C54.0306 58.7389 53.8688 58.84 53.7475 58.9815H51.8267V60.0734C51.5032 60.1947 51.2605 60.5384 51.2605 60.9226C51.2605 61.4281 51.6649 61.8325 52.1704 61.8325C52.6759 61.8325 53.0803 61.4281 53.0803 60.9226C53.0803 60.5384 52.8376 60.2149 52.5141 60.0734V59.669H53.788C53.8891 59.8105 54.071 59.9116 54.2732 59.9116C54.4754 59.9116 54.6372 59.8105 54.7585 59.669H55.6482V61.61H54.7585C54.6574 61.4685 54.4754 61.3674 54.2732 61.3674C53.9497 61.3674 53.6869 61.6303 53.6869 61.9538C53.6869 62.2773 53.9497 62.5401 54.2732 62.5401C54.4754 62.5401 54.6372 62.439 54.7585 62.2975H55.6279V64.2386H54.7383C54.6372 64.0971 54.4552 63.996 54.253 63.996C54.0508 63.996 53.8891 64.0971 53.7677 64.2386H52.9994C52.8579 63.8949 52.5343 63.6724 52.1502 63.6724C51.6447 63.6724 51.2403 64.0768 51.2403 64.5823C51.2403 65.0878 51.6447 65.4922 52.1502 65.4922C52.5343 65.4922 52.8579 65.2496 52.9994 64.9261H53.7677C53.8688 65.0676 54.0508 65.1687 54.253 65.1687C54.4552 65.1687 54.617 65.0676 54.7383 64.9261H55.6077V65.937H56.7602V66.8874C56.74 66.9076 56.7198 66.9278 56.6794 66.948H55.1022C54.9607 66.6043 54.6372 66.3819 54.253 66.3819C53.7475 66.3819 53.3431 66.7863 53.3431 67.2918C53.3431 67.7972 53.7475 68.2016 54.253 68.2016C54.6372 68.2016 54.9607 67.959 55.1022 67.6355H56.5783C56.6794 67.8175 56.8613 67.959 57.104 67.959C57.4275 67.959 57.6903 67.6961 57.6903 67.3726C57.6903 67.1704 57.5893 67.0087 57.4477 66.8874V65.937H59.3888V66.8874C59.2473 66.9885 59.1462 67.1704 59.1462 67.3726C59.1462 67.6961 59.409 67.959 59.7325 67.959C60.056 67.959 60.3189 67.6961 60.3189 67.3726C60.3189 67.1704 60.2178 67.0087 60.0763 66.8874V65.937H62.0173V66.8874C61.8758 66.9885 61.7747 67.1704 61.7747 67.3726C61.7747 67.6961 62.0376 67.959 62.3611 67.959C62.6846 67.959 62.9474 67.6961 62.9474 67.3726C62.9474 67.1704 62.8463 67.0087 62.7048 66.8874V65.937C63.2507 65.9168 63.6754 65.472 63.6754 64.9261H64.5448C64.5852 64.9867 64.6257 65.0272 64.6863 65.0676V66.4425C64.3426 66.5841 64.1202 66.9076 64.1202 67.2918C64.1202 67.7972 64.5246 68.2016 65.0301 68.2016C65.5356 68.2016 65.9399 67.7972 65.9399 67.2918C65.9399 66.9076 65.6973 66.5841 65.3738 66.4425V65.0676C65.5153 64.9665 65.6164 64.7845 65.6164 64.5823C65.6164 64.2588 65.3536 63.996 65.0301 63.996C64.8279 63.996 64.6661 64.0971 64.5448 64.2386H63.6754V62.2975H64.5448C64.6459 62.439 64.8279 62.5401 65.0301 62.5401C65.3536 62.5401 65.6164 62.2773 65.6164 61.9538C65.6164 61.6303 65.3536 61.3674 65.0301 61.3674C64.8279 61.3674 64.6661 61.4685 64.5448 61.61H63.6551V59.669H64.5246C64.6257 59.8105 64.8076 59.9116 65.0098 59.9116C65.3334 59.9116 65.5962 59.6487 65.5962 59.3252C65.5962 59.0017 65.3334 58.7389 65.0098 58.7389C64.8076 58.7389 64.6459 58.84 64.5246 58.9815H63.6551V57.9301H62.6846V56.9798C62.7452 56.9393 62.7857 56.8787 62.8261 56.8382ZM60.8648 60.7204V63.1467H58.4385V60.7204H60.8648Z" fill="black"/>
</g>
</g>
</g>
</g>
</g>
</g>
<defs>
<clipPath id="clip0_96_338">
<rect width="119" height="133.875" fill="white"/>
</clipPath>
<clipPath id="clip1_96_338">
<rect width="71.4" height="27.0732" fill="white" transform="translate(23.8 53.4009)"/>
</clipPath>
<clipPath id="clip2_96_338">
<rect width="71.4" height="27.0732" fill="white" transform="translate(23.8 53.4009)"/>
</clipPath>
<clipPath id="clip3_96_338">
<rect width="71.4" height="27.0732" fill="white" transform="translate(23.8 53.4009)"/>
</clipPath>
<clipPath id="clip4_96_338">
<rect width="71.4" height="10.7097" fill="white" transform="translate(23.8 69.7645)"/>
</clipPath>
<clipPath id="clip5_96_338">
<rect width="71.4" height="10.7097" fill="white" transform="translate(23.8 69.7645)"/>
</clipPath>
<clipPath id="clip6_96_338">
<rect width="71.4" height="10.7097" fill="white" transform="translate(23.8 69.7645)"/>
</clipPath>
<clipPath id="clip7_96_338">
<rect width="71.4" height="10.7097" fill="white" transform="translate(23.8 69.7645)"/>
</clipPath>
<clipPath id="clip8_96_338">
<rect width="16.5194" height="14.8007" fill="white" transform="translate(51.2403 53.4009)"/>
</clipPath>
<clipPath id="clip9_96_338">
<rect width="16.5194" height="14.8007" fill="white" transform="translate(51.2403 53.4009)"/>
</clipPath>
</defs>
</svg>
