<svg width="25" height="25" viewBox="0 0 25 25" fill="none" xmlns="http://www.w3.org/2000/svg">
<path d="M24.5855 13.3248C24.735 12.9629 24.735 12.5564 24.5855 12.1945C24.5133 12.0151 24.4067 11.8515 24.2716 11.7131L13.8064 1.24796C13.5288 0.970406 13.1524 0.814478 12.7599 0.814478C12.3673 0.814478 11.9909 0.970406 11.7133 1.24796C11.4358 1.52551 11.2799 1.90196 11.2799 2.29448C11.2799 2.687 11.4358 3.06344 11.7133 3.341L19.6564 11.2841L2.29467 11.2736C2.09929 11.2728 1.9057 11.3107 1.72504 11.3851C1.54438 11.4595 1.38024 11.5689 1.24209 11.7071C1.10393 11.8452 0.994502 12.0094 0.920104 12.19C0.845706 12.3707 0.807816 12.5643 0.808617 12.7597C0.807816 12.955 0.845706 13.1486 0.920103 13.3293C0.9945 13.51 1.10393 13.6741 1.24209 13.8122C1.38024 13.9504 1.54438 14.0598 1.72504 14.1342C1.90569 14.2086 2.0993 14.2465 2.29467 14.2457L19.6564 14.2352L11.7133 22.1783C11.4358 22.4559 11.2799 22.8323 11.2799 23.2248C11.2799 23.6174 11.4358 23.9938 11.7133 24.2714C11.9909 24.5489 12.3673 24.7048 12.7599 24.7048C13.1524 24.7048 13.5288 24.5489 13.8064 24.2714L24.2716 13.8062C24.4067 13.6678 24.5133 13.5042 24.5855 13.3248Z" fill=""/>
</svg>
