<svg width="15" height="16" viewBox="0 0 15 16" fill="none" xmlns="http://www.w3.org/2000/svg">
<path fill-rule="evenodd" clip-rule="evenodd" d="M14.2175 11.8891C14.9985 12.6701 14.9985 13.9365 14.2175 14.7175C13.4364 15.4986 12.1701 15.4986 11.389 14.7175L7.49997 10.8284L3.6109 14.7175C2.82985 15.4986 1.56352 15.4986 0.782469 14.7175C0.00142068 13.9365 0.00142068 12.6701 0.782469 11.8891L4.67154 8.00001L0.782441 4.11091C0.00139295 3.32986 0.00139295 2.06353 0.782441 1.28248C1.56349 0.501436 2.82982 0.501436 3.61087 1.28248L7.49997 5.17159L11.3891 1.28248C12.1701 0.501436 13.4364 0.501435 14.2175 1.28248C14.9985 2.06353 14.9985 3.32986 14.2175 4.11091L10.3284 8.00001L14.2175 11.8891Z" fill="#F6F6F6"/>
</svg>
