<svg width="15" height="15" viewBox="0 0 15 15" fill="none" xmlns="http://www.w3.org/2000/svg">
<path fill-rule="evenodd" clip-rule="evenodd" d="M14.1524 11.3241C14.9335 12.1052 14.9335 13.3715 14.1524 14.1526C13.3714 14.9336 12.1051 14.9336 11.324 14.1526L7.43494 10.2635L3.54586 14.1526C2.76481 14.9336 1.49848 14.9336 0.717436 14.1526C-0.0636124 13.3715 -0.0636124 12.1052 0.717436 11.3241L4.60651 7.43506L0.717408 3.54596C-0.0636401 2.76491 -0.0636401 1.49858 0.717408 0.717528C1.49846 -0.0635206 2.76479 -0.0635204 3.54584 0.717528L7.43494 4.60663L11.324 0.717527C12.1051 -0.0635206 13.3714 -0.0635213 14.1525 0.717527C14.9335 1.49858 14.9335 2.76491 14.1525 3.54595L10.2634 7.43506L14.1524 11.3241Z" fill="#2C2C2C"/>
</svg>
