<svg width="136" height="74" viewBox="0 0 136 74" fill="none" xmlns="http://www.w3.org/2000/svg">
<path d="M34.5149 16.7757L15.6514 57.1704H22.225L26.798 47.3575H44.2325L48.5197 57.1704H55.1886L36.8967 16.7757H34.5149ZM35.6582 27.8271L41.7555 41.546H29.3703L35.6582 27.8271Z" fill="#2C2C2C"/>
<path d="M67.7642 57.1704H61.5716V16.7757H67.7642V57.1704Z" fill="#2C2C2C"/>
<path d="M99.9657 36.1159H116.733V37.4497C116.733 40.4984 116.352 43.2612 115.781 45.4524C115.018 47.6436 113.875 49.7396 112.16 51.5497C108.349 55.8369 103.491 57.9329 97.6792 57.9329C92.0582 57.9329 87.1042 55.9322 83.1028 51.8355C79.0062 47.6436 77.0055 42.7848 77.0055 37.0686C77.0055 31.1618 79.1014 26.2078 83.1981 22.1111C87.2947 17.9192 92.344 15.9186 98.2508 15.9186C101.395 15.9186 104.443 16.5855 107.206 17.824C109.779 19.0625 112.351 21.1584 114.923 24.1118L110.541 28.2085C107.302 23.9213 103.205 21.6348 98.4414 21.6348C94.0589 21.6348 90.5339 23.0638 87.5805 26.1125C84.6271 28.9706 83.1981 32.5909 83.1981 36.9733C83.1981 41.4511 84.7224 45.1666 88.0569 48.12C91.1055 50.7876 94.44 52.2166 97.965 52.2166C101.014 52.2166 103.681 51.1687 106.063 49.168C108.445 47.072 109.779 44.6903 110.064 41.8321H99.9657V36.1159Z" fill="#2C2C2C"/>
<path d="M0.979614 73.0808H135.025V0.961037H0.979614V73.0808ZM6.60057 6.39146H129.5V67.4599H6.60057V6.39146Z" fill="#2C2C2C"/>
</svg>
