<svg width="135" height="41" viewBox="0 0 135 41" fill="none" xmlns="http://www.w3.org/2000/svg">
<g clip-path="url(#clip0_73_37)">
<path d="M30.4226 9.95547V22.4325C30.4226 22.6347 30.3422 22.8287 30.1992 22.9717C30.0562 23.1147 29.8622 23.1951 29.66 23.1951H25.7213C25.5191 23.195 25.3252 23.1146 25.1822 22.9716C25.0392 22.8286 24.9588 22.6347 24.9587 22.4325V2.13799C24.9587 1.93575 25.0391 1.74178 25.1821 1.59877C25.3251 1.45576 25.5191 1.37541 25.7213 1.37541H29.3661C29.5684 1.37541 29.7623 1.45576 29.9053 1.59877C30.0483 1.74178 30.1287 1.93575 30.1287 2.13799V4.996C30.1287 4.996 31.4316 0.919141 35.2983 0.919141C35.2983 0.919141 39.123 0.456818 40.6781 4.70179C40.6781 4.70179 41.981 0.919141 45.9318 0.919141C45.9318 0.919141 51.8071 0.569793 51.8071 6.64926L51.8518 9.9975V22.4745C51.8518 22.6768 51.7715 22.8707 51.6285 23.0137C51.4855 23.1568 51.2915 23.2371 51.0893 23.2371H47.1503C46.948 23.237 46.7541 23.1566 46.6111 23.0136C46.4681 22.8707 46.3878 22.6767 46.3877 22.4745L46.3517 8.8627C46.4637 5.78043 43.9702 6.0047 43.9702 6.0047C40.8321 6.06085 41.134 9.9975 41.134 9.9975V22.4745C41.134 22.6768 41.0537 22.8707 40.9107 23.0137C40.7676 23.1568 40.5737 23.2371 40.3714 23.2371H36.4328C36.2305 23.237 36.0366 23.1566 35.8936 23.0136C35.7506 22.8707 35.6703 22.6767 35.6702 22.4745V9.17069C35.6702 9.17069 35.9005 5.97646 33.0983 5.97646C33.0987 5.97646 30.3247 5.61231 30.4226 9.95547ZM131.951 9.91814V22.3948C131.95 22.5971 131.87 22.791 131.727 22.934C131.584 23.077 131.39 23.1573 131.188 23.1574L127.092 23.2368C126.889 23.2367 126.695 23.1563 126.552 23.0133C126.409 22.8703 126.329 22.6764 126.329 22.4742V9.17069C126.329 9.17069 126.559 5.97646 123.757 5.97646C123.757 5.97646 121.081 5.84465 121.081 10.8529V22.4322C121.081 22.6344 121.001 22.8283 120.858 22.9713C120.715 23.1143 120.521 23.1946 120.319 23.1947H116.38C116.178 23.1946 115.984 23.1143 115.841 22.9713C115.698 22.8283 115.617 22.6344 115.617 22.4322V2.13799C115.617 1.93577 115.698 1.74186 115.841 1.59887C115.984 1.45587 116.178 1.3755 116.38 1.37541H120.025C120.227 1.37541 120.421 1.45576 120.564 1.59877C120.707 1.74178 120.787 1.93575 120.787 2.13799V4.996C120.787 4.996 122.09 0.919141 125.957 0.919141C125.957 0.919141 130.099 0.290718 131.494 4.62277C131.494 4.62244 131.951 5.51615 131.951 9.91814ZM103.512 0.835082C98.4749 0.835082 94.3913 5.08005 94.3913 12.2251C94.3913 18.5157 97.5435 23.615 103.512 23.615C109.144 23.615 112.632 18.5157 112.632 12.2251C112.632 5.20614 108.549 0.835082 103.512 0.835082ZM106.691 12.4772C106.691 15.1671 106.355 16.5961 106.355 16.5961C105.876 19.4397 103.812 19.4437 103.508 19.4286C103.179 19.4417 101.098 19.4121 100.667 16.5961C100.667 16.5961 100.331 15.1671 100.331 12.4772V12.029C100.331 9.33915 100.667 7.91015 100.667 7.91015C101.098 5.09418 103.18 5.06459 103.508 5.07736C103.812 5.06223 105.876 5.06593 106.355 7.91015C106.355 7.91015 106.691 9.33915 106.691 12.029V12.4772ZM92.1053 4.96775V2.05595C92.1052 1.85373 92.0248 1.65982 91.8818 1.51682C91.7388 1.37383 91.5449 1.29346 91.3427 1.29337H78.3237C78.1214 1.29337 77.9274 1.37371 77.7844 1.51673C77.6414 1.65974 77.5611 1.8537 77.5611 2.05595V4.94522C77.5612 5.14745 77.6415 5.34136 77.7845 5.48435C77.9275 5.62734 78.1214 5.70772 78.3237 5.70781H85.1146L77.0766 17.3684C77.0766 17.3684 76.7598 17.8412 76.7702 18.3634V21.9103C76.7702 21.9103 76.7178 23.1265 78.097 22.4207C78.097 22.4207 80.5468 20.9406 84.6546 20.9406C84.6546 20.9406 88.7113 20.8902 91.416 22.5482C91.416 22.5482 92.5387 23.0586 92.5387 21.9362V18.8489C92.5387 18.8489 92.6406 18.0318 91.569 17.5218C91.569 17.5218 88.4561 15.8124 84.3739 16.0928L92.1053 4.96775ZM21.9188 19.5657L20.6859 17.6889C20.2935 16.9882 20.3217 16.2034 20.3217 16.2034V7.54567C20.4898 0.0644308 12.1959 0.708994 12.1959 0.708994C4.82294 0.708994 3.73388 6.44685 3.73388 6.44685C3.42656 7.60047 4.32027 7.62838 4.32027 7.62838L7.92303 7.99387C7.92303 7.99387 8.53733 8.13442 8.76093 7.4031C8.76093 7.4031 9.23536 4.89983 11.8886 4.89983C14.7755 4.89983 14.7456 7.37755 14.7456 7.37755V9.45179C8.98251 9.64445 6.31179 11.2443 6.31179 11.2443C2.75341 13.2617 2.97735 17.2686 2.97735 17.2686C2.97735 23.7969 9.1977 23.5165 9.1977 23.5165C13.1764 23.5165 15.53 20.6027 15.53 20.6027C16.2304 21.836 17.5195 23.0122 17.5195 23.0122C18.1644 23.7115 18.8366 23.1245 18.8366 23.1245L21.7507 20.6309C22.3949 20.1542 21.9188 19.5657 21.9188 19.5657ZM11.1395 19.4851C9.26797 19.4851 8.5723 17.6253 8.88299 15.7976C9.194 13.9698 10.8093 12.5334 14.7459 12.5754V13.6867C14.8855 18.5412 12.6972 19.4851 11.1395 19.4851ZM74.2592 19.5657L73.0266 17.6889C72.6342 16.9882 72.6621 16.2034 72.6621 16.2034V7.54567C72.8302 0.0644308 64.5363 0.708994 64.5363 0.708994C57.1634 0.708994 56.0743 6.44685 56.0743 6.44685C55.767 7.60047 56.6607 7.62838 56.6607 7.62838L60.2634 7.99387C60.2634 7.99387 60.8778 8.13442 61.1013 7.4031C61.1013 7.4031 61.5758 4.89983 64.229 4.89983C67.1159 4.89983 67.086 7.37755 67.086 7.37755V9.45179C61.3233 9.64445 58.6522 11.2443 58.6522 11.2443C55.0938 13.2617 55.3178 17.2686 55.3178 17.2686C55.3178 23.7969 61.5381 23.5165 61.5381 23.5165C65.5168 23.5165 67.8704 20.6027 67.8704 20.6027C68.5712 21.836 69.8596 23.0122 69.8596 23.0122C70.5045 23.7115 71.177 23.1245 71.177 23.1245L74.0908 20.6309C74.7354 20.1542 74.2592 19.5657 74.2592 19.5657ZM63.4799 19.4851C61.6084 19.4851 60.9127 17.6253 61.2234 15.7976C61.5344 13.9698 63.1497 12.5334 67.086 12.5754V13.6867C67.2259 18.5412 65.038 19.4851 63.4799 19.4851Z" fill="#2C2C2C"/>
<path d="M84.1768 35.9534C84.1768 35.9534 83.8473 36.5267 84.2521 36.6548C84.2521 36.6548 84.7094 36.8333 85.2797 36.3041C85.2797 36.3041 89.4385 32.6711 89.5387 26.0566C89.5387 26.0566 89.5693 25.2305 89.2378 25.0046C89.2378 25.0046 87.9349 23.8519 83.2498 24.2026C83.2498 24.2026 79.1659 24.4783 76.9363 26.4578C76.9363 26.4578 76.7359 26.6329 76.7359 26.8582C76.7359 26.8582 76.6878 27.3448 77.9134 27.1339C77.9134 27.1339 81.997 26.5573 84.4273 26.8582C84.4273 26.8582 85.6804 27.0085 86.0311 27.4349C86.0311 27.4349 86.6074 27.911 86.3065 29.4889C86.3065 29.4896 85.4794 33.4982 84.1768 35.9534Z" fill="#2C2C2C"/>
<path d="M83.3534 29.6075C83.3534 29.6075 83.9633 30.3977 82.9792 31.0792C82.9792 31.0792 72.4661 39.4885 54.8137 39.4885C54.8137 39.4885 36.6429 40.3849 21.4703 26.5992C21.4703 26.5992 20.9384 26.1322 21.2685 25.6981C21.2685 25.6981 21.5638 25.2987 22.328 25.7331C22.328 25.7331 36.6009 34.6269 55.346 34.6269C55.346 34.6269 68.3751 35.1312 81.7405 29.4152C81.7405 29.4152 82.8053 28.8634 83.3534 29.6075Z" fill="#2C2C2C"/>
</g>
<defs>
<clipPath id="clip0_73_37">
<rect width="134.044" height="40.3203" fill="white" transform="translate(0.330139 0.0646973)"/>
</clipPath>
</defs>
</svg>
