<svg width="131" height="46" viewBox="0 0 131 46" fill="none" xmlns="http://www.w3.org/2000/svg">
<mask id="mask0_73_1696" style="mask-type:luminance" maskUnits="userSpaceOnUse" x="0" y="0" width="131" height="50">
<path d="M0.564819 49.908H130.065V0.482376H0.564819V49.908Z" fill="white"/>
</mask>
<g mask="url(#mask0_73_1696)">
<path d="M46.0432 36.5895V41.4599H45.1168V40.5334H45.0885C44.5687 41.2498 43.5588 41.5999 42.4358 41.5999C40.1347 41.5999 38.4785 39.9436 38.4785 36.3929C38.4785 32.8422 40.1347 31.186 42.4358 31.186C44.1486 31.186 45.4682 31.9992 46.0849 34.1618L45.0185 34.3718C44.5135 32.7573 43.6705 32.1407 42.4924 32.1407C41.0045 32.1407 39.6 33.1505 39.6 36.3929C39.6 39.6353 41.0045 40.6452 42.4924 40.6452C44.1486 40.6452 44.9202 39.6353 44.9202 38.4006V37.5442H42.6324V36.5895H46.0432Z" fill="#2C2C2C"/>
<path d="M47.6851 34.1612H48.6964V35.6074H48.7232C49.2847 34.611 49.8894 34.0495 51.0958 34.0495V35.0593C49.8328 35.0876 49.173 35.9157 48.6964 37.417V41.4592H47.6851V34.1612Z" fill="#2C2C2C"/>
<path d="M54.4222 34.8909C53.2143 34.8909 52.4428 35.929 52.4428 37.8101C52.4428 39.6912 53.2143 40.7293 54.4222 40.7293C55.6301 40.7293 56.4016 39.6912 56.4016 37.8101C56.4016 35.929 55.6301 34.8909 54.4222 34.8909ZM54.4222 41.6006C52.4294 41.6006 51.433 39.9161 51.433 37.8101C51.433 35.7056 52.4294 34.0211 54.4222 34.0211C56.415 34.0211 57.4114 35.7056 57.4114 37.8101C57.4114 39.9161 56.415 41.6006 54.4222 41.6006Z" fill="#2C2C2C"/>
<path d="M63.012 41.4596V40.4766H62.9837C62.4088 41.123 61.6507 41.5996 60.8226 41.5996C59.7413 41.5996 58.7166 41.0381 58.7166 39.4668V34.1616H59.7279V39.4385C59.7279 40.4066 60.1911 40.7298 60.9209 40.7298C61.679 40.7298 62.5488 40.1117 63.012 39.6217V34.1616H64.0233V41.4596H63.012Z" fill="#2C2C2C"/>
<path d="M67.0545 39.7196C67.6026 40.3228 68.2892 40.7294 68.8924 40.7294C70.072 40.7294 70.9567 39.9579 70.9567 37.7551C70.9567 35.9023 70.1569 34.891 68.8924 34.891C68.2475 34.891 67.7709 35.1725 67.0545 35.874V39.7196ZM66.0432 44.155V34.1612H67.0545V35.0176H67.0828C67.4611 34.4695 68.2758 34.0212 68.9773 34.0212C70.2686 34.0212 71.9665 34.891 71.9665 37.8102C71.9665 40.646 70.2686 41.6007 69.0339 41.6007C68.3458 41.6007 67.6726 41.2492 67.1111 40.786L67.0545 40.7577V44.155H66.0432Z" fill="#2C2C2C"/>
</g>
<mask id="mask1_73_1696" style="mask-type:luminance" maskUnits="userSpaceOnUse" x="0" y="0" width="131" height="45">
<path d="M0.576782 44.156H130.065V0.483921H0.576782V44.156Z" fill="white"/>
</mask>
<g mask="url(#mask1_73_1696)">
<path d="M11.2401 5.28679C12.0473 5.11104 12.7042 4.61656 13.1078 3.96569C13.574 4.27549 14.1325 4.45719 14.7342 4.45719C15.5593 4.45719 16.2906 4.11761 16.8238 3.56951C17.3585 4.11761 18.0898 4.45719 18.9135 4.45719C19.5167 4.45719 20.0737 4.27549 20.5399 3.96569C20.945 4.61656 21.6003 5.11104 22.4076 5.28679C22.8633 5.38658 23.3161 5.37317 23.7391 5.26743L22.5878 7.09045C20.811 6.35022 18.8688 5.95255 16.8238 5.95255C14.7804 5.95255 12.8367 6.35022 11.0599 7.09045L9.90858 5.26743C10.3331 5.37317 10.7858 5.38658 11.2401 5.28679ZM12.5627 1.38159C13.1212 1.25946 13.6738 1.61394 13.7944 2.17246C13.9165 2.73247 13.5621 3.28355 13.002 3.40568C12.4435 3.52781 11.8925 3.17334 11.7703 2.61332C11.6482 2.0548 12.0027 1.50372 12.5627 1.38159ZM16.8238 1.14478C17.3973 1.14478 17.8605 1.60798 17.8605 2.1814C17.8605 2.75184 17.3973 3.21653 16.8238 3.21653C16.2519 3.21653 15.7887 2.75184 15.7887 2.1814C15.7887 1.60798 16.2519 1.14478 16.8238 1.14478ZM19.8533 2.17246C19.9754 1.61394 20.5265 1.25946 21.0865 1.38159C21.645 1.50372 21.9995 2.0548 21.8774 2.61332C21.7567 3.17334 21.2042 3.52781 20.6456 3.40568C20.0856 3.28355 19.7326 2.73247 19.8533 2.17246ZM22.5967 7.86493C22.5804 7.90217 22.5521 7.92004 22.5312 7.92898C22.5089 7.93791 22.4746 7.94536 22.4344 7.92749C20.6546 7.16343 18.766 6.77469 16.8238 6.77469C14.8817 6.77469 12.9931 7.16343 11.2148 7.92749C11.1746 7.94536 11.1403 7.93791 11.118 7.92898C11.0971 7.92004 11.0688 7.90217 11.0524 7.86493C11.0226 7.7994 11.0837 7.7011 11.2073 7.64152L11.2773 7.61173C13.0229 6.8864 14.8906 6.51852 16.8238 6.51852C18.7586 6.51852 20.6248 6.8864 22.3703 7.61173L22.4403 7.64152C22.564 7.7011 22.625 7.7994 22.5967 7.86493ZM10.552 7.50152C10.4611 7.67727 10.4477 7.89174 10.5311 8.08834C10.6816 8.43835 11.0867 8.59771 11.4382 8.44729C13.0914 7.73833 14.9115 7.34066 16.8238 7.34066C18.7377 7.34066 20.5578 7.73833 22.211 8.44729C22.561 8.59771 22.9661 8.43835 23.1165 8.08834C23.2014 7.89174 23.188 7.67727 23.0972 7.50152L25.3268 3.98952C25.6589 3.36845 25.1481 2.90078 24.7489 3.10184C24.3498 3.30142 23.9789 3.53228 23.9789 3.53228C23.5023 3.28057 23.0093 3.05418 22.5059 2.85014C22.5148 2.81439 22.5163 2.79056 22.5238 2.75482C22.7233 1.84033 22.141 0.934774 21.2265 0.735195C20.7841 0.638384 20.3299 0.72179 19.9486 0.966051C19.5941 1.19393 19.3364 1.52904 19.2262 1.93416C18.9924 1.89692 18.7392 1.86714 18.5024 1.84182C18.4383 1.51266 18.2656 1.22223 18.0243 0.980946C17.7041 0.660725 17.2766 0.483487 16.8238 0.483487C16.3711 0.483487 15.9451 0.660725 15.6249 0.980946C15.3821 1.22223 15.2108 1.51266 15.1468 1.84182C14.9085 1.86714 14.6568 1.89692 14.4229 1.93416C14.3112 1.52904 14.0551 1.19393 13.7006 0.966051C13.3178 0.72179 12.865 0.638384 12.4227 0.735195C11.5082 0.934774 10.9258 1.84033 11.1254 2.75482C11.1329 2.79056 11.1329 2.81439 11.1433 2.85014C10.6399 3.05418 10.1469 3.28057 9.67027 3.53228C9.67027 3.53228 9.29941 3.30142 8.90025 3.10184C8.5011 2.90078 7.99023 3.36845 8.32237 3.98952L10.552 7.50152Z" fill="#2C2C2C"/>
<path d="M31.6574 21.6127C31.4623 21.6127 31.3045 21.4548 31.3045 21.2582C31.3045 21.0646 31.4623 20.9052 31.6574 20.9052C31.8526 20.9052 32.0104 21.0646 32.0104 21.2582C32.0104 21.4548 31.8526 21.6127 31.6574 21.6127ZM30.8755 22.5406C30.4927 22.5406 30.1591 22.2397 30.3676 22.1578C30.5776 22.0744 30.8413 21.8078 30.8413 21.8078C30.9917 21.9418 31.6247 22.0908 31.6247 22.0908C31.6247 22.0908 31.2583 22.5406 30.8755 22.5406ZM30.3289 20.7429C30.4585 20.4658 31.0423 20.6431 30.9425 20.7592C30.8413 20.8754 30.7593 21.3416 30.7593 21.3416C30.7593 21.3416 30.0757 21.2761 30.3289 20.7429ZM29.4695 14.7153C29.4695 14.7153 29.4427 14.5157 29.5097 14.5008C29.5768 14.4829 29.6423 14.6408 29.6423 14.6408C29.7153 14.8136 29.6065 15.2053 29.3489 15.4764L29.2938 15.533C28.9706 15.8696 28.6742 16.2702 28.3152 16.6157C28.1603 16.7647 28.0471 16.6247 28.1708 16.4951C28.4716 16.1779 28.774 15.8025 29.1567 15.4019L29.2119 15.3453C29.4382 15.1085 29.5023 14.7912 29.4695 14.7153ZM29.0674 18.9139C29.2491 18.6577 28.9721 18.4403 28.7278 18.7277C27.2459 20.4763 28.3286 22.3901 28.3286 22.3901C28.3286 22.3901 27.1803 21.9254 27.1803 20.2946C27.1803 18.6622 29.1448 16.647 29.8255 15.9306C30.5091 15.2157 30.6759 13.8172 29.1284 13.8172C27.5795 13.8172 26.1363 15.5657 26.1363 15.5657C25.825 15.2008 25.1652 15.9306 25.1652 15.9306C25.1652 15.9306 25.0981 15.6313 25.3484 14.617C25.5986 13.6012 26.1303 13.4508 26.1303 13.4508C26.1303 13.4508 25.9531 14.0793 26.0633 14.4338C26.1407 14.6795 26.3448 14.5336 26.3299 14.2997C26.2465 12.9682 27.3471 13.1678 27.3471 13.1678C27.3471 13.1678 26.8139 13.6846 27.0299 13.917C27.2459 14.1493 28.0278 13.351 29.544 13.351C30.8249 13.351 32.423 13.917 32.423 15.5985C32.423 17.28 30.524 18.8603 29.7108 19.6273C28.2616 20.9931 29.9327 22.8265 29.9327 22.8265C28.8276 22.8265 27.6465 20.9261 29.0674 18.9139ZM29.2938 26.4368C29.2938 26.4368 29.2446 27.0013 28.7442 27.0013C28.2452 27.0013 27.9623 26.6036 27.9623 26.6036C27.9623 26.6036 27.7612 26.9194 27.9623 27.2188C28.1603 27.5181 28.5699 28.2539 28.2482 28.4267C27.928 28.6009 27.712 28.1675 27.4961 27.2024C27.2786 26.2372 27.0627 25.0547 26.8303 25.0547C26.598 25.0547 26.6963 26.7362 27.2131 28.0677C27.7284 29.3992 28.0442 30.1663 29.1448 31.1478C30.2425 32.1308 30.9083 32.9455 30.9083 34.0104C30.9083 35.0768 30.4093 35.26 30.4093 35.7098C30.4093 36.1581 30.5419 36.3085 30.3095 36.4247C30.0757 36.5409 29.9595 36.3919 29.8434 36.109C29.7257 35.826 29.3846 35.8036 29.2387 36.0568C29.0942 36.3085 29.2357 36.5677 29.5604 36.6585C29.9759 36.7747 29.8255 37.1575 29.8255 37.1575C29.8255 37.1575 29.0108 36.5915 28.9438 36.4753C28.8767 36.3592 29.0361 34.3932 29.057 34.1847C29.0778 33.9776 29.2267 33.8615 29.4099 34.0953C29.5946 34.3276 30.5419 34.7998 30.5419 33.7781C30.5419 32.8293 28.6816 31.5082 28.5446 31.398C28.278 31.1805 28.278 30.8142 28.062 30.549C27.8461 30.2824 27.2056 29.5452 27.1178 29.356C27.0299 29.1654 26.7305 29.2339 26.8139 29.4499C26.8958 29.6658 26.8139 29.7999 26.6635 29.6167C26.5131 29.4335 26.2226 29.2369 25.9962 29.5333C25.7713 29.8282 25.4764 30.0724 25.4124 29.8029C25.3484 29.5333 25.2977 29.4156 25.2486 29.2994C25.1979 29.1833 25.3975 29.0001 25.6805 28.7513C25.965 28.5011 26.1914 28.1749 26.1914 27.6968C26.1914 27.2188 25.965 27.1681 25.965 26.1196C25.965 25.071 26.5637 23.324 27.4782 23.324C28.3957 23.324 28.0948 24.7389 28.0948 25.4211C28.0948 26.1032 28.561 27.0013 29.2938 26.4368ZM29.0093 37.722C27.3516 40.6844 24.1717 42.6772 20.5346 42.6772C19.7408 42.6772 18.9678 42.5878 18.2305 42.4031C17.8388 42.3048 18.0056 42.2006 18.1561 42.0695C18.3065 41.9355 18.5061 41.3695 18.6059 40.9703C18.7057 40.5697 18.7712 40.3716 19.0199 40.4178C19.5099 40.5131 20.0148 40.5697 20.5346 40.5697C23.4687 40.5697 25.9784 38.8897 27.2846 36.4783C27.5125 36.0583 27.6793 36.2743 27.8625 36.4247C28.0442 36.5751 28.5774 37.1068 28.844 37.2081C29.1106 37.3079 29.1106 37.5403 29.0093 37.722ZM28.5774 41.0537C28.278 41.3695 27.7791 41.2027 27.7791 41.2027C27.7791 41.2027 27.8282 40.6367 28.1291 40.4208C28.5193 40.1378 28.9527 40.6576 28.5774 41.0537ZM27.0299 42.5848C26.6799 42.135 27.5959 42.0353 27.5959 42.0353C27.8788 42.6012 27.3799 43.0346 27.0299 42.5848ZM17.4665 41.5318C17.2595 41.4842 17.048 41.4335 16.8246 41.4335C16.6011 41.4335 16.3896 41.4842 16.1826 41.5318C15.9622 41.581 15.8028 41.3248 15.776 41.0537C15.7492 40.7812 15.5824 40.4818 15.4111 40.1199C15.2413 39.7595 15.1371 39.5048 15.4275 39.399C15.8624 39.2397 16.336 39.1741 16.8246 39.1741C17.3131 39.1741 17.7867 39.2397 18.2216 39.399C18.5105 39.5048 18.4078 39.7595 18.238 40.1199C18.0667 40.4818 17.8999 40.7812 17.8731 41.0537C17.8448 41.3248 17.6869 41.581 17.4665 41.5318ZM15.4186 42.4031C14.6813 42.5878 13.9083 42.6772 13.1145 42.6772C9.47736 42.6772 6.29601 40.6844 4.63831 37.722C4.53852 37.5403 4.53853 37.3079 4.80513 37.2081C5.07024 37.1068 5.60344 36.5751 5.78664 36.4247C5.96983 36.2743 6.13665 36.0583 6.36304 36.4783C7.67073 38.8897 10.1804 40.5697 13.1145 40.5697C13.6328 40.5697 14.1392 40.5131 14.6307 40.4178C14.8764 40.3716 14.9434 40.5697 15.0432 40.9703C15.143 41.3695 15.3426 41.9355 15.4915 42.0695C15.642 42.2006 15.8088 42.3048 15.4186 42.4031ZM6.61921 42.5848C6.2692 43.0346 5.77026 42.6012 6.05324 42.0353C6.05324 42.0353 6.96922 42.135 6.61921 42.5848ZM5.07024 41.0537C4.6964 40.6576 5.12833 40.1378 5.52004 40.4208C5.81941 40.6367 5.87005 41.2027 5.87005 41.2027C5.87005 41.2027 5.3711 41.3695 5.07024 41.0537ZM3.82213 37.1575C3.82213 37.1575 3.6717 36.7747 4.08873 36.6585C4.41342 36.5677 4.55491 36.3085 4.40895 36.0568C4.26448 35.8036 3.92192 35.826 3.80574 36.109C3.68957 36.3919 3.5734 36.5409 3.33956 36.4247C3.10573 36.3085 3.23977 36.1581 3.23977 35.7098C3.23977 35.26 2.74082 35.0768 2.74082 34.0104C2.74082 32.9455 3.40658 32.1308 4.50427 31.1478C5.60344 30.1663 5.92069 29.3992 6.43602 28.0677C6.95284 26.7362 7.05263 25.0547 6.81879 25.0547C6.58644 25.0547 6.37048 26.2372 6.15303 27.2024C5.93707 28.1675 5.71962 28.6009 5.3994 28.4267C5.07918 28.2539 5.48727 27.5181 5.68685 27.2188C5.88643 26.9194 5.68685 26.6036 5.68685 26.6036C5.68685 26.6036 5.40386 27.0013 4.90492 27.0013C4.40448 27.0013 4.35533 26.4368 4.35533 26.4368C5.08811 27.0013 5.5543 26.1032 5.5543 25.4211C5.5543 24.7389 5.25492 23.324 6.16941 23.324C7.08539 23.324 7.68413 25.071 7.68413 26.1196C7.68413 27.1681 7.45774 27.2188 7.45774 27.6968C7.45774 28.1749 7.68413 28.5011 7.96711 28.7513C8.2501 29.0001 8.44968 29.1833 8.40053 29.2994C8.34989 29.4156 8.30074 29.5333 8.23521 29.8029C8.17116 30.0724 7.87626 29.8282 7.65136 29.5333C7.42646 29.2369 7.13603 29.4335 6.9856 29.6167C6.83517 29.7999 6.75177 29.6658 6.83517 29.4499C6.91858 29.2339 6.61921 29.1654 6.53283 29.356C6.44346 29.5452 5.80302 30.2824 5.58706 30.549C5.3711 30.8142 5.3711 31.1805 5.1045 31.398C4.96747 31.5082 3.10573 32.8293 3.10573 33.7781C3.10573 34.7998 4.05596 34.3276 4.23767 34.0953C4.42086 33.8615 4.57129 33.9776 4.59214 34.1847C4.61151 34.3932 4.77087 36.3592 4.70534 36.4753C4.63831 36.5915 3.82213 37.1575 3.82213 37.1575ZM4.43725 15.3453L4.49087 15.4019C4.87513 15.8025 5.17748 16.1779 5.47834 16.4951C5.60195 16.6247 5.48727 16.7647 5.33386 16.6157C4.97492 16.2702 4.67853 15.8696 4.35533 15.533L4.30022 15.4764C4.04256 15.2053 3.93234 14.8136 4.00532 14.6408C4.00532 14.6408 4.07235 14.4829 4.13937 14.5008C4.2049 14.5157 4.17958 14.7153 4.17958 14.7153C4.14682 14.7912 4.21086 15.1085 4.43725 15.3453ZM4.58172 18.9139C6.00409 20.9261 4.82151 22.8265 3.71638 22.8265C3.71638 22.8265 5.38748 20.9931 3.93979 19.6273C3.12509 18.8603 1.22462 17.28 1.22462 15.5985C1.22462 13.917 2.82423 13.351 4.10511 13.351C5.61983 13.351 6.40176 14.1493 6.61921 13.917C6.83517 13.6846 6.30197 13.1678 6.30197 13.1678C6.30197 13.1678 7.40114 12.9682 7.31923 14.2997C7.30433 14.5336 7.50689 14.6795 7.58434 14.4338C7.69604 14.0793 7.51732 13.4508 7.51732 13.4508C7.51732 13.4508 8.05052 13.6012 8.30074 14.617C8.55096 15.6313 8.48393 15.9306 8.48393 15.9306C8.48393 15.9306 7.82264 15.2008 7.51285 15.5657C7.51285 15.5657 6.06962 13.8172 4.52214 13.8172C2.97317 13.8172 3.13998 15.2157 3.82213 15.9306C4.50427 16.647 6.47027 18.6622 6.47027 20.2946C6.47027 21.9254 5.32046 22.3901 5.32046 22.3901C5.32046 22.3901 6.40176 20.4763 4.9213 18.7277C4.67704 18.4403 4.40001 18.6577 4.58172 18.9139ZM3.40212 9.04366C3.63893 8.51791 4.09618 8.77706 4.09618 8.77706C4.09618 8.77706 4.03809 8.36152 4.37171 8.20662C4.70534 8.05172 5.03598 8.37939 5.14769 8.31535C5.25939 8.2513 5.17748 7.75682 5.45897 7.63023C5.9043 7.43065 5.83728 8.29599 6.01452 8.20662C6.19176 8.11875 6.01452 7.43064 6.25878 7.18639C6.50304 6.94212 6.82177 6.76191 6.93943 7.10744C7.05709 7.45298 6.9856 8.15896 7.37731 8.15896C7.76754 8.15896 8.03414 7.85214 8.1235 8.00704C8.21138 8.16194 7.54859 8.33918 7.54711 8.66238C7.54562 8.98409 7.19114 8.85004 6.99156 8.87238C6.79049 8.89472 6.03537 9.00643 6.03537 9.93879C6.03537 11.0484 7.36689 10.9888 7.36689 10.9888L7.92392 11.8005L8.05648 13.0233L6.83517 12.6674C6.83517 12.6674 6.4807 12.3352 6.01452 11.248C5.54834 10.1592 5.70323 9.54112 5.70323 9.1509C5.70323 8.76217 5.4277 8.79791 5.34429 9.05706C5.25939 9.31622 5.30407 9.64985 5.17152 9.71687C5.03747 9.7824 4.8796 9.25367 4.67406 9.42048C4.03809 9.93879 6.16941 12.8237 6.16941 12.8237C5.57068 12.6018 4.37469 11.6516 4.37469 11.6516C4.37469 11.6516 3.32765 11.9361 3.41701 11.1154C3.50488 10.2933 4.11554 10.9292 4.26001 10.3826C4.43874 9.71687 3.16381 9.56942 3.40212 9.04366ZM8.86671 11.1348C9.02905 11.1348 9.16161 11.2658 9.16161 11.4282C9.16161 11.5905 9.02905 11.7216 8.86671 11.7216C8.77139 11.7216 8.68798 11.6769 8.63436 11.6054C8.53606 11.5414 8.45266 11.7588 8.51521 11.9644L8.68202 12.4142C9.03054 13.3495 9.03948 14.0212 8.99033 14.3831C8.97246 14.5172 8.79224 14.474 8.80564 14.3429C8.84437 14.0004 8.83692 13.3689 8.50479 12.4797L8.33798 12.0314C8.23521 11.7171 8.27542 11.1348 8.86671 11.1348ZM9.14374 16.446L9.28523 15.527C9.47587 15.5866 9.61439 15.7653 9.61439 15.9753C9.61439 16.236 9.40438 16.446 9.14374 16.446ZM24.5054 16.446C24.2447 16.446 24.0332 16.236 24.0332 15.9753C24.0332 15.7653 24.1717 15.5866 24.3639 15.527L24.5054 16.446ZM9.79311 11.7186C10.5974 12.1446 12.763 11.8035 13.4511 11.4252C14.1377 11.0484 15.5824 10.9337 15.5824 10.9337C15.6226 11.1943 15.7447 11.4356 15.9354 11.6263C16.1737 11.8631 16.4894 11.9942 16.8246 11.9942C17.1597 11.9942 17.4754 11.8631 17.7137 11.6263C17.9044 11.4356 18.025 11.1943 18.0667 10.9337C18.0667 10.9337 19.5099 11.0484 20.198 11.4252C20.8861 11.8035 23.0517 12.1446 23.856 11.7186L24.5247 12.2503C23.9051 13.9125 24.282 14.8672 24.282 14.8672C24.0645 14.9104 23.8649 15.0161 23.7056 15.1755C23.4911 15.39 23.3719 15.673 23.3719 15.9753C23.3719 16.6009 23.8813 17.1072 24.5054 17.1072C24.5054 17.1072 25.2813 18.7724 25.2813 21.6797C25.2813 26.4309 23.2662 30.6459 23.153 30.8693C23.0398 31.0927 22.3323 31.0733 22.5081 30.5058C22.6853 29.9384 22.5513 29.7597 21.9064 29.916C21.2644 30.0724 18.9782 30.759 17.6899 33.8451C17.5603 34.1564 17.1582 34.3321 16.8246 33.1793C16.4909 34.3321 16.0888 34.1564 15.9592 33.8451C14.6709 30.759 12.3847 30.0724 11.7412 29.916C11.0978 29.7597 10.9653 29.9384 11.141 30.5058C11.3168 31.0733 10.6093 31.0927 10.4946 30.8693C10.3814 30.6459 8.36776 26.4309 8.36776 21.6797C8.36776 18.7724 9.14374 17.1072 9.14374 17.1072C9.76779 17.1072 10.2757 16.6009 10.2757 15.9753C10.2757 15.673 10.158 15.39 9.94503 15.1755C9.78418 15.0161 9.58311 14.9104 9.36566 14.8672C9.36566 14.8672 9.74396 13.9125 9.12586 12.2503L9.79311 11.7186ZM10.5527 10.5926C10.931 10.5926 10.8089 11.239 10.5482 11.239C10.3576 11.239 10.2027 11.1884 10.1029 11.1348L9.72013 10.9322C9.72013 10.9322 10.1759 10.5926 10.5527 10.5926ZM10.9727 9.54708C11.2512 9.41601 11.57 9.21047 11.6132 9.34601C11.6578 9.48005 11.4821 9.48452 11.4955 9.70495C11.5044 9.84496 11.284 10.0267 11.0561 10.1473C10.8491 10.256 10.8148 9.62155 10.9727 9.54708ZM12.5708 8.86493C12.8687 8.78897 13.0832 8.64748 13.11 8.78748C13.1368 8.926 12.9611 8.90813 12.9477 9.12856C12.9298 9.39963 12.0212 9.67516 12.0212 9.67516C12.133 9.37133 12.273 8.94089 12.5708 8.86493ZM14.1183 8.42854C14.4251 8.39131 14.653 8.27811 14.6619 8.41961C14.6724 8.5611 14.5011 8.52089 14.4594 8.73833C14.4088 9.00494 13.4719 9.1643 13.4719 9.1643C13.6209 8.87685 13.813 8.46727 14.1183 8.42854ZM11.2497 10.6075C11.2497 10.6075 13.3617 9.28941 15.2458 9.34005C15.2458 9.34005 13.4123 10.9039 12.3772 11.0916C12.0123 11.1571 11.5938 11.2256 11.208 11.2465C11.208 11.2465 11.281 10.886 11.2497 10.6075ZM15.709 8.19024C16.0173 8.19024 16.2586 8.10683 16.2496 8.24833C16.2422 8.38982 16.0769 8.32875 16.0084 8.54025C15.9264 8.79791 14.9762 8.83961 14.9762 8.83961C15.1594 8.57301 15.4007 8.19024 15.709 8.19024ZM16.8246 10.1413C17.1552 10.1413 17.4203 10.4079 17.4203 10.7371C17.4203 11.0677 17.1552 11.3344 16.8246 11.3344C16.4954 11.3344 16.2288 11.0677 16.2288 10.7371C16.2288 10.4079 16.4954 10.1413 16.8246 10.1413ZM16.8246 8.36152C16.8737 8.36152 17.1239 8.57301 17.1239 8.68621C17.1239 8.73983 16.9199 8.70259 16.8246 8.70259C16.7292 8.70259 16.5252 8.73983 16.5252 8.68621C16.5252 8.57301 16.7754 8.36152 16.8246 8.36152ZM17.9401 8.19024C18.2469 8.19024 18.4897 8.57301 18.6729 8.83961C18.6729 8.83961 17.7241 8.79791 17.6407 8.54025C17.5722 8.32875 17.4084 8.38982 17.3995 8.24833C17.3905 8.10683 17.6318 8.19024 17.9401 8.19024ZM19.5308 8.42854C19.8361 8.46727 20.0268 8.87685 20.1757 9.1643C20.1757 9.1643 19.2389 9.00494 19.1897 8.73833C19.148 8.52089 18.9767 8.5611 18.9857 8.41961C18.9946 8.27811 19.224 8.39131 19.5308 8.42854ZM20.5391 8.78748C20.5659 8.64748 20.7789 8.78897 21.0783 8.86493C21.3761 8.94089 21.5161 9.37133 21.6279 9.67516C21.6279 9.67516 20.7178 9.39963 20.7014 9.12856C20.688 8.90813 20.5123 8.926 20.5391 8.78748ZM22.4411 11.2465C22.0538 11.2256 21.6368 11.1571 21.2719 11.0916C20.2368 10.9039 18.4018 9.34005 18.4018 9.34005C20.2859 9.28941 22.3994 10.6075 22.3994 10.6075C22.3681 10.886 22.4411 11.2465 22.4411 11.2465ZM22.0359 9.34601C22.0791 9.21047 22.3979 9.41601 22.6764 9.54708C22.8343 9.62155 22.8 10.256 22.5915 10.1473C22.3636 10.0267 22.1447 9.84496 22.1521 9.70495C22.167 9.48452 21.9913 9.48005 22.0359 9.34601ZM23.0949 10.5926C23.4717 10.5926 23.9275 10.9322 23.9275 10.9322L23.5462 11.1348C23.4449 11.1884 23.2915 11.239 23.1009 11.239C22.8402 11.239 22.7181 10.5926 23.0949 10.5926ZM23.7011 32.3959C23.5507 32.1963 23.4345 31.9804 23.7666 31.8478C23.926 31.7838 23.9498 31.9967 23.9498 32.3289C23.9498 32.6625 24.0988 32.7787 24.2656 32.8785C24.4324 32.9797 24.3996 33.1123 24.1315 33.2285C23.8664 33.3461 23.7666 33.2955 23.783 33.0453C23.7994 32.7965 23.85 32.5955 23.7011 32.3959ZM19.9374 34.0268C19.9374 34.1832 19.8108 34.3098 19.6544 34.3098C19.4995 34.3098 19.3714 34.1832 19.3714 34.0268C19.3714 33.8719 19.4995 33.7453 19.6544 33.7453C19.8108 33.7453 19.9374 33.8719 19.9374 34.0268ZM21.9183 32.0131C21.9183 32.0131 21.5861 32.4793 21.4193 32.6297C21.4193 32.6297 21.2034 32.5791 20.9532 32.5121C20.7029 32.4465 20.3365 32.5121 20.3365 32.5121C20.9204 31.8642 21.9183 32.0131 21.9183 32.0131ZM22.6853 32.3125C23.0011 32.3125 23.2498 32.6119 23.2498 32.6119C23.2498 32.6119 22.3845 33.0453 22.1834 32.9261C21.9823 32.8055 21.9525 32.7787 21.9525 32.7787C21.9525 32.7787 22.3681 32.3125 22.6853 32.3125ZM20.4363 31.8299C19.5546 32.2127 19.2895 32.4018 19.2895 32.4018C20.1861 31.2803 21.2034 30.8142 21.823 30.6235C21.8096 30.9527 21.9421 31.2505 22.1879 31.4427C22.1879 31.4427 21.3195 31.4471 20.4363 31.8299ZM11.6966 32.7787C11.6966 32.7787 11.6668 32.8055 11.4657 32.9261C11.2631 33.0453 10.3993 32.6119 10.3993 32.6119C10.3993 32.6119 10.648 32.3125 10.9653 32.3125C11.281 32.3125 11.6966 32.7787 11.6966 32.7787ZM13.3111 32.5121C13.3111 32.5121 12.9462 32.4465 12.6959 32.5121C12.4457 32.5791 12.2298 32.6297 12.2298 32.6297C12.063 32.4793 11.7308 32.0131 11.7308 32.0131C11.7308 32.0131 12.7287 31.8642 13.3111 32.5121ZM14.2762 34.0268C14.2762 34.1832 14.1496 34.3098 13.9947 34.3098C13.8383 34.3098 13.7117 34.1832 13.7117 34.0268C13.7117 33.8719 13.8383 33.7453 13.9947 33.7453C14.1496 33.7453 14.2762 33.8719 14.2762 34.0268ZM13.2113 31.8299C12.3296 31.4471 11.4597 31.4427 11.4597 31.4427C11.707 31.2505 11.8395 30.9527 11.8261 30.6235C12.4442 30.8142 13.463 31.2803 14.3581 32.4018C14.3581 32.4018 14.0945 32.2127 13.2113 31.8299ZM9.86609 33.0453C9.88248 33.2955 9.7812 33.3461 9.51609 33.2285C9.24948 33.1123 9.21672 32.9797 9.38353 32.8785C9.54885 32.7787 9.69928 32.6625 9.69928 32.3289C9.69928 31.9967 9.72311 31.7838 9.88248 31.8478C10.2146 31.9804 10.0984 32.1963 9.94801 32.3959C9.79907 32.5955 9.84971 32.7965 9.86609 33.0453ZM7.80179 16.2151C8.02222 16.0021 8.2501 16.297 8.16371 16.4504C8.07733 16.6023 7.81817 16.8645 7.76753 17.1966C7.76753 17.1966 7.40114 16.5979 7.80179 16.2151ZM8.20393 28.2673C8.08329 28.1005 7.86584 27.9828 7.96116 27.6462C8.00882 27.67 7.98499 27.5747 8.05648 27.5971C8.0818 27.8383 8.20244 28.0528 8.20393 28.2673ZM7.70647 21.6797C7.70647 18.6607 8.51223 16.9017 8.545 16.8272C8.59713 16.6872 8.79969 16.7409 8.71628 16.9077C8.68202 16.9792 7.89562 18.7024 7.89562 21.6797C7.89562 25.9855 9.44608 29.8029 9.94801 30.8127C9.99567 30.9095 9.8095 30.9691 9.7812 30.9005C9.34183 29.8595 7.70647 26.0079 7.70647 21.6797ZM8.14584 30.8812C7.84201 30.5163 8.5584 29.8907 8.81607 30.1663C9.11693 30.482 8.44968 31.2476 8.14584 30.8812ZM6.35708 33.8615C6.35708 33.7259 6.41368 33.6008 6.50304 33.5114L7.04518 34.3172C6.9856 34.341 6.92007 34.3559 6.85305 34.3559C6.579 34.3559 6.35708 34.134 6.35708 33.8615ZM5.87005 34.4438C6.10388 34.8936 6.65347 35.1766 7.10178 34.9115C7.55157 34.6449 7.69456 34.4259 7.83456 34.5615C7.97456 34.694 8.11159 34.8117 8.20095 35.1602C8.2918 35.5072 8.40649 35.7128 8.15031 35.8915C7.81222 36.1313 7.42349 35.476 7.42349 35.476C7.20157 35.6979 6.93496 36.3085 6.93496 36.3085C6.80092 36.0851 6.51644 35.3628 6.3958 35.2064C6.3958 35.2064 5.96983 35.3762 5.77026 35.61C5.57068 35.8424 5.37706 35.9809 5.37408 35.82C5.36663 35.4372 5.32493 34.8966 5.24897 34.1206C5.21173 33.7334 4.98237 33.4325 4.65023 33.3357C4.54002 33.3044 4.1915 33.2374 3.85936 33.5353C4.00979 33.2642 4.40299 32.7563 5.43514 31.9759C5.47535 31.9461 5.50068 31.9267 5.52153 31.9103C5.71962 31.748 5.93558 31.6586 5.95345 31.8642C5.97133 32.0682 6.01899 32.7787 6.12026 32.9127C6.22005 33.0453 6.16941 33.1123 5.96984 33.2612C5.77026 33.4117 5.63621 33.994 5.87005 34.4438ZM7.71243 36.6973C7.97903 36.8522 8.30074 36.7628 8.51223 36.7747C8.72224 36.7851 8.85628 36.8075 8.85628 37.0071V37.8188C8.85628 37.9618 8.6999 37.9186 8.57777 37.7175C8.45564 37.5179 8.50032 37.2513 8.50032 37.2513C8.00137 37.2081 7.71243 36.6973 7.71243 36.6973ZM18.448 38.778C17.9669 38.5992 17.4203 38.5128 16.8246 38.5128C16.2288 38.5128 15.6822 38.5992 15.2011 38.778C14.726 38.9552 14.3239 39.1741 14.4266 39.338C14.5934 39.6046 14.5041 39.7699 14.5041 39.7699C14.0275 39.8607 13.5598 39.9084 13.1145 39.9084C11.5804 39.9084 10.1133 39.3901 8.91586 38.4756C8.91586 38.4756 9.94801 38.2403 9.94801 36.3592C9.94801 35.4104 9.86609 34.9115 9.86609 34.9115C12.413 34.9115 13.0519 34.0268 13.0519 34.0268C13.0519 34.28 13.1487 34.5168 13.3274 34.6955C13.5047 34.8728 13.743 34.9711 13.9947 34.9711C14.5145 34.9711 14.9375 34.5481 14.9375 34.0268C14.9375 34.0268 15.1758 34.2442 15.2473 34.5108C15.3307 34.8176 15.1371 34.8445 14.8705 35.0425C14.3164 35.4581 15.1803 36.4992 15.8028 36.0419C16.1364 35.7992 16.8246 35.2883 16.8246 35.2883C16.8246 35.2883 17.5127 35.7992 17.8448 36.0419C18.4674 36.4992 19.3327 35.4581 18.7771 35.0425C18.5105 34.8445 18.3169 34.8176 18.4003 34.5108C18.4733 34.2442 18.7116 34.0268 18.7116 34.0268C18.7116 34.5481 19.1346 34.9711 19.6544 34.9711C19.9061 34.9711 20.1429 34.8728 20.3217 34.6955C20.4989 34.5168 20.5972 34.28 20.5972 34.0268C20.5972 34.0268 21.2361 34.9115 23.783 34.9115C23.783 34.9115 23.7011 35.4104 23.7011 36.3592C23.7011 38.2403 24.7318 38.4756 24.7318 38.4756C23.5358 39.3901 22.0687 39.9084 20.5346 39.9084C20.0878 39.9084 19.6216 39.8607 19.145 39.7699C19.145 39.7699 19.0557 39.6046 19.221 39.338C19.3252 39.1741 18.9216 38.9552 18.448 38.778ZM25.5033 30.8812C25.1979 31.2476 24.5322 30.482 24.8315 30.1663C25.0922 29.8907 25.8071 30.5163 25.5033 30.8812ZM25.0698 37.7175C24.9477 37.9186 24.7928 37.9618 24.7928 37.8188V37.0071C24.7928 36.8075 24.9254 36.7851 25.1369 36.7747C25.3484 36.7628 25.6701 36.8522 25.9367 36.6973C25.9367 36.6973 25.6477 37.2081 25.1473 37.2513C25.1473 37.2513 25.192 37.5179 25.0698 37.7175ZM26.6039 34.3172L27.1461 33.5114C27.2354 33.6008 27.2905 33.7259 27.2905 33.8615C27.2905 34.134 27.0701 34.3559 26.7961 34.3559C26.729 34.3559 26.6635 34.341 26.6039 34.3172ZM27.7791 34.4438C28.0114 33.994 27.8788 33.4117 27.6793 33.2612C27.4782 33.1123 27.429 33.0453 27.5288 32.9127C27.6286 32.7787 27.6778 32.0682 27.6957 31.8642C27.712 31.6586 27.928 31.748 28.1291 31.9103C28.1469 31.9267 28.1723 31.9461 28.214 31.9759C29.2461 32.7563 29.6393 33.2642 29.7897 33.5353C29.4561 33.2374 29.1076 33.3044 28.9989 33.3357C28.6667 33.4325 28.4374 33.7334 28.4001 34.1206C28.3242 34.8966 28.2825 35.4372 28.275 35.82C28.272 35.9809 28.0784 35.8424 27.8788 35.61C27.6793 35.3762 27.2533 35.2064 27.2533 35.2064C27.1312 35.3628 26.8467 36.0851 26.7126 36.3085C26.7126 36.3085 26.446 35.6979 26.2256 35.476C26.2256 35.476 25.8369 36.1313 25.4973 35.8915C25.2426 35.7128 25.3588 35.5072 25.4482 35.1602C25.539 34.8117 25.6745 34.694 25.8145 34.5615C25.9545 34.4259 26.0975 34.6449 26.5473 34.9115C26.9956 35.1766 27.5452 34.8936 27.7791 34.4438ZM25.4452 28.2673C25.4467 28.0528 25.5673 27.8383 25.5926 27.5971C25.6641 27.5747 25.6403 27.67 25.6879 27.6462C25.7818 27.9828 25.5658 28.1005 25.4452 28.2673ZM25.8473 16.2151C26.2465 16.5979 25.8801 17.1966 25.8801 17.1966C25.8309 16.8645 25.5703 16.6023 25.4854 16.4504C25.3975 16.297 25.6269 16.0021 25.8473 16.2151ZM25.9426 21.6797C25.9426 26.0079 24.3073 29.8595 23.8679 30.9005C23.8396 30.9691 23.6519 30.9095 23.7011 30.8127C24.2015 29.8029 25.7535 25.9855 25.7535 21.6797C25.7535 18.7024 24.9671 16.9792 24.9313 16.9077C24.8494 16.7409 25.052 16.6872 25.1026 16.8272C25.1369 16.9017 25.9426 18.6607 25.9426 21.6797ZM24.7824 11.1348C25.3722 11.1348 25.4154 11.7171 25.3096 12.0314L25.1428 12.4797C24.8122 13.3689 24.8047 14.0004 24.8435 14.3429C24.8569 14.474 24.6752 14.5172 24.6588 14.3831C24.6096 14.0212 24.6186 13.3495 24.9671 12.4142L25.1339 11.9644C25.1979 11.7588 25.1115 11.5414 25.0162 11.6054C24.9611 11.6769 24.8777 11.7216 24.7824 11.7216C24.6186 11.7216 24.4875 11.5905 24.4875 11.4282C24.4875 11.2658 24.6186 11.1348 24.7824 11.1348ZM25.5256 8.00704C25.615 7.85214 25.8801 8.15896 26.2718 8.15896C26.6635 8.15896 26.592 7.45298 26.7097 7.10744C26.8273 6.76191 27.1461 6.94212 27.3903 7.18639C27.6346 7.43064 27.4573 8.11875 27.6346 8.20662C27.8118 8.29599 27.7448 7.43065 28.1886 7.63023C28.4716 7.75682 28.3882 8.2513 28.5014 8.31535C28.6116 8.37939 28.9438 8.05172 29.2774 8.20662C29.611 8.36152 29.5529 8.77706 29.5529 8.77706C29.5529 8.77706 30.0102 8.51791 30.247 9.04366C30.4838 9.56942 29.2104 9.71687 29.3876 10.3826C29.5336 10.9292 30.1427 10.2933 30.2306 11.1154C30.32 11.9361 29.2729 11.6516 29.2729 11.6516C29.2729 11.6516 28.0784 12.6018 27.4782 12.8237C27.4782 12.8237 29.611 9.93879 28.975 9.42048C28.7695 9.25367 28.6116 9.7824 28.4776 9.71687C28.345 9.64985 28.3882 9.31622 28.3048 9.05706C28.2199 8.79791 27.9459 8.76217 27.9459 9.1509C27.9459 9.54112 28.1008 10.1592 27.6346 11.248C27.1684 12.3352 26.8139 12.6674 26.8139 12.6674L25.5911 13.0233L25.7267 11.8005L26.2807 10.9888C26.2807 10.9888 27.6122 11.0484 27.6122 9.93879C27.6122 9.00643 26.8571 8.89472 26.6575 8.87238C26.458 8.85004 26.1035 8.98409 26.102 8.66238C26.1005 8.33918 25.4377 8.16194 25.5256 8.00704ZM2.88976 21.3416C2.88976 21.3416 2.80636 20.8754 2.70657 20.7592C2.60678 20.6431 3.18913 20.4658 3.32169 20.7429C3.5734 21.2761 2.88976 21.3416 2.88976 21.3416ZM2.77359 22.5406C2.39082 22.5406 2.02443 22.0908 2.02443 22.0908C2.02443 22.0908 2.65593 21.9418 2.80636 21.8078C2.80636 21.8078 3.07147 22.0744 3.27999 22.1578C3.48999 22.2397 3.15637 22.5406 2.77359 22.5406ZM1.63718 21.2582C1.63718 21.0646 1.79655 20.9052 1.99166 20.9052C2.18677 20.9052 2.34465 21.0646 2.34465 21.2582C2.34465 21.4548 2.18677 21.6127 1.99166 21.6127C1.79655 21.6127 1.63718 21.4548 1.63718 21.2582ZM31.2747 19.8939C30.1859 19.8939 29.9208 20.9037 29.9521 21.215C29.9834 21.5278 29.9655 21.6797 29.8866 21.4786C29.6006 20.7429 29.9163 20.3407 30.1621 20.1084L30.4063 19.882C31.4072 18.9601 33.0843 17.4156 33.0843 15.5985C33.0843 13.001 30.2589 12.2042 30.2589 12.2042C30.3393 12.1654 30.4481 12.1371 30.521 12.0746C30.6849 11.9331 30.95 11.6144 30.8889 11.0439C30.8398 10.5882 30.6551 10.2769 30.3423 10.1145C30.6417 9.8956 31.1525 9.4458 30.8487 8.77259C30.6581 8.34811 30.3617 8.17683 30.1472 8.10534C30.1189 8.09641 30.0921 8.08896 30.0653 8.08151C29.958 7.88789 29.7912 7.7181 29.5559 7.60788C29.3355 7.50512 29.1255 7.49022 28.9438 7.51256C28.8559 7.32639 28.7099 7.14021 28.4597 7.02702C28.3167 6.96297 28.1678 6.93468 28.0233 6.94212C27.9801 6.86319 27.9265 6.78723 27.858 6.71872C27.3859 6.24657 26.9837 6.21828 26.7305 6.27785C26.4297 6.34637 26.4133 6.3419 26.4133 6.3419C26.4133 6.3419 25.2813 5.77592 24.1166 6.8751C22.9504 7.97279 23.2111 9.24175 23.2111 9.24175C21.3121 8.21109 19.1361 7.62427 16.8246 7.62427C14.513 7.62427 12.337 8.21109 10.438 9.24175C10.438 9.24175 10.6987 7.97279 9.53247 6.8751C8.36776 5.77592 7.23433 6.3419 7.23433 6.3419C7.23433 6.3419 7.21944 6.34637 6.91709 6.27785C6.66389 6.21828 6.26325 6.24657 5.79111 6.71872C5.72259 6.78723 5.66898 6.86319 5.6243 6.94212C5.48131 6.93468 5.33238 6.96297 5.1879 7.02702C4.93769 7.14021 4.79321 7.32639 4.70534 7.51256C4.52214 7.49022 4.31363 7.50512 4.09171 7.60788C3.85787 7.7181 3.69106 7.88789 3.58382 8.08151C3.55701 8.08896 3.52872 8.09641 3.50191 8.10534C3.28743 8.17683 2.99104 8.34811 2.8004 8.77259C2.49656 9.4458 3.00743 9.8956 3.3068 10.1145C2.99253 10.2769 2.80934 10.5882 2.76019 11.0439C2.69912 11.6144 2.96423 11.9331 3.12807 12.0746C3.20105 12.1371 3.30828 12.1654 3.3902 12.2042C3.3902 12.2042 0.564819 13.001 0.564819 15.5985C0.564819 17.4156 2.24039 18.9601 3.24126 19.882L3.48552 20.1084C3.73276 20.3407 4.04851 20.7429 3.76255 21.4786C3.68361 21.6797 3.66574 21.5278 3.69702 21.215C3.72829 20.9037 3.46318 19.8939 2.37444 19.8939C0.24311 19.8939 0.753973 23.3895 3.43935 23.3895C4.43874 23.3895 5.25493 23.041 5.25493 23.041C4.77534 23.5548 4.82896 24.3725 4.87364 25.0308C4.88407 25.1783 4.893 25.3183 4.893 25.4211C4.893 25.6311 4.9213 25.8709 4.76491 25.917C4.76194 25.9155 4.76194 25.9155 4.75896 25.914C4.30469 25.987 4.28831 25.1872 4.28831 25.1872C3.88915 25.354 3.63893 26.0034 3.69702 26.4949C3.74319 27.0251 4.10958 27.5598 4.7247 27.6492C4.7247 27.6492 3.81617 28.2062 4.06043 29.0731C4.30469 29.9384 4.41789 30.3182 4.41789 30.3182C4.31214 30.4269 4.19448 30.5386 4.0649 30.6563C2.87338 31.7197 2.07954 32.6997 2.07954 34.0104C2.07954 34.8325 2.32975 35.2704 2.49508 35.5594C2.52635 35.6145 2.56806 35.6889 2.57848 35.7187C2.57848 35.817 2.56805 35.899 2.55912 35.9779C2.53529 36.1834 2.46976 36.7285 3.04317 37.016L3.38424 37.0205C3.27999 37.4658 3.35595 38.3058 3.50488 38.5218C3.65531 38.7392 4.22724 38.3267 4.22724 38.3267C4.46257 38.7184 4.72321 39.0922 5.0062 39.4467L4.5281 40.029C4.15426 40.4535 4.18256 41.0761 4.59065 41.5065C4.823 41.7523 5.11194 41.8655 5.39493 41.8982C5.17003 42.5044 5.40982 43.0436 5.7926 43.2849C6.23495 43.5634 6.789 43.4427 7.1405 42.99L7.86435 41.9161C9.4297 42.8306 11.2363 43.3385 13.1145 43.3385C15.5094 43.3385 16.6965 42.8217 16.6965 42.8217C16.7575 42.6683 16.336 42.1738 16.336 42.1738C16.5103 42.1336 16.6786 42.0948 16.8246 42.0948C16.969 42.0948 17.1373 42.1336 17.3131 42.1738C17.3131 42.1738 16.8916 42.6683 16.9511 42.8217C16.9511 42.8217 18.1397 43.3385 20.5346 43.3385C22.4128 43.3385 24.2194 42.8306 25.7848 41.9161L26.5071 42.99C26.8601 43.4427 27.4142 43.5634 27.8565 43.2849C28.2393 43.0436 28.4776 42.5044 28.2542 41.8982C28.5372 41.8655 28.8261 41.7523 29.057 41.5065C29.4665 41.0761 29.4934 40.4535 29.121 40.029L28.6429 39.4467C28.9259 39.0922 29.1865 38.7184 29.4219 38.3267C29.4219 38.3267 29.9923 38.7392 30.1427 38.5218C30.2917 38.3058 30.3691 37.4658 30.2649 37.0205L30.6044 37.016C31.1793 36.7285 31.1138 36.1834 31.09 35.9779C31.0796 35.899 31.0706 35.817 31.0706 35.7187C31.081 35.6889 31.1227 35.6145 31.154 35.5594C31.3193 35.2704 31.5681 34.8325 31.5681 34.0104C31.5681 32.6997 30.7757 31.7197 29.5842 30.6563C29.4546 30.5386 29.3385 30.4269 29.2297 30.3182C29.2297 30.3182 29.3444 29.9384 29.5887 29.0731C29.8314 28.2062 28.9244 27.6492 28.9244 27.6492C29.5395 27.5598 29.9044 27.0251 29.9521 26.4949C30.0102 26.0034 29.76 25.354 29.3608 25.1872C29.3608 25.1872 29.3444 25.987 28.8901 25.914C28.8872 25.9155 28.8872 25.9155 28.8842 25.917C28.7278 25.8709 28.7561 25.6311 28.7561 25.4211C28.7561 25.3183 28.765 25.1783 28.774 25.0308C28.8201 24.3725 28.8753 23.5548 28.3927 23.041C28.3927 23.041 29.2104 23.3895 30.2097 23.3895C32.8951 23.3895 33.406 19.8939 31.2747 19.8939Z" fill="#2C2C2C"/>
</g>
<mask id="mask2_73_1696" style="mask-type:luminance" maskUnits="userSpaceOnUse" x="0" y="0" width="131" height="50">
<path d="M0.564819 49.908H130.065V0.482376H0.564819V49.908Z" fill="white"/>
</mask>
<g mask="url(#mask2_73_1696)">
<path d="M6.05268 37.8918C6.07205 37.7965 6.04821 37.6833 6.02141 37.5969L5.98268 37.4539C5.95438 37.3497 5.92311 37.2201 6.05417 37.1397C6.17183 37.0667 6.29545 37.1352 6.34907 37.2231C6.50546 37.4748 6.24184 37.6222 6.29248 37.7056C6.31631 37.7443 6.3595 37.7429 6.40269 37.7161C6.44886 37.6878 6.52333 37.6416 6.55908 37.6043C6.57993 37.582 6.5844 37.5567 6.58589 37.5299C6.5844 37.3914 6.53972 37.2454 6.46822 37.1322C6.4012 37.0235 6.30439 36.9252 6.17481 36.885C6.04375 36.8448 5.88438 36.8626 5.7548 36.9431C5.63565 37.016 5.56565 37.1337 5.54927 37.2573C5.53884 37.3556 5.57161 37.4807 5.60437 37.5701C5.62523 37.6326 5.65948 37.7399 5.66097 37.8069C5.66395 37.8739 5.63118 37.932 5.56863 37.9722C5.42416 38.0616 5.27671 37.9722 5.21117 37.8665C5.16798 37.798 5.14564 37.7131 5.15309 37.6297C5.16202 37.5537 5.1933 37.5031 5.23054 37.436C5.25586 37.3899 5.26926 37.3497 5.24394 37.308C5.21713 37.2633 5.14862 37.2633 5.09798 37.2931C4.98925 37.3616 4.95798 37.5284 4.96245 37.6326C4.96989 37.7533 5.01457 37.868 5.07713 37.9692C5.15309 38.0944 5.26181 38.1897 5.41224 38.2358C5.55225 38.2776 5.71459 38.2567 5.85161 38.1703C5.95736 38.1048 6.02885 38.0035 6.05268 37.8918Z" fill="#2C2C2C"/>
<path d="M7.33847 38.6834C7.38464 38.6432 7.40252 38.6521 7.45018 38.6685C7.47699 38.6789 7.50379 38.6864 7.53209 38.6596C7.58422 38.6149 7.5455 38.5672 7.51571 38.533L7.41145 38.4138C7.38166 38.3796 7.33996 38.3349 7.28932 38.3796C7.25953 38.4049 7.26251 38.4302 7.26847 38.4585C7.27741 38.5091 7.28485 38.527 7.23868 38.5672L6.73825 38.9992C6.65186 39.0751 6.53867 39.1749 6.42994 39.2062C6.31377 39.2389 6.19462 39.1868 6.12908 39.1123C6.0561 39.0274 6.02483 38.9113 6.08738 38.7862C6.13802 38.6819 6.2393 38.5911 6.32568 38.5166L6.79186 38.113C6.86335 38.0608 6.86782 38.0459 6.93782 38.0742C6.96314 38.0876 6.98697 38.0891 7.01527 38.0653C7.06293 38.0236 7.03315 37.9759 7.00485 37.9447L6.77697 37.6795C6.75016 37.6498 6.70697 37.6229 6.66378 37.6602C6.63399 37.6855 6.63846 37.7093 6.63995 37.7376L6.64441 37.7615C6.65335 37.8061 6.61016 37.8344 6.57739 37.8627L6.10972 38.2679C5.96376 38.3945 5.81929 38.5404 5.79397 38.7296C5.77461 38.8904 5.86248 39.0557 5.94738 39.154C6.05014 39.2717 6.20802 39.3819 6.38973 39.3641C6.56697 39.3477 6.72782 39.2121 6.86335 39.0945L7.33847 38.6834Z" fill="#2C2C2C"/>
<path d="M7.6952 39.416C7.63562 39.3266 7.56711 39.2134 7.6669 39.0973C7.75478 38.99 7.89329 39.0183 7.97223 39.0839C8.2001 39.276 7.99308 39.4979 8.06904 39.5605C8.10329 39.5903 8.14202 39.5769 8.17627 39.5381C8.21053 39.4964 8.26713 39.4294 8.28947 39.3832C8.30287 39.3549 8.29989 39.3296 8.29245 39.3043C8.24777 39.1717 8.15989 39.0481 8.05712 38.9617C7.96031 38.8798 7.83818 38.8158 7.70265 38.8188C7.56562 38.8188 7.41817 38.8843 7.32136 39.0005C7.23051 39.1077 7.19923 39.2403 7.22306 39.3639C7.24242 39.4607 7.31242 39.5709 7.37051 39.6454C7.41073 39.6975 7.47626 39.7884 7.4986 39.8524C7.52243 39.9135 7.50903 39.9805 7.46136 40.0386C7.35115 40.1682 7.18434 40.1279 7.08753 40.0475C7.02646 39.9954 6.9788 39.9209 6.96093 39.839C6.94454 39.7645 6.95944 39.7079 6.97433 39.6305C6.98327 39.5798 6.98625 39.5366 6.94752 39.5054C6.90731 39.4711 6.84178 39.492 6.80454 39.5381C6.72113 39.6349 6.74348 39.8033 6.77922 39.9016C6.8239 40.0147 6.90284 40.1101 6.9922 40.186C7.10391 40.2813 7.23796 40.3394 7.39434 40.335C7.54179 40.3335 7.68775 40.262 7.79201 40.1384C7.87244 40.0445 7.90818 39.9254 7.89776 39.8122C7.88584 39.7169 7.82925 39.6156 7.77712 39.5411L7.6952 39.416Z" fill="#2C2C2C"/>
<path d="M8.7742 40.9892C8.65058 41.0338 8.51803 41.0279 8.42122 40.9698C8.30504 40.8983 8.23206 40.7777 8.24249 40.6198C8.25291 40.4857 8.31547 40.3204 8.38845 40.2013C8.46888 40.0687 8.57165 39.9525 8.70271 39.8796C8.83229 39.811 8.96634 39.8036 9.07655 39.8691C9.13315 39.9034 9.18081 39.9659 9.20315 40.0419C9.22698 40.1179 9.21804 40.1745 9.20464 40.2549C9.19719 40.3011 9.1823 40.3696 9.224 40.3949C9.26272 40.4187 9.30592 40.4083 9.33273 40.3636C9.35656 40.3234 9.42805 40.1938 9.43996 40.1551C9.4489 40.1223 9.43847 40.091 9.42507 40.0627C9.37294 39.9227 9.25975 39.7976 9.1391 39.7247C8.8025 39.5206 8.311 39.6472 8.06376 40.0553C7.8195 40.4589 7.93865 40.8968 8.26781 41.0964C8.37356 41.1604 8.50611 41.1977 8.63569 41.1902C8.71761 41.1843 8.87697 41.1545 8.93059 41.0666C8.95144 41.0309 8.94399 40.9877 8.9157 40.9698C8.87697 40.946 8.81591 40.9757 8.7742 40.9892Z" fill="#2C2C2C"/>
<path d="M9.439 41.487C9.41219 41.4498 9.439 41.4081 9.45688 41.3664L9.87986 40.44C9.89774 40.3983 9.91263 40.3506 9.95731 40.3462L9.98114 40.3417C10.0094 40.3372 10.0333 40.3343 10.0497 40.2985C10.0735 40.2464 10.0348 40.2121 9.99753 40.1957L9.68475 40.0528C9.64901 40.0364 9.59837 40.0304 9.57454 40.0825C9.55815 40.1183 9.57156 40.1377 9.58496 40.163L9.59837 40.1838C9.62518 40.2211 9.59837 40.2628 9.58049 40.303L9.15751 41.2294C9.13963 41.2711 9.12623 41.3187 9.08006 41.3232L9.05623 41.3262C9.02793 41.3321 9.0041 41.3351 8.98772 41.3709C8.96537 41.423 9.00261 41.4573 9.03835 41.4736L9.35262 41.6151C9.38836 41.633 9.439 41.639 9.46283 41.5868C9.47922 41.5511 9.4673 41.5317 9.45092 41.5064L9.439 41.487Z" fill="#2C2C2C"/>
<path d="M10.756 40.9349C10.6771 41.1747 10.4328 41.1896 10.2586 41.1628L10.4135 40.6907C10.4269 40.6475 10.4403 40.6013 10.4775 40.579C10.5133 40.5581 10.5624 40.5685 10.5981 40.5805C10.7411 40.6281 10.8126 40.7607 10.756 40.9349ZM11.0256 40.643C10.9437 40.5477 10.832 40.5015 10.7218 40.4643L10.1901 40.29C10.1513 40.2766 10.1007 40.2766 10.0828 40.3317C10.0709 40.3675 10.0858 40.3853 10.1022 40.4092L10.1171 40.4285C10.1484 40.4628 10.126 40.506 10.1126 40.5492L9.79537 41.5173C9.78196 41.5605 9.77302 41.6081 9.72834 41.6186L9.70451 41.6245C9.6777 41.632 9.65536 41.6379 9.64196 41.6752C9.62408 41.7303 9.66579 41.7601 9.70451 41.772L10.0262 41.8777C10.0649 41.8896 10.1409 41.9209 10.1632 41.8524C10.1767 41.8137 10.1677 41.7958 10.1424 41.772C10.1186 41.7511 10.0962 41.7347 10.0947 41.6945C10.0962 41.6737 10.1007 41.6484 10.1066 41.6245L10.2064 41.3177C10.3643 41.3609 10.5401 41.3966 10.7069 41.3594C10.8692 41.3266 11.0331 41.2254 11.0956 41.0332C11.1448 40.8843 11.1135 40.7443 11.0256 40.643Z" fill="#2C2C2C"/>
<path d="M12.1294 40.7825L11.2954 40.6366C11.2567 40.6306 11.206 40.6366 11.1971 40.6932C11.1896 40.7304 11.206 40.7468 11.2269 40.7691L11.2447 40.784C11.2805 40.8138 11.2641 40.86 11.2567 40.9047L11.0809 41.9085C11.0735 41.9517 11.072 42.0023 11.0288 42.0187L11.0079 42.0277C10.9811 42.0411 10.9603 42.05 10.9543 42.0872C10.9424 42.1438 10.9886 42.1677 11.0273 42.1736L11.9001 42.3255C11.9805 42.3389 11.9969 42.3345 12.0341 42.2511C12.0609 42.2004 12.0982 42.123 12.1071 42.0649C12.1145 42.0262 12.0877 41.9919 12.0565 41.986C12.0088 41.977 11.9567 42.0336 11.9224 42.0649C11.8286 42.1513 11.7571 42.1468 11.6513 42.1275C11.4086 42.0813 11.3892 42.0634 11.4264 41.8474L11.4905 41.484L11.7586 41.5317C11.8807 41.5525 11.8539 41.6225 11.915 41.6345C11.985 41.6464 11.9984 41.5257 12.0073 41.4691C12.0162 41.417 12.0326 41.3232 11.9701 41.3128C11.909 41.3023 11.9165 41.3828 11.7899 41.3604L11.5203 41.3142L11.5873 40.924C11.5918 40.8957 11.6141 40.8764 11.6439 40.8689C11.6781 40.86 11.7571 40.8719 11.7943 40.8764C11.8479 40.8868 11.9254 40.9047 11.9701 40.9255C12.0177 40.9493 12.0416 40.9791 12.0669 41.0313C12.0848 41.0685 12.0996 41.1013 12.1384 41.1087C12.1845 41.1162 12.2099 41.0774 12.2188 41.0283C12.2262 40.9851 12.2397 40.8615 12.2233 40.8242C12.2069 40.7915 12.1577 40.787 12.1294 40.7825Z" fill="#2C2C2C"/>
<path d="M12.7213 41.5744L12.7302 41.1634C12.7317 41.1187 12.7332 41.0546 12.7615 41.0234C12.7883 40.9906 12.8583 40.9831 12.897 40.9846C13.0385 40.9861 13.1562 41.0651 13.1532 41.2512C13.1473 41.5 12.8926 41.5729 12.7213 41.5744ZM13.5464 42.2804C13.4958 42.2447 13.4853 42.2134 13.463 42.1493C13.4049 41.9602 13.3379 41.7755 13.2232 41.6236C13.3692 41.5476 13.5032 41.4166 13.5077 41.217C13.5092 41.0814 13.4451 40.9608 13.3453 40.8997C13.2575 40.8446 13.1428 40.8372 13.046 40.8357L12.4011 40.8238C12.3609 40.8223 12.3117 40.8372 12.3117 40.8953C12.3102 40.9325 12.3296 40.9459 12.3534 40.9623L12.3728 40.9772C12.4115 41.001 12.404 41.0502 12.4026 41.0948L12.3802 42.1106C12.3787 42.1553 12.3862 42.2044 12.346 42.2268L12.3236 42.2387C12.3013 42.2566 12.2804 42.2685 12.2804 42.3057C12.2789 42.3638 12.3281 42.3802 12.3668 42.3802L12.7138 42.3876C12.7526 42.3891 12.8017 42.3742 12.8032 42.3176C12.8047 42.2789 12.7853 42.2655 12.7615 42.2491L12.7421 42.2357C12.7019 42.2104 12.7109 42.1627 12.7124 42.1181L12.7198 41.7383L12.9 41.7085C12.9685 41.8038 13.1145 42.1002 13.1115 42.2089C13.11 42.2685 13.0326 42.261 13.0311 42.3251C13.0296 42.3981 13.0951 42.3966 13.1383 42.3981L13.4943 42.4055C13.5271 42.4055 13.5881 42.4025 13.5896 42.3459C13.5896 42.3072 13.5702 42.2983 13.5464 42.2804Z" fill="#2C2C2C"/>
<path d="M14.7858 41.8958C14.7397 41.9018 14.7054 41.9703 14.6816 42.012C14.6175 42.1222 14.5475 42.1371 14.4403 42.1505C14.1946 42.1788 14.1707 42.1669 14.1439 41.9495L14.0977 41.5831L14.3688 41.5503C14.4909 41.5324 14.4865 41.6099 14.5475 41.6024C14.619 41.5935 14.5952 41.4743 14.5878 41.4163C14.5818 41.3626 14.5699 41.2703 14.5058 41.2792C14.4448 41.2867 14.4746 41.3611 14.348 41.379L14.0769 41.4133L14.0277 41.0201C14.0233 40.9918 14.0382 40.9665 14.0635 40.9516C14.0948 40.9307 14.1722 40.9188 14.2109 40.9143C14.2646 40.9084 14.3435 40.9009 14.3926 40.9084C14.4433 40.9173 14.4761 40.9396 14.5163 40.9813C14.5446 41.0111 14.5684 41.0379 14.6071 41.0335C14.6533 41.029 14.6667 40.9843 14.6592 40.9337C14.6548 40.8905 14.6324 40.7684 14.6041 40.7371C14.5788 40.7118 14.5312 40.7207 14.5014 40.7252L13.6628 40.8309C13.6241 40.8369 13.5765 40.8562 13.5839 40.9143C13.5884 40.9516 13.6107 40.962 13.636 40.9769L13.6569 40.9858C13.7001 41.0052 13.6986 41.0543 13.7045 41.099L13.8326 42.1088C13.8386 42.1535 13.852 42.2012 13.8148 42.2295L13.7969 42.2444C13.776 42.2637 13.7567 42.2801 13.7626 42.3173C13.7701 42.3739 13.8207 42.3829 13.8594 42.3784L14.7382 42.2667C14.8186 42.2578 14.832 42.2473 14.8439 42.155C14.8544 42.0999 14.8663 42.015 14.8588 41.9569C14.8544 41.9167 14.8171 41.8914 14.7858 41.8958Z" fill="#2C2C2C"/>
<path d="M21.032 40.8498C21.0067 40.8289 20.9412 40.8334 20.9129 40.8334L20.1265 40.8364C20.0863 40.8364 20.0371 40.8512 20.0371 40.9093C20.0371 40.9466 20.058 40.96 20.0818 40.9778L20.1012 40.9898C20.1414 41.0121 20.1354 41.0627 20.1354 41.1074L20.1384 42.1262C20.1384 42.1709 20.1458 42.2185 20.1056 42.2423L20.0863 42.2557C20.0624 42.2721 20.0431 42.2855 20.0431 42.3243C20.0431 42.3809 20.0922 42.3958 20.1324 42.3958H20.4765C20.5152 42.3958 20.5644 42.3794 20.5644 42.3228C20.5644 42.284 20.545 42.2706 20.5212 42.2543L20.5003 42.2409C20.4601 42.2185 20.4675 42.1694 20.4675 42.1232L20.4661 41.6808H20.7297C20.8533 41.6794 20.8399 41.7538 20.901 41.7538C20.9739 41.7538 20.9635 41.6317 20.9635 41.5751C20.9635 41.5215 20.9635 41.4291 20.8995 41.4291C20.8384 41.4291 20.8593 41.5066 20.7297 41.5066L20.4661 41.5081L20.4646 41.1491C20.4646 41.1059 20.4601 41.0464 20.4899 41.0166C20.5197 40.9853 20.612 40.9853 20.6478 40.9853C20.7848 40.9853 20.8622 40.9898 20.9561 41.1149C20.9784 41.1417 21.0007 41.1715 21.0365 41.1715C21.0946 41.1715 21.0856 41.097 21.0842 41.0523C21.0767 40.9942 21.0767 40.884 21.032 40.8498Z" fill="#2C2C2C"/>
<path d="M22.4002 42.068L22.3793 42.0591C22.3361 42.0427 22.3332 41.9935 22.3257 41.9503L22.144 40.9465C22.1366 40.9033 22.1202 40.8556 22.1559 40.8258L22.1738 40.8109C22.1932 40.7901 22.211 40.7737 22.2036 40.7365C22.1932 40.6784 22.1425 40.6724 22.1023 40.6799L21.7642 40.7409C21.7255 40.7484 21.6808 40.7722 21.6912 40.8288C21.6972 40.866 21.7195 40.875 21.7449 40.8869L21.7672 40.8973C21.8104 40.9122 21.8119 40.9614 21.8193 41.0061L22.001 42.0084C22.0085 42.0516 22.0249 42.0993 21.9906 42.1305L21.9727 42.1454C21.9519 42.1663 21.9355 42.1827 21.9429 42.2184C21.9519 42.278 22.0025 42.284 22.0427 42.2765L22.3808 42.214C22.4195 42.208 22.4657 42.1842 22.4553 42.1276C22.4478 42.0903 22.427 42.0814 22.4002 42.068Z" fill="#2C2C2C"/>
<path d="M24.0038 40.3487C23.9964 40.3234 23.9904 40.2995 23.9889 40.2787C23.9859 40.2399 24.0083 40.2206 24.0306 40.1997C24.0545 40.1729 24.0619 40.1551 24.047 40.1178C24.0217 40.0493 23.9472 40.0851 23.9085 40.0999L23.7625 40.1565C23.7238 40.1714 23.6449 40.1953 23.6717 40.2623C23.6851 40.2995 23.7059 40.3085 23.7387 40.3114C23.77 40.3129 23.7983 40.3114 23.8236 40.3427C23.8355 40.3576 23.8489 40.3814 23.8594 40.4038L24.1155 41.0621L23.7417 40.7746C23.5972 40.6644 23.3947 40.5036 23.2442 40.4172C23.1817 40.3785 23.1727 40.3859 23.1102 40.4097L22.8793 40.4991C22.8346 40.517 22.7825 40.5378 22.8093 40.6034C22.8272 40.6525 22.8629 40.6495 22.9002 40.6495C22.9925 40.6466 23.0089 40.724 23.0447 40.8104L23.3842 41.6906C23.3932 41.7145 23.3991 41.7398 23.4006 41.7591C23.4021 41.7993 23.3798 41.8172 23.3574 41.8396C23.3336 41.8649 23.3261 41.8842 23.341 41.9215C23.3664 41.9885 23.4408 41.9542 23.4796 41.9393L23.627 41.8813C23.6657 41.8664 23.7432 41.844 23.7179 41.7755C23.703 41.7368 23.6836 41.7293 23.6508 41.7264C23.6181 41.7264 23.5898 41.7264 23.5645 41.6951C23.5525 41.6802 23.5406 41.6579 23.5287 41.634L23.207 40.8029L24.0664 41.4538C24.1125 41.491 24.2257 41.5879 24.2689 41.6117C24.3077 41.634 24.3315 41.6251 24.3687 41.6102C24.4715 41.57 24.464 41.5372 24.4223 41.4285L24.0038 40.3487Z" fill="#2C2C2C"/>
<path d="M25.6619 40.7187H25.6396C25.5919 40.7202 25.5725 40.6741 25.5487 40.6368L25.0081 39.773C24.9842 39.7357 24.9515 39.6985 24.9723 39.6568L24.9842 39.6359C24.9932 39.6091 25.0036 39.5868 24.9842 39.5555C24.9529 39.5064 24.9038 39.5198 24.8695 39.5406L24.5776 39.7238C24.5449 39.7447 24.5106 39.7834 24.5419 39.8311C24.5627 39.8653 24.5866 39.8653 24.6149 39.8668H24.6372C24.6849 39.8653 24.7042 39.9115 24.728 39.9487L25.2687 40.8111C25.2925 40.8498 25.3253 40.887 25.3044 40.9287L25.294 40.9496C25.2836 40.9764 25.2732 40.9973 25.2925 41.03C25.3238 41.0792 25.373 41.0658 25.4072 41.0449L25.6991 40.8617C25.7319 40.8409 25.7662 40.8021 25.7349 40.753C25.714 40.7217 25.6902 40.7217 25.6619 40.7187Z" fill="#2C2C2C"/>
<path d="M26.2686 39.4065L25.9886 39.1042C25.9588 39.0714 25.9141 39.0252 25.9126 38.9835C25.9096 38.9403 25.9543 38.8867 25.9811 38.8614C26.0854 38.7631 26.2254 38.7393 26.352 38.8748C26.5218 39.0565 26.3907 39.2873 26.2686 39.4065ZM27.3529 39.3365C27.2903 39.3484 27.262 39.332 27.1994 39.3008C27.0267 39.2069 26.8494 39.1205 26.6633 39.0922C26.7139 38.9359 26.7184 38.7482 26.5813 38.6022C26.4905 38.5039 26.3594 38.4622 26.2447 38.4875C26.1435 38.5099 26.0571 38.5829 25.9856 38.6514L25.5149 39.0922C25.4866 39.119 25.4598 39.1622 25.5 39.2054C25.5254 39.2322 25.5492 39.2293 25.5775 39.2263L25.6013 39.2218C25.646 39.2114 25.6743 39.2516 25.7041 39.2844L26.3982 40.0291C26.4279 40.0618 26.4682 40.0931 26.4547 40.1363L26.4473 40.1601C26.4428 40.1884 26.4369 40.2108 26.4637 40.2406C26.5009 40.2808 26.5486 40.2599 26.5754 40.2316L26.8301 39.9963C26.8584 39.9695 26.8837 39.9248 26.845 39.8816C26.8197 39.8533 26.7958 39.8578 26.7675 39.8608L26.7437 39.8652C26.699 39.8757 26.6707 39.8354 26.6394 39.8027L26.3818 39.5242L26.4905 39.3782C26.6052 39.3991 26.918 39.5108 26.9909 39.5897C27.0311 39.6329 26.9701 39.682 27.0133 39.7282C27.0624 39.7818 27.1101 39.7357 27.1414 39.7059L27.4005 39.4631C27.4258 39.4393 27.4675 39.3961 27.4288 39.3544C27.402 39.3261 27.3812 39.3335 27.3529 39.3365Z" fill="#2C2C2C"/>
<path d="M28.4213 37.6298C28.3871 37.6075 28.3439 37.6164 28.326 37.6432C28.2992 37.6819 28.329 37.7534 28.3454 37.7981C28.3841 37.9187 28.3484 37.9813 28.2888 38.0707C28.1473 38.2732 28.1235 38.2836 27.9418 38.16L27.6364 37.953L27.7913 37.7266C27.8598 37.6253 27.9135 37.679 27.9477 37.6283C27.9879 37.5672 27.8837 37.5077 27.8345 37.4749C27.7913 37.4451 27.7139 37.393 27.6781 37.4451C27.6439 37.4958 27.7213 37.5241 27.6483 37.6298L27.4949 37.8562L27.1658 37.6343C27.1419 37.6179 27.1345 37.5896 27.139 37.5613C27.1449 37.5255 27.1881 37.4585 27.209 37.4272C27.2388 37.3826 27.2879 37.3185 27.3251 37.2872C27.3654 37.253 27.4041 37.2426 27.4607 37.2411C27.5024 37.2411 27.5381 37.2411 27.5605 37.2083C27.5873 37.1696 27.562 37.1309 27.5217 37.1026C27.4845 37.0772 27.3788 37.0132 27.3371 37.0147C27.2998 37.0147 27.276 37.0594 27.2596 37.0832L26.7845 37.7817C26.7622 37.816 26.7473 37.8636 26.7949 37.8964C26.8262 37.9187 26.8485 37.9083 26.8753 37.8994L26.8977 37.889C26.9394 37.8696 26.9751 37.9039 27.0124 37.9277L27.8554 38.4996C27.8926 38.5249 27.9373 38.5458 27.9343 38.592V38.6158C27.9343 38.6456 27.9343 38.6694 27.9656 38.6903C28.0132 38.723 28.0535 38.6917 28.0758 38.6575L28.5733 37.9247C28.6179 37.8577 28.6194 37.8413 28.5584 37.7713C28.5241 37.7281 28.469 37.6611 28.4213 37.6298Z" fill="#2C2C2C"/>
<path d="M16.9557 40.7027C16.9065 40.7102 16.8723 40.7832 16.8484 40.8293C16.7829 40.9455 16.7084 40.9634 16.5938 40.9798C16.3361 41.017 16.3108 41.0051 16.2765 40.7742L16.2184 40.387L16.5059 40.3438C16.6355 40.3244 16.631 40.4064 16.695 40.3959C16.7725 40.384 16.7442 40.2574 16.7338 40.1978C16.7263 40.1412 16.7114 40.0429 16.6444 40.0534C16.5804 40.0623 16.6131 40.1427 16.4776 40.1621L16.1901 40.2053L16.1291 39.7897C16.1246 39.76 16.1395 39.7332 16.1663 39.7153C16.1976 39.6944 16.281 39.6795 16.3212 39.6736C16.3778 39.6646 16.4627 39.6572 16.5148 39.6632C16.5699 39.6706 16.6042 39.6929 16.6474 39.7376C16.6787 39.7689 16.704 39.7972 16.7457 39.7912C16.7948 39.7838 16.8067 39.7361 16.7993 39.684C16.7933 39.6378 16.765 39.5083 16.7352 39.477C16.707 39.4487 16.6578 39.4606 16.6265 39.4651L15.7388 39.5976C15.6957 39.6051 15.648 39.6274 15.6554 39.6885C15.6629 39.7287 15.6852 39.7391 15.7135 39.7525L15.7359 39.7629C15.7805 39.7823 15.7805 39.8329 15.788 39.8806L15.9474 40.9515C15.9548 40.9976 15.9712 41.0483 15.9325 41.0796L15.9131 41.0959C15.8908 41.1168 15.8729 41.1347 15.8788 41.1749C15.8878 41.2345 15.9414 41.2434 15.9831 41.2374L16.914 41.0974C17.0004 41.084 17.0138 41.0751 17.0242 40.9768C17.0316 40.9172 17.045 40.8264 17.0361 40.7668C17.0287 40.7236 16.9899 40.6968 16.9557 40.7027Z" fill="#2C2C2C"/>
<path d="M18.1167 39.6635L17.1531 39.4624C17.1293 39.4579 17.0861 39.446 17.0652 39.4579C17.031 39.4788 16.9937 39.589 16.9803 39.6277C16.9729 39.6501 16.961 39.6724 16.9565 39.6962C16.9461 39.7484 16.9654 39.7856 17.0101 39.796C17.0965 39.8139 17.1397 39.6307 17.3542 39.6754C17.4346 39.6933 17.4197 39.7305 17.4048 39.8109L17.1844 40.8669C17.1739 40.9146 17.1725 40.9667 17.1248 40.9831L17.101 40.992C17.0727 41.0054 17.0503 41.0129 17.0414 41.0531C17.028 41.1126 17.0771 41.1395 17.1174 41.1484L17.4763 41.2229C17.518 41.2303 17.5716 41.2258 17.5835 41.1663C17.5925 41.126 17.5746 41.1082 17.5537 41.0858L17.5359 41.068C17.4986 41.0352 17.518 40.986 17.5269 40.9399L17.7474 39.8824C17.7637 39.802 17.7667 39.7618 17.8472 39.7781C18.0616 39.8228 18.0274 40.0075 18.1138 40.0254C18.1599 40.0343 18.1927 40.0075 18.2031 39.9569C18.2076 39.9316 18.2076 39.9062 18.2091 39.8839C18.2106 39.8422 18.221 39.726 18.1987 39.6933C18.1852 39.6754 18.1391 39.6679 18.1167 39.6635Z" fill="#2C2C2C"/>
<path d="M15.0135 24.2638C15.0135 26.7258 15.0135 27.256 16.4359 27.256C18.6 27.256 19.9374 26.4071 19.9374 24.1357C19.9374 21.2284 17.8136 20.9112 15.3739 20.9112H15.0135V24.2638ZM15.0135 20.1471H15.5869C17.4531 20.1471 19.364 19.5529 19.364 17.3024C19.364 15.393 18.0697 15.1175 16.3286 15.1175C15.9265 15.1175 15.4797 15.1592 15.0135 15.2023V20.1471ZM13.1026 17.2607C13.1026 16.306 13.1026 15.2023 12.6364 14.48C14.5041 14.48 16.4135 14.2685 18.2812 14.2685C19.9374 14.2685 21.4432 14.9894 21.4432 16.8362C21.4432 18.6831 19.9791 19.5737 18.4719 20.2112V20.2529C20.4468 20.6982 22.1432 21.4831 22.1432 23.7753C22.1432 27.1279 19.5979 28.105 16.7114 28.105C15.2682 28.105 13.8458 28.0201 12.4026 28.0201C13.1026 26.5128 13.1026 24.3279 13.1026 22.6925V17.2607Z" fill="#2C2C2C"/>
<path d="M42.879 22.6573C42.879 26.339 42.879 27.1329 45.0059 27.1329C48.2424 27.1329 50.2426 25.8624 50.2426 22.4666C50.2426 18.1191 47.0687 17.6425 43.4182 17.6425H42.879V22.6573ZM42.879 16.5001H43.7354C46.5296 16.5001 49.3847 15.6109 49.3847 12.2464C49.3847 9.39121 47.45 8.97716 44.8465 8.97716C44.2433 8.97716 43.5776 9.0412 42.879 9.10525V16.5001ZM40.0224 12.1838C40.0224 10.7555 40.0224 9.10525 39.3239 8.02543C42.1165 8.02543 44.9731 7.70819 47.7672 7.70819C50.2426 7.70819 52.4961 8.78801 52.4961 11.5493C52.4961 14.3107 50.3052 15.6437 48.0517 16.5954V16.6595C51.0037 17.3252 53.5431 18.5004 53.5431 21.9275C53.5431 26.9422 49.7347 28.4019 45.4185 28.4019C43.2603 28.4019 41.1335 28.2753 38.9753 28.2753C40.0224 26.0218 40.0224 22.7526 40.0224 20.3085V12.1838Z" fill="#2C2C2C"/>
<path d="M61.0573 18.1824C62.6122 18.1824 63.4388 18.1824 63.4388 16.976C63.4388 15.8024 62.5809 14.5647 61.026 14.5647C59.0258 14.5647 58.1679 16.4994 57.7881 18.1824H61.0573ZM57.5974 19.1341C57.5334 19.7373 57.4708 20.2452 57.4708 20.9125C57.4708 23.863 58.8038 26.6884 62.1043 26.6884C63.6608 26.6884 65.1844 26.0539 65.947 25.1975V25.546C65.947 27.2275 63.2795 28.7839 60.9307 28.7839C56.7723 28.7839 54.8048 25.0381 54.8048 21.197C54.8048 17.0713 57.0895 13.6115 61.4386 13.6115C64.4859 13.6115 66.2955 15.6117 66.2955 17.6745C66.2955 19.1341 65.2485 19.1341 63.2795 19.1341H57.5974Z" fill="#2C2C2C"/>
<path d="M68.519 19.1978C68.519 16.9443 68.519 14.7549 67.6938 14.0877C68.869 14.0564 69.9786 13.9298 70.3599 13.9298C70.9318 13.9298 70.5818 15.516 70.9318 15.516C71.0897 15.516 72.1367 13.611 74.0104 13.611C75.1215 13.611 75.7559 14.0564 75.7559 14.8175C75.7559 15.4207 75.4387 15.866 74.6449 15.866C74.0417 15.866 73.4072 15.7707 72.6446 15.7707C71.0584 15.7707 70.8677 16.8803 70.8677 18.2773V24.8158C70.8677 25.9894 70.8677 27.3552 71.4382 28.2756H67.947C68.519 27.3552 68.519 25.9894 68.519 24.8158V19.1978Z" fill="#2C2C2C"/>
<path d="M94.5111 18.1824C96.0661 18.1824 96.8912 18.1824 96.8912 16.976C96.8912 15.8024 96.0348 14.5647 94.4799 14.5647C92.4796 14.5647 91.6232 16.4994 91.2419 18.1824H94.5111ZM91.0513 19.1341C90.9872 19.7373 90.9247 20.2452 90.9247 20.9125C90.9247 23.863 92.2577 26.6884 95.5582 26.6884C97.1131 26.6884 98.6368 26.0539 99.3993 25.1975V25.546C99.3993 27.2275 96.7333 28.7839 94.3846 28.7839C90.2262 28.7839 88.2587 25.0381 88.2587 21.197C88.2587 17.0713 90.5434 13.6115 94.8924 13.6115C97.9382 13.6115 99.7479 15.6117 99.7479 17.6745C99.7479 19.1341 98.7008 19.1341 96.7333 19.1341H91.0513Z" fill="#2C2C2C"/>
<path d="M101.257 28.2754C101.829 27.3862 101.829 26.0219 101.829 24.8468V9.73986C101.829 8.43813 101.829 7.20044 101.003 6.56596L104.178 6.05808V24.8468C104.178 26.0219 104.178 27.3862 104.749 28.2754H101.257Z" fill="#2C2C2C"/>
<path d="M112.39 18.1824C113.945 18.1824 114.77 18.1824 114.77 16.976C114.77 15.8024 113.914 14.5647 112.359 14.5647C110.359 14.5647 109.502 16.4994 109.121 18.1824H112.39ZM108.804 20.9125C108.804 23.863 110.137 26.6884 113.437 26.6884C114.992 26.6884 116.516 26.0539 117.279 25.1975V25.546C117.279 27.2275 114.611 28.7839 112.264 28.7839C108.105 28.7839 106.138 25.0381 106.138 21.197C106.138 17.0713 108.423 13.6115 112.772 13.6115C115.818 13.6115 117.627 15.6117 117.627 17.6745C117.627 19.1341 116.58 19.1341 114.611 19.1341H108.931" fill="#2C2C2C"/>
<path d="M130.065 14.1194C129.493 15.1352 129.209 15.8009 128.764 16.912L124.289 28.3699C123.432 30.5281 120.734 37.342 115.706 37.342C112.937 37.342 110.228 35.6739 110.484 33.76C118.175 38.541 124.467 32.847 121.771 24.8401L120.639 21.0063C120.162 19.3889 118.989 15.4524 117.909 14.1194C118.543 14.0553 119.876 13.9287 120.258 13.9287C120.797 13.9287 120.956 14.2147 121.147 14.8492L123.877 24.149C124.035 24.6569 124.099 25.1007 124.321 25.1007C124.511 25.1007 124.638 24.5928 124.797 24.149L126.415 19.1029C126.701 18.245 127.335 16.1822 127.335 15.2618C127.335 14.6913 127.177 14.4366 126.987 14.1194H130.065Z" fill="#2C2C2C"/>
<path d="M77.3391 23.2569C77.3391 21.6662 77.3079 19.663 77.3079 17.2784C77.3079 14.9877 77.3391 13.0798 77.3391 11.5219C77.3391 8.62803 77.211 6.94203 76.3531 6.3701L79.5971 5.89201V19.8223C82.555 17.755 83.9863 15.8471 83.9863 14.8611C83.9863 14.5424 83.9223 14.2565 83.7316 13.9705H86.9428L82.841 18.3597C82.5222 18.677 82.1409 19.0583 81.6331 19.4723C85.5442 24.4648 87.2615 27.7414 88.3741 28.1868H85.0676L80.3924 21.1255C80.1377 20.713 79.883 20.4896 79.6924 20.4896C79.6611 20.4896 79.6283 20.5223 79.5971 20.5223V24.1475C79.5971 26.4055 79.6611 27.7414 80.2643 28.1868H76.6391C77.2438 27.804 77.3391 26.1508 77.3391 23.2569Z" fill="#2C2C2C"/>
</g>
</svg>
