<svg width="135" height="23" viewBox="0 0 135 23" fill="none" xmlns="http://www.w3.org/2000/svg">
<path fill-rule="evenodd" clip-rule="evenodd" d="M14.7078 10.9818C15.597 10.16 16.6036 8.80158 16.6036 7.07344C16.6036 4.07139 14.8261 0.884502 10.1632 0.884502H0.183411V22.353H11.4543C14.9429 22.353 17.4247 19.1669 17.4247 16.3325C17.4247 13.9165 16.1838 12.0214 14.7078 10.9818ZM5.14788 5.54734H9.34071C10.2807 5.54734 10.9843 6.55399 10.9843 7.55993C10.9843 8.61673 10.2127 9.55603 8.92157 9.55603H5.14788V5.54734ZM9.10642 17.9926H5.1486V13.6156H9.27408C10.75 13.6156 11.5718 14.8057 11.5718 15.7958C11.5711 16.8011 10.8668 17.9926 9.10642 17.9926ZM28.5781 0.465363C23.7476 0.465363 18.6657 4.37375 18.6657 11.5013C18.6657 18.0427 23.0262 22.7055 28.5781 22.7055C34.1301 22.7055 38.5071 18.0427 38.5071 11.5013C38.5078 4.37375 33.4258 0.465363 28.5781 0.465363ZM28.5781 17.8084C25.7437 17.8084 23.6309 14.8565 23.6309 11.3343C23.6309 7.91243 26.3979 5.42984 28.5781 5.42984C30.7756 5.42984 33.5426 7.91243 33.5426 11.3343C33.5433 14.8565 31.4125 17.8084 28.5781 17.8084ZM51.2547 9.38838C47.7324 8.85174 45.6525 8.38244 45.6525 6.789C45.6525 5.59821 46.2902 4.84376 47.8836 4.84376C49.4262 4.84376 51.3722 5.66556 52.6131 6.55471L55.5148 3.13353C53.6197 1.47273 49.7286 0.181641 48.3028 0.181641C43.2874 0.181641 40.1521 3.18368 40.1521 7.07487C40.1521 11.1 42.9027 12.9615 45.6532 13.3813C48.7226 13.8506 50.9036 14.5047 50.9036 16.048C50.9036 17.2725 49.6118 17.9266 48.186 17.9266C45.8882 17.9266 44.2282 16.8032 42.8188 15.3273C41.3429 16.8032 39.5145 18.7477 39.5145 18.7477C41.2756 20.8277 43.5733 22.6561 47.7668 22.6561C53.4356 22.6561 56.4548 18.6309 56.4548 15.7457C56.4541 12.1389 53.9715 9.79104 51.2547 9.38838ZM68.0603 5.42984C69.7032 5.42984 70.4928 6.31899 71.9 7.91244L75.976 5.1282C73.9634 2.12616 71.498 0.297706 67.7745 0.297706C62.4747 0.297706 58.0461 5.19555 58.0461 11.5521C58.0461 17.9259 62.4747 22.8231 67.7745 22.8231C71.498 22.8231 73.9641 20.9946 75.976 17.9926L71.9 15.2083C70.4921 16.8018 69.7032 17.6909 68.0603 17.6909C65.3428 17.6909 63.1797 15.3932 63.1797 11.5521C63.1797 7.72758 65.3428 5.42984 68.0603 5.42984ZM89.9144 8.38173H83.4231V0.884502H78.157V22.3523H83.4231V13.799H89.9144V22.3523H95.1633V0.884502H89.9144V8.38173ZM129.212 6.33547C128.627 5.68062 127.936 5.13034 127.166 4.70835V8.49923H119.316V4.70835C118.552 5.12537 117.866 5.67013 117.287 6.31898C115.961 7.79493 115.19 9.72369 115.19 11.7363C115.19 13.7496 115.961 15.6941 117.287 17.1708C117.861 17.8289 118.548 18.3799 119.316 18.7979V14.8902H127.166V18.7979C127.936 18.3761 128.628 17.8258 129.212 17.1708C130.537 15.6941 131.308 13.7496 131.308 11.7363C131.308 9.72369 130.536 7.79493 129.212 6.33547ZM117.286 15.4254C116.599 14.3174 116.233 13.0402 116.229 11.7363C116.23 10.4267 116.596 9.14324 117.286 8.02993C117.575 7.56045 117.918 7.12683 118.309 6.73813L118.343 16.7681C117.94 16.3624 117.586 15.9119 117.286 15.4254ZM127.165 13.8327H119.315V9.58971H127.165V13.8327ZM128.155 16.7681L128.171 6.73813C128.572 7.12192 128.922 7.55615 129.211 8.02993C129.901 9.14324 130.267 10.4267 130.268 11.7363C130.268 13.0281 129.882 14.3185 129.211 15.4254C128.912 15.912 128.557 16.3625 128.155 16.7681Z" fill="#2C2C2C"/>
<path fill-rule="evenodd" clip-rule="evenodd" d="M129.212 2.54542C127.442 1.40305 125.38 0.797139 123.274 0.800798C121.06 0.800798 119.015 1.45494 117.287 2.57838C114.302 4.54081 112.322 7.91184 112.322 11.7364C112.322 15.5602 114.302 18.932 117.287 20.8937C119.015 22.0171 121.061 22.6885 123.274 22.6885C125.455 22.6885 127.5 22.0343 129.212 20.9274C132.23 18.9657 134.227 15.5767 134.227 11.7364C134.227 7.89536 132.23 4.50785 129.212 2.54542ZM129.212 19.5854C127.505 20.8841 125.419 21.5855 123.274 21.5815C121.109 21.5845 119.004 20.8708 117.287 19.5517C114.939 17.7405 113.412 14.9068 113.412 11.7364C113.412 8.56598 114.939 5.7316 117.287 3.93754C118.998 2.60665 121.106 1.88637 123.274 1.89127C125.505 1.89127 127.551 2.64644 129.212 3.88738C131.593 5.69864 133.12 8.55022 133.12 11.7371C133.12 14.9226 131.593 17.7742 129.212 19.5854Z" fill="#2C2C2C"/>
</svg>
