<svg width="130" height="33" viewBox="0 0 130 33" fill="none" xmlns="http://www.w3.org/2000/svg">
<path d="M58.7203 16.2112C62.7923 14.8561 63.5304 11.4387 63.5223 8.65307C63.514 4.39444 60.5108 0.716896 51.6219 0.716896L35.0278 0.713623V32.6844H51.5761C60.5206 32.6844 63.8103 28.0935 63.8103 23.4944C63.8103 17.9249 58.7203 16.2112 58.7203 16.2112ZM42.9034 7.66949H54.0754L54.1147 7.67761C55.3749 7.9002 56.293 8.97228 56.293 10.2293C56.293 11.5172 55.3094 12.7301 54.0099 12.9069L42.9083 12.9248L42.9034 7.66949ZM53.5368 25.2326H42.9034V19.8824H53.7971L53.8216 19.8856C55.1768 20.0395 56.2046 21.1671 56.2046 22.5043C56.2046 23.9658 54.9886 25.2129 53.5368 25.2326ZM100.966 0.72017H129.006L128.989 7.69568H108.758L108.778 12.8495H127.017V19.8627H108.778V25.4388H129.012L129.007 32.7515H100.966M84.6566 0.75945H67.7006V32.7416H75.4864V19.8005L84.0625 19.7923C86.5175 19.83 88.4275 21.8398 88.4275 24.321V32.7122L96.0478 32.7089L96.0347 22.3897C96.0347 17.6074 91.4145 16.1933 91.4145 16.1933C91.4145 16.1933 96.1379 14.7825 96.1379 9.12941C96.1379 2.21111 90.1951 0.75945 84.6566 0.75945ZM88.9071 10.681C88.7663 11.7333 87.7156 12.8741 86.403 12.8741L75.4585 12.8774V7.75787H86.4063C87.7156 7.75787 88.7402 8.71853 88.9071 9.98375M29.9802 25.0134C29.8707 25.015 19.337 25.2179 15.7003 24.8644C9.84758 24.2916 7.77227 19.9528 7.77227 16.4143C7.77227 11.9969 10.7821 8.7497 15.4433 8.14085C17.6626 7.84953 29.7871 7.98701 29.9165 7.98701L30.1701 7.99198L30.1963 0.718599H29.9394L16.2142 0.744785C14.6856 0.83801 12.152 0.991858 9.55625 2.05242C7.0668 3.19482 4.89657 4.94934 3.27796 7.13109C1.21575 9.90689 0.124023 13.2047 0.124023 16.6614C0.124023 17.7514 0.210833 18.83 0.385891 19.866C1.37287 24.7138 4.55287 28.7287 9.11107 30.8858C10.6495 31.5634 13.0243 32.3735 17.8099 32.6436L20.3893 32.6975L29.9558 32.7058H30.2094L30.2356 25.0101" fill="#2C2C2C"/>
</svg>
