<svg width="156" height="33" viewBox="0 0 156 33" fill="none" xmlns="http://www.w3.org/2000/svg">
<path d="M22.8103 11.4139C24.7881 11.9724 26.5718 12.787 28.0664 13.795C31.061 15.8118 32.9147 18.6069 32.9147 21.6698C32.9147 24.7672 31.0743 27.5517 28.0965 29.5561C26.5966 30.5676 24.8041 31.3814 22.8139 31.9354V32.6225H19.2262C17.4665 32.8162 15.6909 32.8162 13.9312 32.6225H10.6821V32.0285C8.54036 31.4709 6.61134 30.6208 5.01032 29.549C2.01838 27.5437 0.160278 24.7619 0.160278 21.6689C0.160278 18.6096 2.03079 15.8198 5.04134 13.8012C6.64502 12.7277 8.57316 11.8713 10.7149 11.3101C11.6883 1.83966 18.6491 0.517894 22.7306 0.18457V5.99823L22.8103 11.4139ZM131.754 30.4328V2.04001H138.879L139.178 2.51429L148.184 16.7532V2.04001H155.43V30.4328H148.218L147.918 29.9585L139.083 15.9758V30.4337H131.754V30.4328ZM104.792 2.04001H112.038V17.458C112.038 19.6539 112.113 21.0058 112.26 21.5944L112.279 21.6893C112.339 22.082 112.478 22.4339 112.684 22.7451C112.902 23.0758 113.196 23.3701 113.558 23.6334C114.306 24.1786 115.372 24.4507 116.755 24.4507C117.458 24.4507 118.076 24.3833 118.605 24.2619C119.042 24.1695 119.464 24.0154 119.858 23.8045C120.409 23.3045 120.83 22.7584 120.885 22.0917L120.903 21.9774C120.976 21.6139 121.033 21.0732 121.073 20.3693C121.114 19.6193 121.136 18.731 121.136 17.7098V2.04001H128.466V17.0369C128.466 20.2327 128.288 22.59 127.93 24.0217L127.942 23.9747C127.8 24.6756 127.57 25.3556 127.257 25.9985V26.0021C126.96 26.617 126.581 27.1889 126.131 27.7024C125.669 28.261 125.13 28.7503 124.529 29.1554C123.897 29.5832 123.216 29.9332 122.5 30.1979L122.448 30.2165C121.005 30.6686 119.22 30.9381 116.925 30.9381C114.213 30.9381 112.075 30.6642 110.686 30.119C109.874 29.8318 109.177 29.4453 108.572 28.9985C107.967 28.5517 107.467 28.0517 107.043 27.534C106.605 27.008 106.224 26.4375 105.905 25.8319C105.62 25.2743 105.41 24.698 105.313 24.113V24.1112C105.133 23.2885 105.001 22.3143 104.919 21.1955C104.827 19.8672 104.784 18.5359 104.79 17.2045V2.04001H104.792ZM88.0266 30.4328V8.61163H80.1066V2.04001H103.192V8.61163H95.2719V30.4328H88.0266ZM59.2118 16.1947C59.2118 17.6539 59.366 18.9048 59.6843 19.9553C59.9857 20.9544 60.436 21.7699 61.0415 22.4109L61.061 22.4286C61.6718 23.1112 62.3659 23.613 63.131 23.9419C63.9253 24.2849 64.8127 24.4507 65.7834 24.4507C67.6867 24.4507 69.3587 23.8045 70.5058 22.5164L70.4863 22.535C71.0776 21.832 71.5412 20.9801 71.855 19.9624C72.1821 18.9048 72.355 17.6539 72.355 16.1947C72.355 14.7648 72.1866 13.5335 71.8692 12.4927C71.5554 11.4608 71.0935 10.6187 70.5058 9.95733C69.9219 9.3369 69.2135 8.84689 68.4269 8.51944C67.6486 8.19587 66.7647 8.02122 65.7834 8.02122C64.8065 8.02122 63.9217 8.19587 63.1319 8.51944C62.3252 8.85468 61.5923 9.34536 60.975 9.96354C60.3997 10.655 59.9653 11.4936 59.6736 12.4865C59.366 13.5361 59.2118 14.7684 59.2118 16.1947ZM51.8822 16.3632C51.8822 15.0521 51.9877 13.787 52.1783 12.6009C52.3786 11.3491 52.6747 10.2011 53.0409 9.19495L53.1003 9.06463C53.4593 8.39089 53.8609 7.7207 54.3121 7.08331C54.7822 6.41216 55.3086 5.78224 55.8856 5.20038L55.8581 5.2323C56.3853 4.65397 56.9665 4.12736 57.5939 3.65965C58.2101 3.20123 58.8825 2.82376 59.5947 2.53645C60.5256 2.16412 61.5273 1.86449 62.584 1.66236H62.5876C63.6131 1.46579 64.655 1.36665 65.6992 1.36627C67.7674 1.36627 69.6627 1.70669 71.3506 2.376C73.0379 3.03774 74.5548 4.07025 75.7893 5.39718L75.7778 5.38566C77.0641 6.71807 78.049 8.32529 78.7086 10.1816C79.353 11.9901 79.6855 14.0308 79.6855 16.279C79.6855 18.5351 79.3708 20.5608 78.7555 22.363C78.1306 24.1927 77.198 25.784 75.9693 27.1483L75.9338 27.1882C74.6652 28.4577 73.1724 29.3903 71.4792 30.0108C69.7673 30.6376 67.8614 30.939 65.7825 30.939C63.7037 30.939 61.7968 30.6376 60.0859 30.0108C58.3927 29.3912 56.9007 28.4577 55.6321 27.1882L55.6197 27.1723C54.336 25.8425 53.3963 24.2619 52.7785 22.4313C52.1739 20.6361 51.8822 18.614 51.8822 16.3632ZM38.4854 32.54H37.7372L37.5174 31.8202L36.0006 26.8496L35.5928 25.5127L36.9926 25.5473C38.5625 25.5854 39.5155 25.4764 40.1556 25.284C40.7088 25.1191 41.0492 24.8612 41.3923 24.5881L41.3603 24.6192C41.5518 24.4525 41.7194 24.1484 41.8532 23.6741C42.0172 23.0908 42.1085 22.2956 42.1085 21.2505V2.12423H49.6066V20.9118C49.6066 22.1104 49.5622 23.1954 49.4621 24.1529C49.3583 25.1448 49.1943 25.9826 48.9576 26.6448L48.9541 26.6519C48.6305 27.5313 48.2068 28.3974 47.6323 29.1625C47.0384 29.9559 46.2919 30.627 45.3425 31.0826C44.5615 31.4948 43.6652 31.8601 42.5474 32.1234C41.4437 32.3805 40.1246 32.54 38.4854 32.54Z" fill="#2C2C2C"/>
<path fill-rule="evenodd" clip-rule="evenodd" d="M16.8327 4.06128C17.4231 4.06128 17.8433 4.48325 17.8433 4.98767C17.8433 5.57808 17.4222 5.99916 16.8327 5.99916C16.3274 5.99916 15.8212 5.57808 15.8212 4.98767C15.8212 4.48325 16.3274 4.06128 16.8327 4.06128ZM16.8327 4.7359C17.0011 4.7359 17.0853 4.82012 17.0853 4.98856C17.0853 5.15699 17.0011 5.32542 16.8327 5.32542C16.6642 5.32542 16.4958 5.15699 16.4958 4.98856C16.4958 4.82012 16.6642 4.7359 16.8327 4.7359ZM4.3552 15.0991C2.65134 16.4927 1.46964 18.1761 1.01841 20.0076H5.03159C5.32943 18.217 6.07094 16.5295 7.18845 15.0991H4.3552ZM0.893415 20.6379C0.841113 20.9794 0.815033 21.3244 0.815403 21.6698C0.815403 23.0811 1.23738 24.4242 1.99888 25.652H5.62112C4.99977 24.0583 4.76876 22.3391 4.94738 20.6379H0.893415ZM2.42795 26.2823C3.18679 27.3053 4.18853 28.2352 5.38265 29.0366C6.85956 30.0251 8.62812 30.8185 10.5926 31.3566C9.78115 30.8936 9.02816 30.335 8.34976 29.6926C7.32175 28.7208 6.48677 27.5634 5.88884 26.2814L2.42795 26.2823ZM22.8148 30.5197C23.4334 30.1306 24.0119 29.681 24.5417 29.1776C25.4256 28.3435 26.1602 27.3642 26.7136 26.2823H22.8148V30.5197ZM10.6821 26.2823H6.44733C7.00068 27.3641 7.73494 28.3433 8.61837 29.1776C9.23804 29.7662 9.93128 30.2857 10.683 30.7236L10.6821 26.2823ZM22.8148 31.283C24.6614 30.7476 26.3244 29.9861 27.7224 29.0446C28.9139 28.2432 29.9112 27.3097 30.6656 26.2832H27.273C26.6742 27.5649 25.839 28.7222 24.8112 29.6944C24.2019 30.2696 23.5329 30.7781 22.8157 31.2112L22.8148 31.283ZM31.0902 25.652C31.8447 24.4242 32.2613 23.0811 32.2613 21.6698C32.2613 21.3214 32.2347 20.9775 32.1833 20.6379H28.2136C28.3923 22.3391 28.1613 24.0583 27.5398 25.652H31.0902ZM32.0583 20.0076C31.6124 18.1761 30.444 16.4927 28.7525 15.0991H25.9707C27.0884 16.5296 27.8305 18.217 28.1293 20.0076H32.0583ZM7.88435 15.0991C6.67871 16.4873 5.84008 18.1708 5.51119 20.0076H10.6821V15.0991H7.88435ZM22.8148 20.0076H27.6506C27.3209 18.1708 26.4822 16.4873 25.2766 15.0991H22.8148V20.0076ZM5.41811 20.6379C5.22333 22.3447 5.4763 24.0727 6.15213 25.652H10.6813V20.6379H5.41811ZM22.8148 25.652H27.0079C27.6832 24.0725 27.9365 22.3447 27.7428 20.6379H22.8148V25.652ZM16.7485 11.897C19.5294 11.897 21.8042 16.4457 21.8042 22.0076C21.8042 27.4844 19.5294 32.0348 16.7485 32.0348C13.8842 32.0348 11.6094 27.4844 11.6094 22.0076C11.6094 16.4466 13.8833 11.897 16.7485 11.897Z" fill="white"/>
</svg>
