<svg width="135" height="30" viewBox="0 0 135 30" fill="none" xmlns="http://www.w3.org/2000/svg">
<g clip-path="url(#clip0_73_1675)">
<path d="M56.4349 6.19519V23.3421H53.4581V9.88653H53.4184L48.0997 23.3421H46.1151L40.6773 9.88653H40.6376V23.3421H37.8989V6.19519H42.1856L47.1074 18.8966H47.1868L52.3864 6.19519H56.4349ZM58.8958 7.50502C58.8958 7.02872 59.0546 6.6318 59.4118 6.31426C59.7691 5.99673 60.166 5.83796 60.6423 5.83796C61.1583 5.83796 61.5949 5.99673 61.9124 6.31426C62.2299 6.6318 62.4284 7.02872 62.4284 7.50502C62.4284 7.98132 62.2696 8.37824 61.9124 8.69577C61.5552 9.01331 61.1583 9.17207 60.6423 9.17207C60.1263 9.17207 59.7294 9.01331 59.4118 8.69577C59.0943 8.33855 58.8958 7.94163 58.8958 7.50502ZM62.1109 11.0376V23.3421H59.2134V11.0376H62.1109ZM70.8828 21.2384C71.3194 21.2384 71.7957 21.159 72.3117 20.9208C72.8277 20.7224 73.304 20.4445 73.7406 20.127V22.8261C73.2643 23.1039 72.7483 23.3024 72.1529 23.4214C71.5575 23.5405 70.9225 23.6199 70.208 23.6199C68.3822 23.6199 66.9136 23.0642 65.8022 21.9131C64.6512 20.7621 64.0955 19.2935 64.0955 17.547C64.0955 15.5625 64.6908 13.9351 65.8419 12.665C66.993 11.3948 68.6203 10.7597 70.7637 10.7597C71.3194 10.7597 71.8751 10.8391 72.3911 10.9582C72.9467 11.0773 73.3834 11.2757 73.7009 11.4345V14.2129C73.2643 13.8954 72.788 13.6176 72.3514 13.4588C71.8751 13.3 71.3988 13.1809 70.9225 13.1809C69.7714 13.1809 68.8585 13.5382 68.144 14.2923C67.4296 15.0465 67.112 16.0388 67.112 17.3089C67.112 18.5393 67.4693 19.5316 68.144 20.2064C68.8188 20.8812 69.7317 21.2384 70.8828 21.2384ZM81.9568 10.8391C82.1949 10.8391 82.3934 10.8391 82.5919 10.8788C82.7903 10.9185 82.9491 10.9582 83.0682 10.9979V13.9351C82.9094 13.816 82.7109 13.6969 82.3934 13.6176C82.0759 13.5382 81.7583 13.4588 81.3217 13.4588C80.6073 13.4588 80.0119 13.7763 79.5356 14.3717C79.0593 14.9671 78.7814 15.88 78.7814 17.1501V23.3421H75.8839V11.0376H78.7814V12.9825H78.8211C79.099 12.3077 79.4959 11.7917 80.0119 11.3948C80.5676 11.0376 81.2026 10.8391 81.9568 10.8391ZM83.2269 17.3883C83.2269 15.364 83.8223 13.7366 84.9337 12.5459C86.0847 11.3551 87.6724 10.7597 89.6967 10.7597C91.6019 10.7597 93.1102 11.3154 94.1819 12.4665C95.2535 13.6176 95.8092 15.1655 95.8092 17.1104C95.8092 19.095 95.2139 20.6827 94.1025 21.8735C92.9514 23.0642 91.4034 23.6596 89.4188 23.6596C87.5136 23.6596 86.0054 23.1039 84.894 21.9925C83.7826 20.8415 83.2269 19.2935 83.2269 17.3883ZM86.2435 17.2692C86.2435 18.5393 86.5213 19.5316 87.1167 20.2064C87.7121 20.8812 88.5456 21.2384 89.6173 21.2384C90.6493 21.2384 91.4828 20.9208 92.0385 20.2064C92.5942 19.5316 92.872 18.5393 92.872 17.1898C92.872 15.88 92.5942 14.8877 92.0385 14.1732C91.4828 13.4985 90.6493 13.1413 89.657 13.1413C88.5853 13.1413 87.7915 13.4985 87.1961 14.2129C86.5213 14.9671 86.2435 15.9594 86.2435 17.2692ZM100.136 14.2923C100.136 14.6892 100.255 15.0465 100.533 15.2846C100.81 15.5228 101.366 15.8006 102.279 16.1578C103.43 16.6341 104.264 17.1501 104.7 17.7058C105.177 18.3012 105.415 18.976 105.415 19.8095C105.415 20.9605 104.978 21.8735 104.065 22.5879C103.192 23.3024 101.961 23.6199 100.453 23.6199C99.9372 23.6199 99.3815 23.5405 98.7464 23.4214C98.1114 23.3024 97.5954 23.1436 97.1588 22.9451V20.0873C97.6747 20.4445 98.2701 20.7621 98.8655 20.9605C99.4609 21.159 100.017 21.2781 100.533 21.2781C101.168 21.2781 101.684 21.1987 101.961 21.0002C102.279 20.8018 102.438 20.5239 102.438 20.0873C102.438 19.6904 102.279 19.3729 101.961 19.0553C101.644 18.7775 101.009 18.46 100.136 18.1027C99.064 17.6661 98.3098 17.1501 97.8732 16.5944C97.4366 16.0388 97.1984 15.3243 97.1984 14.4511C97.1984 13.3397 97.6351 12.4268 98.5083 11.7123C99.3815 10.9979 100.533 10.6407 101.922 10.6407C102.358 10.6407 102.835 10.6804 103.351 10.7994C103.867 10.9185 104.343 11.0376 104.7 11.1567V13.9748C104.303 13.7366 103.867 13.4985 103.351 13.3C102.835 13.1016 102.319 13.0222 101.842 13.0222C101.287 13.0222 100.85 13.1413 100.572 13.3397C100.294 13.6176 100.136 13.8954 100.136 14.2923ZM106.645 17.3883C106.645 15.364 107.24 13.7366 108.352 12.5459C109.503 11.3551 111.091 10.7597 113.115 10.7597C115.02 10.7597 116.528 11.3154 117.6 12.4665C118.672 13.6176 119.227 15.1655 119.227 17.1104C119.227 19.095 118.632 20.6827 117.521 21.8735C116.37 23.0642 114.822 23.6596 112.837 23.6596C110.932 23.6596 109.424 23.1039 108.312 21.9925C107.24 20.8415 106.645 19.2935 106.645 17.3883ZM109.662 17.2692C109.662 18.5393 109.94 19.5316 110.535 20.2064C111.13 20.8812 111.964 21.2384 113.035 21.2384C114.067 21.2384 114.901 20.9208 115.457 20.2064C116.012 19.5316 116.29 18.5393 116.29 17.1898C116.29 15.88 116.012 14.8877 115.457 14.1732C114.901 13.4985 114.067 13.1413 113.075 13.1413C112.003 13.1413 111.21 13.4985 110.614 14.2129C109.979 14.9671 109.662 15.9594 109.662 17.2692ZM128.873 13.4191H124.546V23.3421H121.609V13.4191H119.545V11.0376H121.609V9.33084C121.609 8.0607 122.046 6.98902 122.879 6.1555C123.713 5.32197 124.784 4.92505 126.094 4.92505C126.451 4.92505 126.769 4.96474 127.047 4.96474C127.325 4.96474 127.563 5.04412 127.761 5.12351V7.62409C127.682 7.5844 127.483 7.50502 127.245 7.42563C127.007 7.34625 126.729 7.30656 126.412 7.30656C125.816 7.30656 125.34 7.50502 125.022 7.86224C124.705 8.21947 124.546 8.81485 124.546 9.5293V10.9979H128.873V8.21947L131.77 7.34625V10.9979H134.707V13.3794H131.77V19.1347C131.77 19.8889 131.929 20.4049 132.167 20.7224C132.445 21.0399 132.881 21.1987 133.477 21.1987C133.636 21.1987 133.834 21.159 134.072 21.0796C134.31 21.0002 134.509 20.9208 134.668 20.8018V23.1833C134.469 23.3024 134.191 23.3817 133.755 23.4611C133.318 23.5405 132.921 23.5802 132.484 23.5802C131.254 23.5802 130.341 23.2627 129.746 22.6276C129.15 21.9925 128.833 21.0002 128.833 19.6904L128.873 13.4191Z" fill="#2C2C2C"/>
<path d="M0.70752 0.479492H14.2821V14.0541H0.70752V0.479492Z" fill="#2C2C2C"/>
<path d="M15.7112 0.479492H29.2858V14.0541H15.7112V0.479492Z" fill="#2C2C2C"/>
<path d="M0.707581 15.4832H14.2822V29.0578H0.707581V15.4832Z" fill="#2C2C2C"/>
<path d="M15.7112 15.4832H29.2858V29.0578H15.7112V15.4832Z" fill="#2C2C2C"/>
</g>
<defs>
<clipPath id="clip0_73_1675">
<rect width="134.044" height="28.5781" fill="white" transform="translate(0.685608 0.479492)"/>
</clipPath>
</defs>
</svg>
