<svg width="138" height="50" viewBox="0 0 138 50" fill="none" xmlns="http://www.w3.org/2000/svg">
<path d="M6.61328 2.74295H0.457278V0.312955H15.3613V2.74295H9.20528V19.429H6.61328V2.74295ZM18.1212 0.312955H20.7132V8.25095H30.6222V0.312955H33.2142V19.429H30.6222V10.681H20.7132V19.429H18.1212V0.312955ZM38.1339 0.312955H50.4729V2.74295H40.7259V8.43995H49.7979V10.87H40.7259V16.999H50.9589V19.429H38.1339V0.312955ZM2.61728 30.313H6.01928L16.5493 46.027H16.6033V30.313H19.1953V49.429H15.9013L5.26328 33.715H5.20928V49.429H2.61728V30.313ZM30.1005 30.313H32.4495L40.6305 49.429H37.6065L35.6895 44.704H26.5905L24.7005 49.429H21.6765L30.1005 30.313ZM34.7445 42.436L31.1805 33.661H31.1265L27.5085 42.436H34.7445ZM44.6348 32.743H38.4788V30.313H53.3828V32.743H47.2268V49.429H44.6348V32.743ZM56.1427 30.313H58.7347V49.429H56.1427V30.313ZM72.4323 49.915C70.9743 49.915 69.6333 49.663 68.4093 49.159C67.1853 48.637 66.1323 47.926 65.2503 47.026C64.3863 46.126 63.7023 45.064 63.1983 43.84C62.7123 42.616 62.4693 41.293 62.4693 39.871C62.4693 38.449 62.7123 37.126 63.1983 35.902C63.7023 34.678 64.3863 33.616 65.2503 32.716C66.1323 31.816 67.1853 31.114 68.4093 30.61C69.6333 30.088 70.9743 29.827 72.4323 29.827C73.8903 29.827 75.2313 30.088 76.4553 30.61C77.6793 31.114 78.7233 31.816 79.5873 32.716C80.4693 33.616 81.1533 34.678 81.6393 35.902C82.1433 37.126 82.3953 38.449 82.3953 39.871C82.3953 41.293 82.1433 42.616 81.6393 43.84C81.1533 45.064 80.4693 46.126 79.5873 47.026C78.7233 47.926 77.6793 48.637 76.4553 49.159C75.2313 49.663 73.8903 49.915 72.4323 49.915ZM72.4323 47.485C73.5303 47.485 74.5203 47.287 75.4023 46.891C76.2843 46.477 77.0403 45.928 77.6703 45.244C78.3003 44.56 78.7863 43.759 79.1283 42.841C79.4703 41.905 79.6413 40.915 79.6413 39.871C79.6413 38.827 79.4703 37.846 79.1283 36.928C78.7863 35.992 78.3003 35.182 77.6703 34.498C77.0403 33.814 76.2843 33.274 75.4023 32.878C74.5203 32.464 73.5303 32.257 72.4323 32.257C71.3343 32.257 70.3443 32.464 69.4623 32.878C68.5803 33.274 67.8243 33.814 67.1943 34.498C66.5643 35.182 66.0783 35.992 65.7363 36.928C65.3943 37.846 65.2233 38.827 65.2233 39.871C65.2233 40.915 65.3943 41.905 65.7363 42.841C66.0783 43.759 66.5643 44.56 67.1943 45.244C67.8243 45.928 68.5803 46.477 69.4623 46.891C70.3443 47.287 71.3343 47.485 72.4323 47.485ZM86.1222 30.313H89.5242L100.054 46.027H100.108V30.313H102.7V49.429H99.4062L88.7682 33.715H88.7142V49.429H86.1222V30.313ZM113.605 30.313H115.954L124.135 49.429H121.111L119.194 44.704H110.095L108.205 49.429H105.181L113.605 30.313ZM118.249 42.436L114.685 33.661H114.631L111.013 42.436H118.249ZM126.622 30.313H129.214V46.999H137.989V49.429H126.622V30.313Z" fill="#2C2C2C"/>
</svg>
