<svg width="138" height="43" viewBox="0 0 138 43" fill="none" xmlns="http://www.w3.org/2000/svg">
<path fill-rule="evenodd" clip-rule="evenodd" d="M0.0966187 1.4C0.0966187 1.9938 0.232386 2.09458 1.12933 2.16792L2.16204 2.25213L2.23502 10.5187C2.3135 19.4222 2.346 19.2174 0.85394 19.2255C0.230733 19.2288 0.0966187 19.3499 0.0966187 19.9087V20.5878H3.53899H6.98136V19.9087C6.98136 19.3162 6.86074 19.2296 6.03705 19.2296C4.37287 19.2296 4.2013 18.8075 4.28832 14.9238L4.36516 11.4879H6.11994H7.87445L10.1169 15.3087C13.5097 21.0898 13.0347 20.5878 15.1117 20.5878C16.8307 20.5878 16.8954 20.5631 16.8954 19.9087C16.8954 19.3198 16.7731 19.2296 15.9742 19.2296C15.4419 19.2296 14.8743 19.0288 14.6295 18.7542C14.1497 18.2158 10.3612 12.1333 10.1211 11.5161C10.0079 11.2249 10.272 11.0318 11.0767 10.8183C12.3713 10.4744 13.7152 9.4397 14.2891 8.34527C14.5108 7.92206 14.6923 6.87787 14.6923 6.02466C14.6923 3.90478 13.7923 2.39637 12.0111 1.5312C10.7972 0.94147 10.3034 0.887414 5.39787 0.805379L0.0966187 0.716553V1.4ZM44.9331 1.15742C42.448 1.83245 40.2432 3.72333 39.102 6.15776C38.6043 7.2196 38.5135 7.91608 38.5135 10.6729C38.5135 14.4289 38.9045 15.6176 40.8113 17.6581C44.3267 21.4198 51.1514 21.4198 54.6667 17.6581C56.5735 15.6176 56.9646 14.4289 56.9646 10.6729C56.9646 7.65259 56.9078 7.29946 56.1935 5.86412C54.2187 1.89791 49.4875 -0.0798935 44.9331 1.15742ZM80.235 1.29705C80.235 1.60753 80.452 1.92779 80.7169 2.00874C80.9818 2.08942 81.3663 2.24018 81.5709 2.34367C81.7758 2.44744 83.5727 6.56413 85.564 11.4919C89.1551 20.3775 89.192 20.4525 90.024 20.5329L90.8628 20.6139L92.6107 16.1867C98.3763 1.58444 98.1347 2.11631 98.9989 2.11631C99.6565 2.11631 99.7876 2.00358 99.7876 1.43721V0.758114H96.6014C93.4548 0.758114 93.4165 0.765719 93.5032 1.3693C93.5762 1.87482 93.8059 2.00412 94.8306 2.11631C95.5122 2.19101 96.0699 2.37953 96.0699 2.53518C96.0699 3.04803 90.3052 17.5729 90.1589 17.4283C90.0802 17.3509 88.5776 13.5988 86.8201 9.09065L83.6242 0.893933L81.9295 0.812985C80.3708 0.738556 80.235 0.7774 80.235 1.29705ZM123.747 1.41602C123.747 1.99136 123.889 2.09512 124.779 2.16792L125.812 2.25213L125.885 10.5187C125.963 19.4222 125.996 19.2174 124.504 19.2255C123.879 19.2288 123.747 19.3496 123.747 19.9133V20.5973L130.562 20.5245L137.378 20.452L137.459 18.3264C137.538 16.2462 137.526 16.2024 136.908 16.2891C136.382 16.3627 136.254 16.5811 136.139 17.5997L136.001 18.8221H132.008H128.015L127.938 15.0871L127.862 11.352H131.174H134.487V10.5458V9.73932L131.251 9.66299L128.015 9.58639V6.05508V2.52377H131.733H135.451L135.535 3.67824C135.611 4.70449 135.696 4.8327 136.305 4.8327C136.978 4.8327 136.988 4.80146 136.908 2.86332L136.828 0.893933L130.287 0.821134L123.747 0.748335V1.41602ZM10.5518 2.74271C12.5442 3.41964 13.3897 6.12679 12.2066 8.04076C11.3788 9.38021 10.1839 9.75535 7.03561 9.66408L4.36516 9.58639L4.2875 6.21236C4.22939 3.69562 4.29934 2.7821 4.56289 2.61721C5.09742 2.28255 9.46702 2.3741 10.5518 2.74271ZM51.4391 3.31424C53.1017 4.2753 54.1694 5.76171 54.7705 7.95221C55.7694 11.5924 54.5331 15.886 51.9885 17.6125C49.5348 19.2779 46.0966 19.3276 43.6542 17.7334C39.4465 14.9866 39.1931 6.87434 43.2207 3.84421C44.7092 2.72424 46.0049 2.36785 48.1917 2.4765C49.7182 2.55229 50.4464 2.74027 51.4391 3.31424ZM30.3895 36.207V42.0473H31.0779C31.7639 42.0473 31.7664 42.0383 31.7664 39.4667V36.8861H33.0057H34.2449V39.4667C34.2449 41.8661 34.2835 42.0473 34.7957 42.0473C35.3294 42.0473 35.3465 41.8661 35.3465 36.207C35.3465 30.5838 35.3264 30.3668 34.8056 30.3668C34.3105 30.3668 34.2581 30.5906 34.186 33.0153L34.1072 35.6638L32.9368 35.7472L31.7664 35.8308V33.0987V30.3668H31.0779H30.3895V36.207ZM46.7751 30.6949C45.6345 31.3401 45.5538 31.7076 45.5447 36.2872C45.5362 40.6301 45.5486 40.7263 46.212 41.3804C46.6785 41.8408 47.194 42.0473 47.8767 42.0473C48.5594 42.0473 49.0749 41.8408 49.5414 41.3804C50.2035 40.7277 50.2175 40.622 50.2175 36.3344V31.9548L49.4126 31.1608C48.5674 30.3271 47.6972 30.1734 46.7751 30.6949ZM59.03 31.0459C59.03 31.6696 59.1311 31.725 60.2692 31.725H61.5085V36.8861V42.0473H62.2085H62.9086L62.8282 36.8859L62.7477 31.7244L63.9181 31.7247C64.9831 31.725 65.0886 31.6639 65.0886 31.0459V30.3668H62.0593H59.03V31.0459ZM74.7272 36.207V42.0473H76.9303C78.9497 42.0473 79.1334 42.0019 79.1334 41.504C79.1334 41.021 78.9497 40.9607 77.4811 40.9607H75.8287V38.9234V36.8861H77.3434C78.6609 36.8861 78.858 36.8171 78.858 36.357C78.858 35.9104 78.633 35.8151 77.4122 35.7458L75.9664 35.6638L75.8855 33.6944L75.8045 31.725H77.469C79.0607 31.725 79.1334 31.6954 79.1334 31.0459C79.1334 30.3782 79.0968 30.3668 76.9303 30.3668H74.7272V36.207ZM88.6344 36.207V42.0473H91.044C93.27 42.0473 93.4537 42.006 93.4537 41.504C93.4537 41.0164 93.27 40.9607 91.6636 40.9607H89.8736V35.6638V30.3668H89.254H88.6344V36.207ZM103.114 31.0701C102.318 31.7304 102.266 31.8877 102.266 33.6506C102.266 35.7376 102.699 36.4646 104.118 36.7595C105.503 37.0475 105.705 37.2835 105.791 38.7151C105.875 40.1146 105.429 40.9607 104.607 40.9607C104.016 40.9607 103.368 40.1686 103.368 39.4474C103.368 38.9688 103.217 38.7876 102.817 38.7876C102.37 38.7876 102.266 38.9688 102.266 39.7506C102.266 41.0626 103.27 42.0473 104.607 42.0473C105.29 42.0473 105.805 41.8408 106.272 41.3804C106.853 40.8075 106.948 40.462 106.948 38.9234C106.948 37.3849 106.853 37.0393 106.272 36.4665C105.9 36.0997 105.37 35.7996 105.094 35.7996C104.818 35.7996 104.316 35.6092 103.98 35.3766C103.494 35.0409 103.368 34.6888 103.368 33.6653C103.368 32.2626 103.711 31.725 104.607 31.725C105.401 31.725 105.846 32.2327 105.846 33.1375C105.846 33.7169 105.977 33.8981 106.397 33.8981C106.854 33.8981 106.948 33.7169 106.948 32.8357C106.948 31.9828 106.781 31.6345 106.1 31.0701C105.634 30.6833 104.962 30.3668 104.607 30.3668C104.251 30.3668 103.579 30.6833 103.114 31.0701ZM49.0548 36.04C49.1366 40.1629 48.9529 40.9607 47.9221 40.9607C46.7537 40.9607 46.6375 40.5391 46.6375 36.304C46.6375 32.4837 46.6655 32.2797 47.2444 31.8798C47.7616 31.5223 47.9343 31.515 48.4148 31.8293C48.9317 32.1672 48.9846 32.5152 49.0548 36.04Z" fill="#2C2C2C"/>
</svg>
