<svg width="101" height="123" viewBox="0 0 101 123" fill="none" xmlns="http://www.w3.org/2000/svg">
<path fill-rule="evenodd" clip-rule="evenodd" d="M44.4082 90.9891H18.9244L16.561 72.0792L1.04896 60.8517C0.384899 57.5278 0.0883789 54.1299 0.0883789 50.8059C0.0883789 23.0319 22.6173 0.50293 50.3174 0.50293C78.0907 0.50293 100.62 23.0319 100.62 50.8059C100.62 54.1306 100.251 57.5278 99.5866 60.8517L84.1485 72.0785L81.7844 90.9884H56.2266L54.7491 92.0222C53.4935 92.9828 51.942 93.5011 50.3174 93.5011C48.766 93.5011 47.2153 92.9835 45.885 92.0222L44.4082 90.9891ZM45.2209 82.199H26.68L24.8335 67.2046L9.54334 56.1242C9.1045 54.3854 8.88123 52.5992 8.87855 50.8059C8.87855 47.777 9.47013 44.8228 10.725 42.0897L37.7603 69.4208L11.4638 36.9192C12.4983 32.7087 14.7877 28.9418 18.0377 26.0608L41.6012 66.7609L20.6976 22.2199C23.43 18.6009 27.1976 15.941 31.4814 14.6114L45.885 65.1362L35.397 12.5431C38.6036 10.7542 42.2139 9.81367 45.8857 9.81073C46.6245 9.81073 47.4371 9.81073 48.1759 9.95862L50.3181 64.6193L52.4604 9.95862C53.2724 9.81073 54.0118 9.81073 54.8245 9.81073C58.5182 9.81073 62.0633 10.7706 65.3133 12.5431L54.7498 65.1362L69.1541 14.6114C73.5126 15.9403 77.2795 18.6002 79.9387 22.2199L59.0336 66.7609L82.5971 26.0608C85.8471 28.9418 88.1365 32.7087 89.1718 36.9192L62.8745 69.4208L89.9837 42.0897C91.1647 44.8228 91.8295 47.777 91.8295 50.8059C91.8295 52.5784 91.6076 54.3517 91.1647 56.1242L75.8752 67.2038L73.9548 82.1982H55.4139L52.6815 84.1933C52.0167 84.711 51.204 84.9328 50.3174 84.9328C49.5047 84.9328 48.6188 84.711 47.9533 84.1933L45.2209 82.199Z" fill="#2C2C2C"/>
<path fill-rule="evenodd" clip-rule="evenodd" d="M93.7509 122.383V101.035H100.621V122.383H93.7509ZM80.7516 122.383V101.035H87.6206V122.383H80.7516ZM76.5417 115.513H60.586V115.809C60.586 116.031 60.586 116.252 60.6592 116.474C60.6592 116.696 60.7339 116.917 60.8079 117.137C60.8811 117.359 61.0297 117.655 61.2508 117.877C61.398 118.098 61.5466 118.32 61.767 118.541C61.9888 118.763 62.2846 118.91 62.5804 119.058C62.8747 119.206 63.1712 119.353 63.5402 119.501C63.836 119.575 64.1311 119.649 64.4269 119.649C64.7959 119.722 65.0917 119.722 65.3875 119.722H65.4607C65.6825 119.722 65.9783 119.722 66.2726 119.649C66.5684 119.649 66.8649 119.574 67.086 119.501C67.3804 119.427 67.6769 119.353 67.898 119.206C68.1198 119.131 68.3409 118.984 68.5628 118.836C68.636 118.689 68.7846 118.541 68.9318 118.393C69.0065 118.245 69.1536 118.098 69.2276 117.876V117.801C69.2276 117.728 69.3008 117.728 69.3008 117.654H76.0973C76.0226 117.729 76.0226 117.876 75.9487 117.95C75.9487 117.95 75.9487 118.023 75.8755 118.097C75.7823 118.357 75.6579 118.605 75.505 118.835C75.2832 119.131 75.062 119.353 74.8402 119.648C74.5459 120.017 74.1754 120.313 73.8064 120.608C73.4374 120.904 72.9945 121.126 72.6255 121.422C72.0346 121.716 71.517 121.938 70.9269 122.16C70.2621 122.382 69.5973 122.529 68.9318 122.677C68.3409 122.751 67.7508 122.899 67.086 122.899C66.4937 122.972 65.9036 122.972 65.3128 122.972H65.1656C64.5008 122.972 63.7613 122.972 63.0966 122.899C62.5057 122.824 61.8409 122.677 61.2508 122.603C60.3642 122.382 59.5522 122.086 58.8128 121.791C58.0737 121.417 57.3583 120.998 56.6705 120.536C56.1666 120.105 55.6976 119.636 55.2677 119.132C54.8972 118.689 54.5282 118.098 54.3071 117.507C54.0853 117.064 53.9381 116.546 53.791 116.029C53.7163 115.512 53.6423 114.994 53.6423 114.403C53.6423 113.887 53.717 113.295 53.791 112.705C53.9381 112.189 54.0853 111.671 54.3071 111.153C54.6029 110.562 54.9719 110.046 55.4156 109.529C55.8585 108.938 56.3754 108.495 56.967 108.051C57.5238 107.629 58.1172 107.258 58.7403 106.943C59.3875 106.652 60.0535 106.405 60.7339 106.203C61.3987 106.056 62.0635 105.909 62.729 105.834C63.467 105.76 64.2065 105.687 64.8713 105.687H65.1671C65.9051 105.687 66.6445 105.76 67.3818 105.834C68.1213 105.981 68.8593 106.13 69.5241 106.277C70.2635 106.499 71.0755 106.795 71.7403 107.164C72.4051 107.533 73.0699 107.902 73.6607 108.419C74.1769 108.862 74.6945 109.38 75.1382 110.046C75.5072 110.636 75.803 111.226 76.0248 111.965C76.172 112.409 76.3206 112.853 76.3938 113.369C76.4685 113.886 76.5424 114.403 76.5424 114.993V115.142L76.5417 115.513ZM69.9663 112.337H60.6585V112.115C60.6585 112.041 60.6585 112.041 60.7332 111.967C60.7332 111.82 60.8079 111.672 60.8079 111.524C60.8811 111.301 60.955 111.154 61.0297 111.007C61.1769 110.86 61.2515 110.638 61.3987 110.489C61.5473 110.269 61.7677 110.12 61.9163 109.973C62.1382 109.751 62.4325 109.604 62.7283 109.455C62.9501 109.308 63.2444 109.161 63.5402 109.086L64.4269 108.865H65.3875C65.7565 108.865 66.1255 108.865 66.4212 108.939C66.7902 109.012 67.086 109.086 67.3811 109.234C67.6769 109.308 67.8987 109.382 68.1206 109.529C68.4149 109.677 68.6367 109.898 68.7853 110.047C69.0072 110.194 69.0797 110.341 69.2283 110.489C69.3755 110.638 69.4501 110.785 69.5973 111.007C69.6705 111.154 69.7445 111.301 69.8191 111.524C69.8923 111.672 69.8924 111.893 69.9663 112.041V112.337ZM35.3232 101.035V108.201L35.619 107.905C35.693 107.905 35.693 107.832 35.7669 107.832C36.062 107.61 36.3578 107.389 36.6528 107.241C37.0317 107.015 37.4267 106.817 37.8345 106.648C38.3521 106.427 38.7951 106.279 39.238 106.132C39.681 105.984 40.1247 105.91 40.6416 105.836C41.0106 105.762 41.4543 105.689 41.8972 105.615H43.2268C43.6697 105.615 44.1874 105.689 44.6303 105.762C45.0733 105.836 45.5169 105.984 45.9599 106.132C46.4021 106.279 46.9197 106.501 47.2887 106.797C47.7317 107.091 48.1754 107.462 48.5444 107.831C48.8402 108.2 49.1352 108.643 49.3571 109.012C49.5789 109.382 49.7261 109.825 49.7993 110.194C49.874 110.563 49.9472 110.932 49.9472 111.301C50.0211 111.746 50.0211 112.262 50.0211 112.705V122.382H43.3732V113.518C43.3732 113.224 43.2993 112.855 43.2993 112.558V112.041C43.2993 111.819 43.2253 111.524 43.0782 111.301L42.6352 110.638C42.4134 110.416 42.1915 110.269 41.9697 110.12C41.7486 109.973 41.5267 109.826 41.231 109.751C41.0091 109.677 40.7133 109.604 40.4922 109.604C40.1964 109.529 39.9753 109.529 39.7535 109.529H39.6056C39.3837 109.529 39.0887 109.604 38.7929 109.604C38.5711 109.677 38.3499 109.751 38.1281 109.826C37.8323 109.899 37.5373 110.048 37.3154 110.195C37.0204 110.417 36.7985 110.638 36.5027 110.86L35.838 111.746C35.6901 112.041 35.5422 112.337 35.4682 112.706C35.3943 112.928 35.3943 113.149 35.3943 113.297C35.3203 113.593 35.3203 113.889 35.3203 114.184V122.383H28.4513V101.035H35.3232ZM23.726 107.463H16.6352V107.241V107.092C16.6352 106.87 16.6352 106.649 16.5612 106.501C16.4873 106.279 16.4133 106.132 16.3394 105.91C16.2532 105.731 16.1544 105.558 16.0436 105.393C15.8957 105.246 15.7478 105.097 15.5267 104.95C15.3586 104.785 15.1567 104.659 14.9351 104.581C14.714 104.434 14.4922 104.359 14.2703 104.285L13.3837 104.063C13.0886 103.99 12.7929 103.99 12.4978 103.99H11.6844C11.3893 103.99 11.1675 104.063 10.8717 104.137C10.5759 104.137 10.3541 104.212 10.059 104.359C9.83791 104.434 9.61607 104.581 9.32028 104.655C9.17239 104.802 8.95127 104.949 8.80338 105.097C8.58154 105.246 8.43438 105.393 8.36043 105.615C8.21254 105.762 8.13859 105.984 8.06464 106.132C7.9907 106.353 7.91675 106.575 7.91675 106.797C7.91675 106.944 7.9907 107.166 8.06464 107.388C8.06464 107.535 8.21254 107.757 8.28648 107.904L8.80411 108.422C9.02595 108.496 9.24706 108.643 9.4689 108.717C9.69075 108.791 9.91185 108.865 10.133 108.865C10.5027 108.939 10.7978 109.012 11.1675 109.012C11.6104 109.086 12.1281 109.086 12.571 109.16C13.014 109.16 13.5316 109.234 13.9745 109.234C14.7133 109.308 15.526 109.308 16.264 109.382C16.633 109.382 16.9288 109.455 17.2245 109.455C17.8893 109.53 18.6281 109.604 19.2929 109.751C19.8837 109.898 20.4013 110.047 20.9922 110.269C21.5992 110.497 22.1524 110.849 22.6168 111.301C23.1344 111.672 23.5035 112.189 23.7985 112.705C24.0203 113.074 24.1675 113.517 24.2415 113.888C24.3154 114.33 24.3894 114.773 24.3894 115.291C24.3894 115.734 24.3154 116.251 24.2415 116.695C24.1675 117.137 23.9457 117.58 23.7985 117.951C23.5035 118.467 23.2077 118.984 22.8379 119.353C22.4689 119.796 22.0992 120.093 21.6562 120.387C20.9915 120.83 20.3274 121.201 19.5879 121.496C18.8492 121.791 18.0372 122.013 17.2245 122.235C16.4119 122.382 15.5992 122.457 14.7865 122.604C13.9006 122.679 13.014 122.679 12.1273 122.751H11.8323C11.0935 122.751 10.3541 122.678 9.61607 122.678C8.80338 122.603 7.9907 122.529 7.17801 122.382C6.45583 122.245 5.74088 122.072 5.03575 121.865C4.37096 121.717 3.78011 121.422 3.18927 121.127C2.76924 120.924 2.37272 120.676 2.00685 120.387C1.63785 120.018 1.34206 119.649 1.04627 119.279C0.898379 118.984 0.751216 118.762 0.603322 118.467C0.471017 118.133 0.372181 117.786 0.308266 117.433C0.234319 117.211 0.160373 116.99 0.160373 116.768C0.0864257 116.474 0.0864258 116.252 0.0864258 115.956V115.881V115.66H7.17801V116.177C7.17801 116.324 7.25196 116.546 7.25196 116.768L7.47307 117.211C7.62096 117.433 7.76885 117.58 7.91602 117.802C8.06391 117.951 8.28502 118.098 8.43365 118.245C8.7287 118.393 8.95054 118.541 9.24633 118.688C9.54139 118.762 9.91112 118.91 10.2062 118.984C10.502 119.057 10.871 119.131 11.2407 119.205C11.5358 119.205 11.9055 119.279 12.2752 119.279C12.6442 119.279 12.9393 119.205 13.2351 119.205C13.6041 119.205 13.8999 119.131 14.2696 119.057C14.5647 118.984 14.8604 118.91 15.1562 118.763C15.3773 118.688 15.5992 118.615 15.821 118.467C16.0429 118.393 16.264 118.245 16.4119 118.098C16.5598 117.876 16.7069 117.729 16.8548 117.507C16.9288 117.285 17.0027 117.136 17.0767 116.916C17.1506 116.694 17.1506 116.473 17.1506 116.251C17.1506 116.103 17.1506 115.881 17.0767 115.659C17.0767 115.512 17.0027 115.365 16.8548 115.216C16.7261 115.029 16.5776 114.855 16.4119 114.7C16.19 114.551 15.9689 114.478 15.6731 114.404C15.4513 114.329 15.1562 114.257 14.8604 114.182C14.4914 114.182 14.1957 114.109 13.8259 114.109L10.5759 113.887C9.98507 113.812 9.32028 113.812 8.65549 113.738C8.06391 113.665 7.39985 113.591 6.73433 113.517C6.09219 113.378 5.45199 113.23 4.81391 113.074C4.37096 112.927 3.92801 112.779 3.48433 112.558C3.11532 112.336 2.74559 112.115 2.4498 111.818C2.0808 111.449 1.78501 111.006 1.5639 110.637C1.26811 110.194 1.12095 109.75 0.973057 109.233C0.89911 108.79 0.825164 108.273 0.825164 107.83C0.825164 107.239 0.825164 106.722 0.973057 106.131C1.12095 105.689 1.26811 105.171 1.5639 104.802C1.85896 104.211 2.30264 103.693 2.81953 103.176C3.33643 102.734 3.85333 102.364 4.51812 102.069C5.10896 101.773 5.77375 101.551 6.36459 101.329C7.08741 101.111 7.82957 100.963 8.58081 100.886C9.23553 100.74 9.90429 100.666 10.5752 100.665C11.2407 100.59 11.8315 100.59 12.4963 100.59H12.7914C13.5301 100.59 14.2689 100.665 15.0069 100.665C15.6717 100.739 16.4104 100.886 17.0752 100.96C17.74 101.107 18.4787 101.329 19.0696 101.551C19.6604 101.773 20.2512 101.994 20.8428 102.363C21.2118 102.585 21.5816 102.806 21.8766 103.103C22.2456 103.398 22.4675 103.767 22.6893 104.136C22.9111 104.358 23.0583 104.654 23.1323 104.948C23.2801 105.244 23.3534 105.539 23.5013 105.835C23.5013 106.057 23.5752 106.204 23.5752 106.426C23.6491 106.648 23.6491 106.796 23.7231 107.018V107.165L23.726 107.463Z" fill="#2C2C2C"/>
</svg>
