<svg width="135" height="22" viewBox="0 0 135 22" fill="none" xmlns="http://www.w3.org/2000/svg">
<path fill-rule="evenodd" clip-rule="evenodd" d="M19.7185 20.4745H25.6229V0.677115H19.7185V20.4745ZM30.3303 20.4745H45.613V16.5386H36.2348V12.4868H44.4553V8.66555H36.2348V4.61366H45.613V0.677115H30.3303V20.4745ZM61.7661 12.4287L56.5558 0.677115H48.8568V20.4745H53.6036V8.66555L58.8139 20.4745H62.6924L68.3074 8.37613V20.4745H74.2119V0.677115H67.2071L61.7661 12.4287ZM111.719 12.8335L104.309 0.677115H97.8248V20.4745H101.993V8.26079L109.46 20.4745H115.887V0.677115H111.719V12.8335ZM78.852 20.4745H94.1339V16.5386H84.7564V12.4868H92.9762V8.66555H84.7564V4.61366H94.1339V0.677115H78.852V20.4745ZM13.3534 9.76592C11.6749 9.01371 9.0701 7.68195 7.27484 6.87171C5.58918 6.11019 5.53831 2.12493 15.2633 5.07716V1.3147C13.2373 0.619804 7.68031 -0.71196 3.51237 1.60412C-0.655571 3.91948 0.328745 9.65058 3.51237 11.5612C4.90145 12.3134 6.81205 13.0083 9.24347 14.0499C11.2579 14.9132 12.4851 19.3182 0.964897 16.308V20.1865C3.33829 21.0548 12.0216 21.981 14.5684 19.1441C17.7491 15.6023 16.3056 10.9816 13.3534 9.76592ZM131.775 9.76592C130.096 9.01371 127.492 7.68195 125.697 6.87171C124.011 6.11019 123.961 2.12493 133.685 5.07716V1.3147C131.659 0.619804 126.103 -0.71196 121.935 1.60412C117.767 3.91948 118.75 9.65058 121.935 11.5612C123.324 12.3134 125.234 13.0083 127.666 14.0499C129.68 14.9132 130.908 19.3182 119.387 16.308V20.1865C121.761 21.0548 130.445 21.981 132.991 19.1441C136.171 15.6023 134.727 10.9816 131.775 9.76592Z" fill="#2C2C2C"/>
</svg>
