<svg width="168" height="113" viewBox="0 0 168 113" fill="none" xmlns="http://www.w3.org/2000/svg">
<path d="M100.321 63.1454C102.722 63.1454 103.464 61.4917 103.966 59.4998H102.84C101.282 59.4998 98.6929 59.765 98.6929 61.8495C98.6929 62.7133 99.506 63.1454 100.321 63.1454ZM103.464 63.3129H103.415C102.313 64.7036 101.21 65.4951 99.4345 65.4951C97.206 65.4951 95.6236 64.2478 95.6236 61.9714C95.6236 57.8952 100.179 57.5828 103.2 57.5828H104.326C104.423 57.2463 104.423 56.8868 104.423 56.5287C104.423 55.2814 103.08 54.9219 101.952 54.9219C100.538 54.9219 99.1715 55.2814 97.9012 55.8808L98.3573 53.3151C99.7226 52.8362 101.114 52.5721 102.553 52.5721C105.021 52.5721 107.348 53.4839 107.348 56.3839C107.348 58.0388 106.125 62.8811 105.836 65.2079H103.128L103.464 63.3129ZM20.1779 52.8487H22.5033L23.0545 50.3082L26.5076 49.1804L25.7163 52.8487H28.5927L28.0896 55.1985H25.2126L24.0376 60.5935C23.9659 60.8814 23.8942 61.3122 23.8942 61.7912C23.8942 62.5341 24.3977 62.9901 25.1161 62.9901C25.6927 62.9901 26.2675 62.8707 26.6748 62.7029L26.1241 65.1965C25.5725 65.3157 24.9498 65.4847 24.3977 65.4847C22.2161 65.4847 20.681 64.6207 20.681 62.2459C20.681 61.2878 20.873 60.3532 21.0883 59.3711L21.9998 55.1985H19.6744L20.1779 52.8487ZM31.0873 47.5252H34.3003L33.629 50.5954H30.4158L31.0873 47.5252ZM29.9123 52.8487H33.1255L30.4877 65.1965H27.2741L29.9123 52.8487ZM42.8268 55.6776C42.2038 55.2699 41.3648 55.0549 40.477 55.0549C37.9122 55.0549 36.4738 57.452 36.4738 59.778C36.4738 61.3833 37.0004 62.9901 39.2068 62.9901C39.9985 62.9901 40.9817 62.7744 41.8202 62.3663L41.46 64.9093C40.477 65.3882 39.422 65.4847 38.3671 65.4847C35.1787 65.4847 33.1174 63.3506 33.1174 60.1614C33.1174 55.8464 35.97 52.5618 40.4049 52.5618C41.6047 52.5618 42.7551 52.7777 43.6181 53.0404L42.8268 55.6776ZM46.3505 47.2153H49.5634L47.4288 57.3326H47.4783L51.9616 52.8487H56.1328L50.2118 58.4831L53.9266 65.1965H50.3066L47.117 58.6511H47.0701L45.6792 65.1965H42.5385L46.3505 47.2153ZM67.7138 52.8487H70.0392L70.5904 50.3082L74.0434 49.1804L73.2522 52.8487H76.1295L75.6253 55.1985H72.7486L71.5735 60.5935C71.5016 60.8814 71.4305 61.3122 71.4305 61.7912C71.4305 62.5341 71.9334 62.9901 72.6531 62.9901C73.2282 62.9901 73.8033 62.8707 74.2104 62.7029L73.6604 65.1965C73.1082 65.3157 72.485 65.4847 71.9334 65.4847C69.7518 65.4847 68.2169 64.6207 68.2169 62.2459C68.2169 61.2878 68.4086 60.3532 68.6251 59.3711L69.5353 55.1985H67.2103L67.7138 52.8487Z" fill="#2C2C2C"/>
<path d="M66.6391 57.2603C66.6391 54.1205 64.6255 52.5618 61.5807 52.5618C57.5289 52.5618 54.5549 56.2541 54.5549 60.0892C54.5549 63.7575 56.9528 65.4847 60.5022 65.4847C61.8202 65.4847 63.1871 65.1726 64.4337 64.7887L64.841 62.2459C63.6424 62.7994 62.371 63.135 61.0524 63.135C58.9979 63.135 57.7971 62.4043 57.6433 60.4636H57.6408C57.6351 60.3511 57.6241 60.2406 57.6241 60.1225C57.6241 60.0996 57.6252 60.0764 57.6252 60.0537C57.6252 60.0406 57.6241 60.0308 57.6241 60.0177H57.6264C57.6408 59.1726 57.8262 58.3388 58.1491 57.5681C58.7666 55.9971 59.6385 54.9116 61.5325 54.9116C62.8743 54.9116 63.5705 55.6535 63.5705 56.9731C63.5705 57.2603 63.5459 57.5243 63.4989 57.8115H59.1023C58.817 58.782 58.7676 59.432 58.7618 60.0177H66.3269C66.5188 59.1059 66.6391 58.1952 66.6391 57.2603ZM77.5155 54.2157C77.6105 53.7365 77.7071 53.2336 77.7786 52.8488H80.7764L80.4883 54.5028H80.5363C81.3995 53.2336 82.8134 52.5618 84.3237 52.5618C85.7867 52.5618 87.297 53.4244 87.4651 54.9116H87.5131C88.3288 53.3047 90.1273 52.5618 91.8522 52.5618C93.6976 52.5618 95.2817 54.0719 95.2817 55.9417C95.2817 57.0441 94.992 58.2914 94.7294 59.2977L93.4346 65.1965H90.2213L91.5166 59.1782C91.6847 58.4351 91.9242 57.2832 91.9242 56.5413C91.9242 55.6295 91.2296 55.0549 90.4144 55.0549C88.1837 55.0549 87.6326 57.645 87.2245 59.3228L85.9547 65.1965H82.7419L84.0367 59.1782C84.2053 58.4351 84.4443 57.2832 84.4443 56.5413C84.4443 55.6295 83.7481 55.0549 82.9329 55.0549C80.7519 55.0549 80.1522 57.6679 79.7451 59.3228L78.4738 65.1965H75.262L77.5155 54.2157ZM116.89 55.363C116.545 55.1745 115.658 54.9116 114.748 54.9116C113.788 54.9116 112.589 55.1745 112.589 56.1566C112.589 57.716 116.761 58.2914 116.761 61.3123C116.761 64.5261 113.956 65.4847 111.2 65.4847C109.904 65.4847 108.609 65.293 107.435 64.7405L108.131 62.1757C109.04 62.678 109.953 63.135 111.2 63.135C112.277 63.135 113.405 62.7745 113.405 61.7683C113.405 59.778 109.233 59.5848 109.233 56.4929C109.233 53.5932 112.038 52.5618 114.579 52.5618C115.755 52.5618 116.954 52.7777 117.586 52.9419L116.89 55.363ZM118.944 52.8488H121.269L121.82 50.3083L125.272 49.1804L124.481 52.8488H127.358L126.856 55.1985H123.977L122.802 60.5935C122.731 60.8815 122.659 61.3123 122.659 61.7912C122.659 62.5342 123.163 62.9902 123.882 62.9902C124.457 62.9902 125.033 62.8707 125.44 62.703L124.888 65.1965C124.336 65.3157 123.714 65.4847 123.163 65.4847C120.981 65.4847 119.446 64.6207 119.446 62.2459C119.446 61.2879 119.639 60.3532 119.854 59.3712L120.765 55.1985H118.439L118.944 52.8488ZM140.725 54.5028C140.824 53.9521 140.92 53.4007 141.013 52.8488H144.082L143.65 55.1745H143.698C144.275 53.832 145.855 52.5618 147.342 52.5618C147.75 52.5618 148.181 52.5847 148.564 52.681L147.894 55.8212C147.535 55.7016 147.077 55.6295 146.67 55.6295C144.392 55.6295 143.29 57.6679 142.883 59.6581L141.732 65.1965H138.519L140.725 54.5028ZM138.495 57.2603C138.495 54.1205 136.481 52.5618 133.437 52.5618C129.386 52.5618 126.411 56.2541 126.411 60.0892C126.411 63.7575 128.809 65.4847 132.358 65.4847C133.675 65.4847 135.043 65.1726 136.29 64.7887L136.697 62.2459C135.498 62.7994 134.228 63.135 132.909 63.135C130.853 63.135 129.653 62.4043 129.498 60.4636H129.496C129.491 60.3511 129.48 60.2406 129.48 60.1225C129.48 60.0996 129.482 60.0764 129.482 60.0537C129.482 60.0406 129.48 60.0308 129.48 60.0177H129.482C129.496 59.1726 129.682 58.3388 130.004 57.5681C130.621 55.9971 131.494 54.9116 133.388 54.9116C134.73 54.9116 135.427 55.6535 135.427 56.9731C135.427 57.2603 135.402 57.5243 135.355 57.8115H130.959C130.672 58.782 130.623 59.432 130.616 60.0177H138.183C138.375 59.1059 138.495 58.1952 138.495 57.2603Z" fill="#2C2C2C"/>
</svg>
