<svg width="169" height="26" viewBox="0 0 169 26" fill="none" xmlns="http://www.w3.org/2000/svg">
<g clip-path="url(#clip0_73_1789)">
<path d="M160.895 25.6259H168.132L160.662 0.981355H150.375L142.905 25.6259H150.142L151.465 21.0616H159.572L160.895 25.6259ZM153.041 15.5789L155.501 7.06711H155.542L158.003 15.5789H153.041ZM36.6989 26.0645C44.1279 26.0645 47.7191 24.7556 48.2331 18.053C48.3564 16.4562 48.377 14.8182 48.377 13.3036C48.377 11.7891 48.3564 10.1511 48.2331 8.55428C47.7259 1.84487 44.1348 0.535889 36.6989 0.535889C29.263 0.535889 25.6787 1.84487 25.1716 8.54743C25.0482 10.1443 25.0208 11.7822 25.0208 13.2968C25.0208 14.8182 25.0482 16.4562 25.1716 18.0461C25.6787 24.7556 29.2699 26.0645 36.6989 26.0645ZM32.0249 13.2968C32.0249 11.9467 32.0592 11.1448 32.0866 10.5486C32.2785 6.745 33.7794 6.29954 36.6989 6.29954C39.6184 6.29954 41.1193 6.745 41.3112 10.5486C41.3386 11.1448 41.3729 11.9398 41.3729 13.2968C41.3729 14.6537 41.3386 15.4556 41.3112 16.045C41.1262 19.8486 39.6253 20.294 36.6989 20.294C33.7794 20.294 32.2785 19.8486 32.0866 16.045C32.0592 15.4556 32.0249 14.6537 32.0249 13.2968ZM0.575012 0.988208V7.12879H7.94234V25.6259H15.3097V7.13564H22.677V0.988208H0.575012ZM113.641 25.6259V0.981355H106.651V25.6259H113.641ZM85.5083 9.97977V0.981355H78.5522V25.6259H85.5083V16.1204H93.5884V25.6259H100.538V0.981355H93.5884V9.97977H85.5083ZM136.648 12.7417C139.746 11.9467 140.657 10.0963 140.657 7.42348C140.657 2.00935 137.251 0.974502 132.406 0.974502H119.85V25.6191H133.029C139.094 25.6191 141.137 23.008 141.137 18.985C141.13 16.1889 140.486 13.7148 136.648 12.7417ZM126.793 15.5036H131.617C133.564 15.5036 133.975 16.3602 133.975 17.7446C133.975 19.1358 133.214 19.9925 131.617 19.9925H126.793V15.5036ZM126.793 6.61479H131.617C132.878 6.61479 133.653 7.21103 133.653 8.65023C133.653 9.88383 132.885 10.6377 131.617 10.6377H126.793V6.61479ZM52.4273 17.539H59.0545C59.0613 18.7315 59.2121 19.5333 59.7946 19.9719C60.4525 20.4722 61.0419 20.6367 63.002 20.6367C64.8866 20.6367 66.9495 20.6367 66.9495 18.3134C66.9495 16.4836 65.7981 16.0655 63.6667 15.949C58.3828 15.668 56.4776 15.5173 54.5107 14.0575C53.1674 13.0638 52.4753 11.1243 52.4753 8.49946C52.4753 4.03794 54.031 2.47538 56.2789 1.3857C58.5953 0.261756 67.6896 0.261756 70.1363 1.3857C73.2134 2.80434 73.3025 5.87463 73.3025 8.71876H66.6891C66.6754 7.26586 66.3464 6.85466 66.086 6.58738C65.4006 5.97743 64.4206 5.84722 63.0088 5.84722C61.3023 5.84722 59.3217 5.9226 59.3217 7.99916C59.3217 9.58228 60.0071 10.2471 61.8026 10.3636C64.2698 10.5212 69.1357 10.6788 70.8696 11.7C73.3025 13.1392 73.933 15.0855 73.933 18.2586C73.933 22.8503 72.2882 24.1936 70.0061 25.201C67.3675 26.3661 58.561 26.3661 55.6963 25.1119C52.4958 23.7138 52.4273 20.9314 52.4273 17.539Z" fill="#2C2C2C"/>
</g>
<defs>
<clipPath id="clip0_73_1789">
<rect width="167.557" height="25.09" fill="white" transform="translate(0.575012 0.535889)"/>
</clipPath>
</defs>
</svg>
